<mxfile host="drawio-plugin" modified="2023-01-10T19:10:27.764Z" agent="5.0 (Macintosh; Intel Mac OS X 10_15_7) AppleWebKit/537.36 (KHTML, like Gecko) Chrome/104.0.5112.102 Safari/537.36" version="20.5.3" etag="z1aE0vYTFB122P7U696Y" type="embed" pages="2"><diagram name="Main Irrigation Service" id="Obrbr4Vz3u0_1d36ThNe"><mxGraphModel dx="2131" dy="443" grid="0" gridSize="10" guides="1" tooltips="1" connect="1" arrows="1" fold="1" page="0" pageScale="1" pageWidth="827" pageHeight="1169" math="0" shadow="0"><root><mxCell id="MoJ-YKAXfjhUIpLR4al3-0"/><mxCell id="MoJ-YKAXfjhUIpLR4al3-1" parent="MoJ-YKAXfjhUIpLR4al3-0"/><mxCell id="MoJ-YKAXfjhUIpLR4al3-2" value="" style="rounded=0;whiteSpace=wrap;html=1;fontStyle=1;fillColor=default;strokeWidth=2;fillStyle=auto;dashed=1;" vertex="1" parent="MoJ-YKAXfjhUIpLR4al3-1"><mxGeometry x="-270" y="4" width="999" height="750" as="geometry"/></mxCell><mxCell id="MoJ-YKAXfjhUIpLR4al3-3" value="" style="rounded=0;whiteSpace=wrap;html=1;fontStyle=1;fillColor=none;strokeWidth=2;dashed=1;" vertex="1" parent="MoJ-YKAXfjhUIpLR4al3-1"><mxGeometry x="-150" y="40" width="817" height="646" as="geometry"/></mxCell><mxCell id="MoJ-YKAXfjhUIpLR4al3-34" value="" style="shape=image;verticalLabelPosition=bottom;labelBackgroundColor=#ffffff;verticalAlign=top;aspect=fixed;imageAspect=0;image=https://twilio-cms-prod.s3.amazonaws.com/images/library-logo-resource2x.width-1000.png;" vertex="1" parent="MoJ-YKAXfjhUIpLR4al3-1"><mxGeometry x="513" y="142" width="53.79" height="30" as="geometry"/></mxCell><mxCell id="MoJ-YKAXfjhUIpLR4al3-35" style="edgeStyle=none;html=1;entryX=0;entryY=0.5;entryDx=0;entryDy=0;startArrow=none;startFill=0;endArrow=classic;endFill=1;strokeWidth=3;fillColor=#fff2cc;strokeColor=#d6b656;" edge="1" parent="MoJ-YKAXfjhUIpLR4al3-1"><mxGeometry relative="1" as="geometry"><mxPoint x="-320" y="371.5" as="targetPoint"/><mxPoint x="-422.5" y="372.9411247803164" as="sourcePoint"/></mxGeometry></mxCell><mxCell id="0ayYojwQcvTGPDUYHFci-11" style="edgeStyle=orthogonalEdgeStyle;rounded=1;orthogonalLoop=1;jettySize=auto;html=1;entryX=0.113;entryY=0.516;entryDx=0;entryDy=0;entryPerimeter=0;fillColor=#fff2cc;strokeColor=#d6b656;strokeWidth=3;" edge="1" parent="MoJ-YKAXfjhUIpLR4al3-1" target="MoJ-YKAXfjhUIpLR4al3-3"><mxGeometry relative="1" as="geometry"><mxPoint x="-235" y="373" as="sourcePoint"/></mxGeometry></mxCell><mxCell id="MoJ-YKAXfjhUIpLR4al3-37" value="" style="ellipse;whiteSpace=wrap;html=1;aspect=fixed;strokeWidth=0;strokeColor=none;" vertex="1" parent="MoJ-YKAXfjhUIpLR4al3-1"><mxGeometry x="-320" y="232.5" width="110" height="110" as="geometry"/></mxCell><mxCell id="MoJ-YKAXfjhUIpLR4al3-38" value="" style="outlineConnect=0;dashed=0;verticalLabelPosition=bottom;verticalAlign=top;align=center;html=1;fontSize=12;fontStyle=0;aspect=fixed;pointerEvents=1;shape=mxgraph.aws4.network_load_balancer;fillColor=#6a00ff;strokeColor=#3700CC;fontColor=#ffffff;" vertex="1" parent="MoJ-YKAXfjhUIpLR4al3-1"><mxGeometry x="-309.5" y="333" width="74" height="74" as="geometry"/></mxCell><mxCell id="MoJ-YKAXfjhUIpLR4al3-39" value="Public &lt;br&gt;Network" style="text;html=1;align=center;verticalAlign=middle;resizable=0;points=[];autosize=1;strokeColor=none;" vertex="1" parent="MoJ-YKAXfjhUIpLR4al3-1"><mxGeometry x="-408" y="325" width="54" height="32" as="geometry"/></mxCell><mxCell id="MoJ-YKAXfjhUIpLR4al3-40" value="Private&lt;br&gt;Network" style="text;html=1;align=center;verticalAlign=middle;resizable=0;points=[];autosize=1;strokeColor=none;" vertex="1" parent="MoJ-YKAXfjhUIpLR4al3-1"><mxGeometry x="-242" y="74" width="54" height="32" as="geometry"/></mxCell><mxCell id="xsfxkohRiaNYwhzO0Onx-6" style="edgeStyle=orthogonalEdgeStyle;rounded=1;orthogonalLoop=1;jettySize=auto;html=1;strokeWidth=3;endSize=6;fillColor=#0050ef;strokeColor=#001DBC;" edge="1" parent="MoJ-YKAXfjhUIpLR4al3-1" source="MoJ-YKAXfjhUIpLR4al3-55" target="AAcZ-q7HfI9-OeqjXcIQ-3"><mxGeometry relative="1" as="geometry"/></mxCell><mxCell id="MoJ-YKAXfjhUIpLR4al3-55" value="" style="shape=image;verticalLabelPosition=bottom;labelBackgroundColor=#ffffff;verticalAlign=top;aspect=fixed;imageAspect=0;image=https://www.snaplogic.com/wp-content/uploads/2016/05/kafka-logo-600x390.jpg;" vertex="1" parent="MoJ-YKAXfjhUIpLR4al3-1"><mxGeometry x="213.00000000000003" y="336.25" width="100.78" height="65.5" as="geometry"/></mxCell><mxCell id="MoJ-YKAXfjhUIpLR4al3-58" value="Load Balancer" style="text;html=1;align=center;verticalAlign=middle;resizable=0;points=[];autosize=1;strokeColor=none;" vertex="1" parent="MoJ-YKAXfjhUIpLR4al3-1"><mxGeometry x="-314" y="271" width="87" height="18" as="geometry"/></mxCell><mxCell id="0ayYojwQcvTGPDUYHFci-0" value="" style="group" vertex="1" connectable="0" parent="MoJ-YKAXfjhUIpLR4al3-1"><mxGeometry x="-517" y="334" width="80" height="80" as="geometry"/></mxCell><mxCell id="XlERCXYJoachLAWnKIzD-0" value="" style="ellipse;whiteSpace=wrap;html=1;aspect=fixed;fillStyle=auto;" vertex="1" parent="0ayYojwQcvTGPDUYHFci-0"><mxGeometry width="80" height="80" as="geometry"/></mxCell><mxCell id="XlERCXYJoachLAWnKIzD-1" value="" style="shape=image;imageAspect=0;aspect=fixed;verticalLabelPosition=bottom;verticalAlign=top;image=data:image/jpeg,/9j/4QAYRXhpZgAASUkqAAgAAAAAAAAAAAAAAP/sABFEdWNreQABAAQAAAA8AAD/4QNvaHR0cDovL25zLmFkb2JlLmNvbS94YXAvMS4wLwA8P3hwYWNrZXQgYmVnaW49Iu+7vyIgaWQ9Ilc1TTBNcENlaGlIenJlU3pOVGN6a2M5ZCI/PiA8eDp4bXBtZXRhIHhtbG5zOng9ImFkb2JlOm5zOm1ldGEvIiB4OnhtcHRrPSJBZG9iZSBYTVAgQ29yZSA1LjMtYzAxMSA2Ni4xNDU2NjEsIDIwMTIvMDIvMDYtMTQ6NTY6MjcgICAgICAgICI+IDxyZGY6UkRGIHhtbG5zOnJkZj0iaHR0cDovL3d3dy53My5vcmcvMTk5OS8wMi8yMi1yZGYtc3ludGF4LW5zIyI+IDxyZGY6RGVzY3JpcHRpb24gcmRmOmFib3V0PSIiIHhtbG5zOnhtcE1NPSJodHRwOi8vbnMuYWRvYmUuY29tL3hhcC8xLjAvbW0vIiB4bWxuczpzdFJlZj0iaHR0cDovL25zLmFkb2JlLmNvbS94YXAvMS4wL3NUeXBlL1Jlc291cmNlUmVmIyIgeG1sbnM6eG1wPSJodHRwOi8vbnMuYWRvYmUuY29tL3hhcC8xLjAvIiB4bXBNTTpPcmlnaW5hbERvY3VtZW50SUQ9InhtcC5kaWQ6MjA2QjNGMUFBMTUxRTcxMTg2MTU4M0JCQTlGMjRFQzgiIHhtcE1NOkRvY3VtZW50SUQ9InhtcC5kaWQ6NDk3OTI5RjRBNDMyMTFFNzhGRjdBQTJFOTlGQzJDRjIiIHhtcE1NOkluc3RhbmNlSUQ9InhtcC5paWQ6NDk3OTI5RjNBNDMyMTFFNzhGRjdBQTJFOTlGQzJDRjIiIHhtcDpDcmVhdG9yVG9vbD0iQWRvYmUgUGhvdG9zaG9wIENTNiAoV2luZG93cykiPiA8eG1wTU06RGVyaXZlZEZyb20gc3RSZWY6aW5zdGFuY2VJRD0ieG1wLmlpZDo4NDU5RDcyOTREQTNFNzExQkVDRkMzNDgzMzJGQzQ4NSIgc3RSZWY6ZG9jdW1lbnRJRD0ieG1wLmRpZDoyMDZCM0YxQUExNTFFNzExODYxNTgzQkJBOUYyNEVDOCIvPiA8L3JkZjpEZXNjcmlwdGlvbj4gPC9yZGY6UkRGPiA8L3g6eG1wbWV0YT4gPD94cGFja2V0IGVuZD0iciI/Pv/uAA5BZG9iZQBkwAAAAAH/2wCEAAYEBAQFBAYFBQYJBgUGCQsIBgYICwwKCgsKCgwQDAwMDAwMEAwODxAPDgwTExQUExMcGxsbHB8fHx8fHx8fHx8BBwcHDQwNGBAQGBoVERUaHx8fHx8fHx8fHx8fHx8fHx8fHx8fHx8fHx8fHx8fHx8fHx8fHx8fHx8fHx8fHx8fH//AABEIAu4DIAMBEQACEQEDEQH/xACjAAEAAQUBAQAAAAAAAAAAAAAABgECAwQFBwgBAQACAwEBAAAAAAAAAAAAAAABAgMEBQYHEAACAQMCBAQEBAMHAgQFBQAAAQIRAwQhBTFBEgZRYSITcYEyB5FCIxShwVKx0WKCMyQVckPhklMW8KJjNCXxwnNECBEBAQACAgICAQQCAgICAwAAAAERAgMEIRIxBUFRYSITMgZxQoEVkVLRIxT/2gAMAwEAAhEDEQA/APqkAAAAAAAAAAAAAAAAAAAAAAAAAAAAAAAAAAAAAAAAAAAAAAAAAAAAAAAAAAAAAAAAAAAAAAAAAAAAAAAAAAAAAAAAAAAAAAAAAAAAAAAAAAAAAAAAAAAAAAAAAAAAAAAAAAAAAAAAAAAAAAAAAAAAAAAAAAAAAAAAAAAAAAAAAAAAAAAAAAAAAAAAAAAAAAAAAAAAAAAAAAAAAAAAAAAAAAAAAAAAAAAAAAAAAAAAAAAAAAAAAAAAAAAAAAAAAAAAAAAAAAAAAAAAAAAAAAAAAAAAAAAAAAAAAAAAAAAAAAAAAAAAAAAAAAAAAAAAAAAAAAAAAAAAAAAAAAAAAAAAAAAAAAAAAAAAAAAAAAAAAAAAAAAAAAAAAAAAAAAAAAAAAAAAAAAAAAAAAAAAAAAAAAAAAAAAAAAAAAAAAAAAAAAAAAAAAAAAAAAAAAAAAAAAAAAAAAAAAAAAAAAAAAAAAAAAAAAAAAAAAAAAAAAAAAAAAAAAAAAAAAAAAAAAAAAAAAAAAAAAAAAAAAAAAAAAAAAAAAAAAAAAAAAAAAAAAAAAAAAAAAAAAAAAAAAAAAAAAAAAAAAAAAAAAAAAAAAAAAAAAAAAAAAAAAAAAAAAAAAAAAAAAAAAAAAAAAAAAAAAAAAAAAAAAAAAAAAAAAAAAAAAAAAAAAAAAAAAAAAAAAAAAAAAAAAAAAAAAAAAAAAAAAAAAAAAAAAAAAAAAAAAAAAAAAAAAAAAAAAAAAAAAAAAAAAAAAAAAAAAAAAAAAAAAAAAAAAAAAAAAAAAAAAAAAAAAAAAAAAAAAAAAAAAAAAAAAAAAAAAAAAAAAAAAAAAAAAAAAAAAAAAAAAAAAAAAAAAAAAAAAAAAAAAAAAAAAAAAAAAAAAAAAAAAAAAAAAAAAAAAAAAAAAAAAAAAAAAAAAAAAAAAAAAAAAAAAAAAAAAAAAAAAAAAAAAAAAAAAAAAAAAAAAAAAAAAAAAAAAAAAAAAAAAAAAAAAAAAAAAAAAAAAAAAAAAAAAAAAAAAAAAAAAAAAAAAAAAAAAAAAAAAAAAAAAAAAAAAAAAAAAAAAAAAAAAAAAAAAAAAAAAAAAAAAAAAAAAAAAAAAAAAAAAAAAAAAAAAAAAAAAAAAAAAAAAAAAAAAAAAAAAAAAAAAAAAAAAAAAAAAAAAAAAAAAAAAAAAAAAAAAAAAAAAAAAAAAAAAAAAAAAAAAAAAAAAAAAAAAAAAAAAAAAAAAAAAAAAAAAAAAAAAAAAAAAAAAAAAAAAAAAAAAAAAAAAAAAAAAAAAAAAAAAAAAAAAAAAAAAAAAAAAAAAAAAAAAAAAAAAAAAAAAAAAAAAAAAAAAAAAAAAAAAAAAAAAAAAAAAAAAAAAAAAAAAAAAAAAAAAAAAAAAAAAAAAAAAAAAAAAAAAAAAAAAAAAAAAAAAAAAAAAAAAAAAAAAAAAAAAAAAAAAAAAAAAAAAAAAAAAAAAAAAAAAAAAAAAAAAAAAAAAAAAAAAAAAAAAAAAAAAAAAAAAAAAAAAAAAAAAAAAAAAAAAAAAAAAAAAAAAAAAAAAAAAAAAAAAAAAAAAAAAAAAAAAAAAAAAAAAAAAAAAAAAAAAAAAAAAAAAAAAAAAAAAAAAAAAAAAAAAAAAAAAAAAAAAAAAAAAAAAAAAAAAAAAAAAAAAAAAAAAAAAAAAAAAAAAAAAAAAAAAAAAAAAAAAAAAAAAAAAAAAAAAAAAAAAAAAAAAAAAAAAAAAAAAABUClQFWSDZAdQByJwhVcCEgAAAAAAAAAAAAAAAAAAAAAAAAAAAAAAAAAAAAAAAAAAAAAAAAAAAAAAAAAAAAAAAAAAAAAAAAAAAAAAAAAAAAAAAAAAAAAAAAAAAAAAAAAAABQAyUABhKgCoFy4EAAAAAAAAAAAAAAAAAAAAAAAAAAAAAAAAAAAAAAAAAAAAAAAAAAAAAAAAAAAAAAAAAAAAAAAAAAAAAAAAAAAAAAAAAAAAAAAAAAAAAAAAAAAAAgAYFCRSgQBKlAheiEgAAAAAAAAAAAAAAAAAAAAAAAAAAAAAAAAAAAAAAAAAAAAAAAAAAAAAAAAAAAAAAAAAAAAAAAAAAAAAAAAAAAAAAAAAAAAAAAAAAAAAAAAAAAAAAUaAMkU4hBz8AlcQAAAAAAAAAAAAAAAAAAAAAAAAAAAAAAAAAAAAAAAAAAAAAAAAAAAAAAAAAAAAAAAAAAAAAAAAAAAAAAAAAAAAAAAAAAAAAAAAAAAAAAAAAAAAEASoEKhKjqSKAUJF5UAAAAAAAAAAAAAAAAAAAAAAAAAAAAAAAAAAAAAAAAAAAAAAAAAAAAAAAAAAAAAAAAAAAAAAAAAAAAAAAAAAAAAAAAAAAAAAAAAAAAAAAAAAAAABSoRFQlRkigAC5cCAAAAAAAAAAAAAAAAAAAAAAAAAAAAAAAAAAAAAAAAAAAAAAAAAAAAAAAAAAAW3Ltu1B3LklCEdXJ6JEyW/CLtJM1Hdw7+2PEbjBzvzTpSCovxlQ3OPo8m37OZz/ccHH+ctrYO7ds3mcrNlu3kwXU7M6Va8YtcTHz9Xfi+WXp/ZcXY8a3y7RrN8AAAAAAAAAAAAAAAAAAAAAAAAAAAAAAAAAAAAAAAAAAAAAAFAjCoSowFCRQC4gAAAAAAAAAAAAAAAAAAAAAAAAAAAAAAAAAAAAAAAAAAAAAAAAAAAAAAAAAI/vnee17Ynbi/wBxkL8kXovizd4OjvyefiOV3ft+LgnznZ53vvee47jcanNwta0tx0ijudfoa6T93j+997yct/SI7kZbdG3Wpuzjw43Jz38rtt3jK27PsZ2PKlyxJSXg1zi/Joxc/BN9brWXp9vfh5JyT8Pedp3PG3PbrGfjOtq/FSXinzi/NPQ8jycd02ut/D6n1+fXl0m+vxW2UZgAAAAAAAAAAAAAAAAAAAAAAAAAAAAAAAAAAAAAAAAAAAAAAAKBASlQC4gAAAAAAAAAAAAAAAAAAAAAAAAAAAAAAAAAAAAAAAAAAAAAAAAAAAAAAA4e/wDd+0bNFxu3Fdyvy48HWX+Z/lNvr9PflvieHN7/ANpxdafyvn9Hne8/cHdNwk7an7GO+Nu1pp5vizvdf6zTTzfNeK7/APsfJyeJ/HVwN0cLd5+ze96zOkoXKUdGqtST5p6G/wAM8eZhw+zyefFy5dy/J6VMuGp73DHK43HzRDLJcLfcb05LiVrLKn/2w7peFmf8Tky/2mXL9GT4QvPRL4T4fE4f2fWzPefL2H+u/Yet/q2+L8PWjgvaAAAAAAAAAAAAAAAAAAAAAAAAAAAAAAAAAAAAAAAAAAAAAA1CBgoEjAoShUhIAAAAAAAAAAAAAAAAAAAAAAAAAAAAAAAAAAAAAAAAAAAAAAAAAAAAcbeO7dn2yEvcvK7eX/aturr5+Bt8HT5OT4nhzu59pw8E/lfKC7x9yNyyYTtYtMa3LTqj9aXxOvw/Va6+dvLynb/2fbaY08IDm596V2XuSbnXV1rXzqdnj0ms8PK8/PvybZ2vlqrIbeplat1b2JKWQvY4yf8ApqmrfgRt48p1lvhq3V0vXiuRC+kYa6kMp104alVpfDPZvSjRwbjJOqa4pow76Z+W1w8t1xZ8vduyO41vmyW7tx/7yxS1lLxklpP/ADLU8p3OD+vfH4fS/re5Ofil/wC0+UgNV0AAAAAAAAAAAAAAAAAAAAAAAAAAAAAAAAAAAAAAAAAAAAAAAAAFGiRUgAAAAAAAAAAAAAAAAAAAAAAAAAAAAAAAAAAAAAAAAAAAAAAAAAANDd992zabDvZl5Q/ptrWcn5IzcPBtyXGsa3Z7fHw6+29w8y7h+4+4Z03axm8XErTpi/XJf4pHoOr9Xrr52814b7L/AGXfe+vH41Ri1vCWX7ty2rtt/VbnqmnpqdP+n+OJ4eavct39tvMa2T6JPp+iWsda6GSRrb3zmOdmuq6/DVvyJZJ5rRwsq5mXnGzYm7C//sNUjUp7NrbrYnm+f0dezCVhqdaTi6qha3LX9MeVuRd9yTm16m6uniJFvbPmxrSkuNNWRhOVE4/+JFXki+NU6148itWkSnsLuV7LvtuV6VMLKpZylyVX6Z/5X/A5nf639mnj5jv/AEnfvDzSbf47eK90TTSadU+DPMvoYAAAAAAAAAAAAAAAAAAAAAAAAAAAAAAAAAAAAAAAAAAAAAAAAAAAAAAAAAAAAAAAAAAAAAAAAAAAAAAAAAAAAAAAAAAAAAAAAAAByt47m2jaov8Ac3k7qWlmLrL/AMDZ4ervyfEaPb+x4eCfyqB759xdyyYNYUfYsPRSWr+bO31/qtZ/l5rx/e/2fbaf/r+EKztzysluV2buSfOTqzqcfBrr8PL832HJy/5XLkzuuupna2MqK7qSj1blmbu2nbf5V1Rb/iRU5zMNWdODXEjK2q+1e6Latxoox4JcCtjNrvSd6roVTflhlcTb1LxC18KtBM+FvF6IjBlfCT6itJfLPGTdUUurNrv5ezfbPuT/AJPZ/wBjfn1ZmClHXjK1wjL5cGeY+w6/pvmfFfRfo+9/dw4t/lqmRz3bAAAAAAAAAAAAAAAAAAAAAAAAAAAAAAAAAAAAAAAAAAAAAAAAAAAAAAAAAAAAAAAAAAAAAAAAAAAAAAAAAAAAAAAAAAAAAAABq5m67dhpvJyIW6atN6/gZNOHbb4jBydnj0/ysef90fcubU8fa/07fB339T+HgdnqfV/nd5X7T/ZJrPXi/wDl51k7jev3ZXLk3OcuMpPU7+nHNZiPCc/Pvy7Xba5ZLGc3bdlv0y/t8SfTzlSb4mMNa9GUZNMupNXPzf3dF+1tq5dk6JN0S8ymzZ4NdbfK7b8LMhCUs26pTbrGC5fMiVk5fX/rG7KSSdOJOWthqydWWTIp104lKyatPL3GzYSfV1SfJcjHdmxpw3Zp2c65euVei5IvrV9+KSO7Bq/jKS+q2kn8CWvb4wwSVE0SpNsKKdGuXiRYtGaFzXVEWLy4rsdtb7f2bd7GdY1Vt0u2+Urcvqj+HA0e115yaWV1frO9eDllnw+gMXKsZWNaybElOzeip25LnGSqjym2t1uK+m6bzbWbT4rKVWAAAAAAAAAAAAAAAAAAAAAAAAAAAAAAAAAAAAAAAAAAAAAAAAAAAAAAAAAAAAAAAAAAAAAAAAAAAAAAAAAAAAAAAAAAAAOfum/bZtttzybyTX5E6sz8XW35PiNTsd3j4pnaoBvv3NvXlO1gL2oarq5na6/1MnnZ5Pvf7PLLNEHzN2ysmTnduucnxqdfTg11+I8n2O/ycvm1zcm43Rp8eJlkw1bctZ3FGrk6LxfAnKZrlktzddNS0qm2rcnODsRbb9xOjT4UIV1aretURV4O86cSErZz01ZC/rWONyEp9Kaq9CYYwpcjKLafFBGqNb3tvt5Msu25OF9r3IurUZJU08EzX5dfy7PU5vbX0/RftLTk7Mvqp1RrzXP8BxbK9rSzykOHedua5p6NGw5W36trItdMm19L1T8mTKWZasot6ciFoKq82Qt+GWzJtvUptE8eXq/2p7kbhLY8mVWq3MOT8OM4f/uXzPO/Z9fF95/5e9/17ve2v9W3zPh6Qch6cAAAAAAAAAAAAAAAAAAAAAAAAAAAAAAAAAAAAAAAAAAAAAAAAAAAAAAAAAAAAAAAAAAAAAAAAAAAAAAAAAAAAAAAAADS3LecDb7blk3En/SuJm4uDbf4avP2+Pin8qgm+/cTKuddvCi7VvgpPiztdf6uT/J5Tv8A+x3NmiB7humVkXHO7cc5PjV1OzxcGus8PI9nv8nJc2ubO5V/zM2Gh8sUrmj1qFpFjfUqNkVeRpXdknlScr2TSzXSzBa082YrPLe05ZprnHl0rNm1j24wgqRgklXXgZJWnvm3NUuXOqXgvAmKXzWGT1/kQlivXlbg5PgtX8iKyaa5ri395ledLWkOHUYP7POHS06lxmtjAnKqk/xM+vmNbmjuTcbtqM6eqKpN+PgycNS7tLJsQvWpWpLSapX+ZG+uYy8HJdbmJh2n9rdqydshnZN+V27ch+lO26dDpxp5PicXl7N03xHs+v0debizfyi+TgXsbLvY02nKzNwlKOqfS+K+J1+Hf21y8j2uH+vkurZu3+vHt22k/brSaWtHrRl8eWv7eMfo1JPUKrUnJ0RFrLPLo7VtWduOTHHwrMr16TSpFaL4vka/Lza6zNrd6vT35dvXWeXsHZ32/jtF+1uGbc9zNhFqFqH0QclRuvN0PPdzvf2T11+HvfrPp5wX22v8kzOa7gAAAAAAAAAAAAAAAAAAAAAAAAAAAAAAAAAAAAAAAAAAAAAAAAAAAAAAAAAAAAAAAAAAAAAAAAAAAAAAAAAAAAAAAWXr1qzbdy7NQhHVyboiddbbiK7bzWZqGdw/cGxjwlawfVJ1Xuv+R1et9ddvOzzv2P3mvHMavPNw3rKzLvuXpuTbq6tne4evrrPDw/b+x5OW5tVyc6GVjxtqCjKKpVczLrx+ty1uTs+2uMOFd6oycXyM8aOMME2F5GNsirKJ6hK+M2npqVrJrkd3XVkHzWK7kW4V638iZTXTz4VxpK9F0eqVUvEIuuFJx5MI1qOZ+EsXIqlS1PWPk/A1OTXDvdXm99cX5bm2S6ouLTrGnS6aNPzL8O7V7nDZ5/Du4spUrSsVpJG05O3gv25QnRqldV8GQlt42/7pjbfLb7N+VrGnJylGGjfUkqN+Ghq79bS7e1jpcP2fJpx+kvhpudXx15szyYae/m5qnW6NE5UjHJ6qpJXS7fwcTM3jExsu77OPeuKE7nJdWmvzNbs73XS2fLofXcGvJza67XEtfQWz7Htu0Yyx8GyrcfzS/NL4s8hy823Jc7V9Q63V04dcaxvmJsgAAAAAAAAAAAAAAAAAAAAAAAAAAAAAAAAAAAAAAAAAAAAAAAAAAAAAAAAAAAAAAAAAAAAAAAAAAAAAAAAAAAAAAByt57k27a7b92aleS0tJ6/M2OHrbcl8NLtd/j4Z5vl5n3B3ln7nNqM+i0vpguCO91+jrpHjO/8Ac78vjX4RW9kyk/W6s6eused5eTa3z5YZXW604mWMG8z4XY97oupPg2TY154uK2NxwrkYq9T0z1TRXXf8M23FflyZpl8scYmQvFrZCVOp66irtDcs67jRThGvVpUxclw2uDhm9cy1fvXbseuVXIxa8jb5OGaTw7mDJwp4m1HM5W/djFpSjwfFeYwwZjBHFw79+1HMg5Y/WnNJ0dOZh5tczw3unyzXeZ+Hoe9WuzcDtq7h2YW5XL9tPFt26O4pcYyb5HH4f7bu9b2715w3P6PP7MHbrrSvE70eG3+f2X3bjk6t1pogj5YG9SFpqopaEWra6sGRn2rXobTueC4r4lJYzacdsZ8C6r/pnp1fS/Bl1LMXDOqxnzVOJXaZidNrrs93+33cj3rY4xvSrnYlLWQ3xkqeif8AmX8TyXe6/wDXv4+K+n/Ud6c/DP8A7T5Sc0nVWXr9mxbd29ONu3H6pydEvxJmtviK7bTWZrW23eNs3JXHg5Eb/tPpudNU03w0dC+/Ftr8zDHw9jTkz63OG4Y2YAAAAAAAAAAAAAAAAAAAAAAAAAAAAAAAAAAAAAAAAAAAAAAAAAAAAAAAAAAAAAAAAAAAAAAAAAAAAAAAAABtJNt0S1bYEE7p79jaU8bb5cNHeXF/A63U+v8Abzs839p91OOXXT5ec5m438i5K5dm5Sfi6ne04prPDxXN2d+S5taLvNMy4YJlgnOTJim0qnXzLZTgrJ604F5WrvrXSx8p37HtXHVxVIlLri5ZNOTMxXLyrUrc2n8i8uWG64rWegq0WPRaEJW1IqzDkY8L0HCSqmU2mWbh39dsuLLGvRue3bi5XE6RUVVmnbiu7JN5/wApAsTLxY2/3VmVm5OKl0yVK+aNri5JtPDjdrr7cdxW5jP3K2/HmzM0axTVGLCVRSomik1kZbyWzFo5ssi62zLG5hX1UdXwCV+PjLJvRsSuytRm6SlCibX9NXwr5GDsZ9fDe6Prd5K5vcGxf8TnWZ24y/Z5FV1urUZrjFt/ijQ4OXN8u92ur/HxGziqVtqulDq63MeZ5Y6UqXIe4uP5qBjm2XX7P7mu9vbvDMo548vRlWk/qtvwrzi9UaPd6v8Abrj8uv8ATfY3rcmf+t+Xom4/dvb7NqSxsZzvNVt9UlTXhWi/mcbi+r2t8167sf7HxaT+PmvP957u3fd7/uZV5uP5LS0hH4I7PB0tOOeI8j3vt+bn2zb4bnZvck9n3y3lXW/2t79LKX+B/mp/hepi73XnJpifMZ/o+9eHmzf8dvFe5QnGcVODUoyScZLVNPg0eWfSZcqhIAAAAAAAAAAAAAAAAAAAAAAAAAAAAAAAAAAAAAAAAAAAAAAAAAAAAAAAAAAAAAAAAAAAAAAAAAAAAAAAARXvvd8jFxreLYbj76bnPy4JHQ6HDNts38OR9v2bx6Yn5eSZc5q61N1fM9NxyY8PnXNb732aM7j1fLxMmGLz8sLlJqjFJm/Kk3poVlZLqopPUsqqpvTUvGHeMtu57clJE/LXs9azZLWQvcSo0hPBttmufKLT1JRljaRC0Y5JhaKEWLRKft9e2W1uM1nwgrkl+nelTRrkc3v8e2M6vR/T8+kzrs3/ALg7ztefKxi4kVOWPJt5CXJ6dK8inQ4dp5p932uPaTXXzUSTUFpozrPLVjk02LUyMcnRELSMNy9GCrKVCNtsM2utvw0pbipypb/ErNss39OPl0sT9SHS3q+Bdq7zyuacXVcSLMp12seq9v7TtHeX24ytmlGMM23VO4/qhkR9Vm7XjTx8qo8z2/bh5s/9X0T6nbTs9Wz/ALR5W9n3nAxLX/J2HZutyhFtr1e2+l/g9Dt9Xmm3w8l9r1Lx75/FZsaqdJaQlo2bji3wx3WknT5DC2mMMSm1zIwt8sqm+BCMV3e3u3933q57eBZlcVaTvNUtw/6pM0uz2dOOZtdf6/6/l5r/ABn/AJe77Jt09t2nEwZ3Xelj21CVx82v5eB5Xl39trf1fS+vxXj45rbnDdMbMAAAAAAAAAAAAAAAAAAAAAAAAAAAAAAAAAAAAAAAAAAAAAAAAAAAAAAAAAAAAAAAAAAAAAAAAAAAAAAAAEd742uWZtLv21W9i1mkucfzf3m50ub03xfiuX9r1/7OLM+Y8d3G1KVZ8+Ej03FtI+e9nTba5rmSbpTwM9rVnxhjlVcBla64mYNpr+ZC88rdGvChKMT8CcVwJU2kwvi9KL5GSVrbz9GxjXYJOEuYrHpZPFYsq10yquD4MmI2mL4+Gs0EZY5UIwuxyQi0VhKUXWLo0RZKvNrPMZFcbevEYkV22yOYUuq1yVaMGFJp/iThMq2zj2rl1OUeqfKvBGp2ZcZjq/Xb6++K0MuzYtX5LqXXXglT+Bh4eVt9vg/MbWPdcXFczfly4m+reupSSmufH4ksDrdn905Pbm6/vLa9yxdXt5NmtFKPFP4xZp9zqzm1x+XX+q+z26vJmfF+Vnc+8z3neLua5P2pa27TVIxrxovNk9TgnHrhX7PvXsb5/DmOaSojby5WGKcq8OIi01WLVkWrx6B2F2HDcc23e3SxdlgXMf8AcWbsP9G4+vo9uU09JL+nicXvd+6+Nfl7D6f6ScmN+Sfxx4exYuJjYliGPjWo2bFtUhbgkkl8jz+292ub8vacfHrpMazEZSq4AAAAAAAAAAAAAAAAAAAAAAAAAAAAAAAAAAAAAAAAAAAAAAAAAAAAAAAAAAAAAAAAAAAAAAAAAAAAAAAAAKSjGUXGSrFqjT5piIsz4ePd47JLa9yu2Un+3u+qy/8AC+Xy4HpOlz++v7x4b7fp/wBW/wC1Qy9GSk1SiR05XnNpj8MLj+JOTXVbTXQhfH6LeDRaGMKppVTWgVuPlcktWi8rBdJ+F6etS7T2nlsSrds6auPJELSZmGlNUf8AIsrGKVaFV4xviQutfiEq9egsMNa/mwi3GHqmlVpa0+Zi25JGxx9fbaZYbGRO7JN/TyRfS5N9Jq6sF126+Bdp3xWOcaNNFdpmMnHvZcxG59m73uWddu3c12cGM6qafqcX/hVKtebPO/Zdmde/8voH0vX17PH7f/Lq2U4R9tOVx2JdCnJpynFLSTa0ryZ0fr+xeTSWvO/d9GdfmsnxXXwr1n2rvu2+puDVvVrpnVUfmdC5cD1mWGTpqiyIo7npWnAjC18rXLR1ZC00YlkQ6+lOr8iU4sjO4dLTWqetRVJcV6b9ou6PayLmxZM/0r79zDbfC5T1w/zUqvP4nn/tet/3n/l7j/W/sPN4dr/w9YOG9gAKqtOYRkCQAAAAAAAAAAAAAAAAAAAAAAAAAAAAAAAAAAAAAAAAAAAAAAAAAAAAAAAAAAAAAAAAAAAAAAAAAAAAAAAA4XeOxLddpl0Rrk49blnxf9Ufmja6nP8A17/tXP8AsupObj/ePFM6x0tulHzR6jTbMfO+fT1v7ufJU1RkYZ8MTo6umpJPMWyRMTtr4V4aEF18Yq5r0pp6ltax7a+FYyrTkZY1N5ltYeX7FytE09GmRZlhm11qzLt9Tc4rRkxNn5jRmhUxifPwRDLPKkPXpHiEWKOPFEpy73bu1W8rCvwx7HXfim7iSq6HI7duu2fw9R9VZycdn5iPz2+WNdcJxcG29GbvW3ljj9/i202rZs1j8jbcrZfdtqleTIV1rBKU3adhylG3J1lFOlfI0+109OXGfw7X1v2vJ1s+vxS3C1aSUIpLlQy8XFNJiNXt9rfm29tlzmktDK1cMcpV4kowtbXiRatHIztyuLOuYSfRK3GE5NeE69P9hpc3PZcO30/r9dtPbYw5Prq+PMz8O/tGr2eP1tju2Jqdrp5rVGZzNvDJj5F7GyLd+zJ27tqSnbuLRxlF1TRj5OObTFZuDl249ptPmPd9i76wtw2Szm3Go3lHpyba4xuR4/J8UeU5untrv6vp/T+y05OKb2+fy4G//di3aUrO2Qi7q0d2XqS+HI2+v9Zb52cnvf7FrpMafKEXe692vbjHPll3HfhJTtNt6Na0p4HU/wD4tPXGHnf/AHHLd5vdnt3b29Y+9bRYz7OnuKlyH9M1pKP4nmefhvHvda+hdPszn45vPy6JhbQAAAAAAAAAAAAAAAAAAAAAAAAAAAAAAAAAAAAAAAAAAAAAAAAAAAAAAAAAAAAAAAAAAAAAAAAAAAAAAAAeV/cHt54e4PKsxpi5VZKi0jP8y/md36/se2vrfmPIfd9G67e+vxUCv2mpM68ry2+nlryS4Era3EwspGuvInKZJlS5StVqIryYqxNpcy7Bb4Vi6S0fnUvKw2ecstef8S0rDyT8tiN7qtqMuCIsVm3hzcu9ZspuUqIrdl9OO34ca7uiuzcLfApOSVva9ayZrobfN0VeLMrW5f2bty3z8Q18ux2Vv8tk3u3fkq4139LJT4dEvzfI0+7wf2aY/Ls/Udu8XL+1TbvXtnGv4kr2Ol1092zcXBqlf4nK6vNZXo/sOprya5eYKvhR80eg1uY8Jya+twyymvZUGlVOteZdSNWbVSrJFjdGF1ruKKbei8SuV9YxW8iE59KenNkyp20wz3Lbj8Hqn5MljlcndsRdccyMf1IpQuSpq4rhX/pbNTscWZl1vruzdb6X4rFjZEFcjGTSc6JV8eRrcG/rcNzvcPtrmfh2seFyNpX9Ojr6Hqqp0rrHjTzOlrtPhwd9PGWzfhSMbnKSbVPJ0JYplihlX7cZQjOShL6optJ/EreOVn059tfEvgd9tJcCZFNtsqq86k2KROPtp3ZPa95jg37lNuzWozT4QuvSE/nwZxvsur7a+0+Y9T/r/wBjePk/rv8Ahs9tPOPfAAAAAAAAAAAAAAAAAAAAAAAAAAAAAAAAAAAAAAAAAAAAAAAAAAAAAAAAAAAAAAAAAAAAAAAAAAAAAAAABo71tdrc9uu4lylZKtuT/LNfSzLw8l02lYexwzk0uteG7pt93GyLlq9Bxu25OM15pnqOHkm0zHznt9a6b2VybsHxM8rUYpaKpMWk8ZWP1LpLKbefA0kqcBKi64ikYutfItax+q9zhBVk6LmTNmK6OFvfduHt1tyiutp0bXKpi5ObDa6n1u3Jt+kc7Lnk5VtX3JytyVVThRmrebLsTpTj+GpCfRJdP1LX8Brt5V21lmEl2+5G5ahcjz/tN/j2zHB7GnrcOlBqUel8TK0axXItP+0rYyabWfDuy713SWzWtrm6wsrpjd/M4+Bpzp6zf2dj/wBrveL0rhu4m23zNueI5O9z5Wu54FlJqwyeoZMLJN08yt+FpGjl4+a4u5cX6fKnBGpty+cOpx9bxmMeDLRSTqq8VqtDNx7Za3Prjw7Npq5bpzRmaFmKw3bacXGWq5oizLLptZ8LNq2DZLNq5l592WRdblGziLR+Kfy8Wcvk4tvfGr03B3OL+n23+f0ZrdtJ9U1qdLWYjzPJtm3HwvnOqoXjHI13UleQqiDC5NsDLauNPVmPfXMX497K98+3Hc//ADexRhflXPwqWsivGUfyT+a/ieT73X/r3/avpn0/e/v4pn/KfKVmk6wAAAAAAAAAAAAAAAAAAAAAAAAAAAAAAAAAAAAAAAAAAAAAAAAAAAAAAAAAAAAAAAAAAAAAAAAAAAAAAAAQH7kdv9UY7rYjxpDJS8fyy/kdX67sYvrXn/uul7T3jy3ItuLemnJndleK31w1J0rQup7T4WaUquKJPmCq+OpKMMN/LhYg23V/0k4Ul/RF953bKu25qDcF/ErvW31+CZzUdw8iOXZvY+Qq3o1jJPWpy97cvS66zXWYSHtDJjkbdd22663sR0j4u2+DKp31zMtjH2DcMvNdjFsym2/qpoZpvJGnOC7XwmNzsu5sW0q9k31+4uSVLHPXwMnW7F22xGl9l09ddPa3y0rSao3odR5baq3pKTrw+AI13QMi1zIWwxXcm3bVZP5EZX147V2HetXW1PRP6X5hO2uF9yDi/MlSI93rm9xSwMeztzirHV0XopUevCUn4HP7PDZ5j0f1XPpt/Hk/Hw5/bNrIwYyxsnId+V2XXrwU6a0+JXrbWeF/tNZv/LWYwl2LcaaOjHmuTVtZdiVvocqUuRU1Rp6PxoJcqSYaydJJ81zGF1zlrq+OpBhbKdRlOFqfVqtVzLFijVCRVS5EUZIOj1K0nykfZPct3Yd8sZTf+2uNWsuPJ2pPV/5eKOf3ut/Zpf1dv6fv3g5Z/wDW/L6GhOE4RnBqUJJOMlqmnqmjylmH0iWWZioSAAAAAAAAAAAAAAAAAAAAAAAAAAAAAAAAAAAAAAAAAAAAAAAAAAAAAAAAAAAAAAAAAAAAAAAAAAAAAAAMWVjWcrHuY96PVauxcZxfgy2u1lzFd9JtLL+Xh/c2yXdt3C7iXONt1hL+qL1T+aPS9bm99cvAfY9S8fJhHLsWmbscqzyw0ZbKuFWquiLRG20a+VgRuWurjNcUXjXu1lcXK2yMk9PiRtqzcfYsRq9srwt6xL99uOFkz9qd6P5W+Ujnc/HZcvR9Dszk1uv5j0tdobP2/nbXvWNTKtt0yrTlrO3Lj+HE1uKXfMbnLza8XmpXd7twoRn/AMRt0bUfy3XHVGXTobX/ACrnc33Wkz6RFs7KyszId/KuO5cfCr0XwOpxcOuk8PM9vucnNtnZrNmVqMc3p5BeRhYXWq1O7Log0pPg2YeTbEbXX45ttiuZn4eVj3aZC6Y8pN6GDTmlb/JwXRsYlY6c0betc/ldNpTtKS1a+olrfDTybEbtuUJcGim8yz8fJdbLGxhbbsuFh9Mbf7rLvRanKapGFfDzOdrw7Xf9noeXu6Tj/eqRhG2qc/E6WrzO/wAq3J1SJGF6E5TGHLzMfGtO5en0xXDxb8EjHvthm4uK73EcK33FHMyLti0nbdmjcXxcZc6mLXlzcOjt0PTWbXzl3tuuKiUvpf1GeObyzy2btujp4cyzFlhfEhaKqTrqEVkg3UrtFtc5e3/abuVbhs72q/OuXt69FXrKw/pf+V+n8Dy/2XX9N/afFfRPoe7/AG8Xpf8ALVPDmu8AAAAAAAAAAAAAAAAAAAAAAAAAAAAAAAAAAAAAAAAAAAAAAAAAAAAAAAAAAAAAAAAAAAAAAAAAAAAAAAAET+4Owfv9seZZgnk4qbfjK3z/AA4m90ef02xfiuT9t0/7ePM/yjxvJtSjN6fE9Jrcx4HfWytSUdf5F0SZUitaFpWPbT9GW0lX+DL5a22rVy7EIyemhaMd8VpSwffi7c4qVuqdJLmuDG2krLp2Lp8OlYsSVuMJTclHSKbKTSRTl7O/J81t2L3trop6eZexr672Xyw5MF9ceZaIw0pyp5EVMjVuZUFPpTqxln147hsQj126riuIyr8VjcpwlWPFFdtcsmnJi5iDd5x7k3PdfYv5Ht7ZGK9tw0fmvicvm4bL4+Hruh2+O8ebM7pBtOUrmNC3KXVesxUJN8ZJKikbnBv4cHvcWNvafFdrEk3JR5S0Nty94uybft3ZRdH0umhBGJSppyK2L5HMIvlZK54tDKZqJOUa8USXw1NxwoZWNO0/q4wfg0U31zGfr8vptl57uiyNt3PH3CEUpWZe3ei+DXg/jqjn7y67Zes6115eO6p7gZFq7ZtX7Muqzdipwfkzoce+Y8v2OO67WX5jsQXu2qrjBfwMjTk8sE0iExYglkj8dSLVsJB2fueZt2/YWRh1nd9xQlaitZwm6ShTzOf3tJtpZXX+n5t+Pmnr/wCX0aeUfSgAAAAAAAAAAAAAAAAAAAAAAAAAAAAAAAAAAAAAAAAAAAAAAAAAAAAAAAAAAAAAAAAAAAAAAAAAAAAAAAANJppqqejQLHjXffb0tr3OXtx/21+s7MuSTesf8p6Lo9j31/d4n7rp/wBe+Z8VD71qj05cTpSvP+uGvqvIktXxnroWjDvF7SlRPUySsG2q19KjRcUTlS6+Ko5rTkFLF3VVeLGVbqwZWdbs2W7klRcit2kTpxbbXERnO3qd3qVt9K5GDfmdfr9HHys2++53EpvXkyePkyt2eD1nhIcaaWhsuTvFbsKOqCuuzm5232stRVxuKi69S4mHl0zG/wBPm9dm/wBO2RxbeNh4ytwhrO/L/UlL4+Br8PBZc1v93u6ba+sisHGCovxN1w9p5WTm2wmRicmFsNbKzLViPqer4Ix774Z+Lhu98NG7lX53It6QfBIxacuW5v1vSeXWwLlY9MnVNGdzuSeWW7bcW1TgSpKi/dG0Rv25SUHKN5dF2K115M1efjy7X1vZutx+iztHb9+wFe23PtP9va6bmLffhP6o/wA6Fetn/wANj7i8dxtP8r8xLsZzsSbqmpRcaNV46M3HnrWK49aliLVrxIq8jr7H25uG7X1HHj0Wl9eRPSC/vZpdjt66Ty6PT+s5ee+Jifq9g7K7a2XYY+6qZO4T0eRJfSvCC5ebPP8Aa7e3Lcfh7r676vTrT9dv1Ta3ehcWjNGx1ZV5CQAAAAAAAAAAAAAAAAAAAAAAAAAAAAAAAAAAAAAAAAAAAAAAAAAAAAAAAAAAAAAAAAAAAAAAAAAAAAAAAA43dexw3fabllKuRbrOw/8AElw+Zsdbm/r2y0+91py8dn5eH5WPO3clCUelxdGnxqj0+m8sfPubhuu1ljm3Y0qpL4GaNbH6rIuhMRFyu8y0YtplRzqTli2nj91JzhCPU2lTxJyenhwtz7lt2ISjZdZrkjHvySNjrdLbeuLtG5392ycjHvypO36oRXOL8PgaW/Nl6Dj6OumvhTNsStTafDkV13yi6o5ld03MXKUMWDuXLU/X4UXFFP7vWtzXo++l9vy9F23OtZWLayLTrbuxUo/M6vFv7R4/s8F03ut/DpQ/Ug9UqGWtKta4knrwKsulY+pLgF6dboEYWSmlxZGVpF1HSvIlDT3DF9+16fri6x/uMPLrmNrrcvrt+zm2bn5Lmji+DNGX1rt8mk31/d08WdKU4HS02zHA5dcOmqXLVeMo8fgWa7XapKvNOqZG0X02s8xcp8+MubKzXC2212ub8qu4yVYscqlsisNWV2W1eqdsZtjK2ixKwlB2krd23HSk4rX8eJ5bv6XXe5/L6P8AT8+m/DMJHhyudaoaLrSpLgdelULF46ZQAAAAAAAAAAAAAAAAAAAAAAAAAAAAAAAAAAAAAAAAAAAAAAAAAAAAAAAAAAAAAAAAAAAAAAAAAAAAAAAAAB5f9x+3P2uStxsR/QyZP3F/Tcev/wAx2eh2Mz1rzH3XSxfePPcmyuiq15/A7Guzym+uGkotctDIxawa00+ZaUsWTnLhFVfIvGvvu424xyp1jJungicMnFtMohvdi9jXreUk3a6ui95JvR/iaPZ1rvdDkm38fz+FYRy8DOtZ1iDnG0uq4o69Vp/V+BpOpr8YSndMS5mYtrJxrcpwupODim6pk63FYN+K4z+EUzeyt3luEbkYe1ZyV+rr6oteXmXnX96r/wCw14tP5fKZ7FssNuwbePFvohqq8dTq8XH6zDynd7d5d/Z021FaeBlaMa85ahljE2VrJGlmblC1Jwj6p+Bh35MNvi613aMMu9dvet/Ia7ZZtuKax3cSSnDpb1MznbzFJwa5DBEf3TEyIZsZWouUbr0S5SNHn4vLt9LsSzFdTbbVyPQ5RUul1cXqqeDM3BrZPLS7m+t3vq7P7lwuX7lqMbav9UZW4r0qMnWirwM+GhdmlKXqJIo5NRqmVq8mPK1yuON6VuLuSs23euW4/UrcWk5U8NTFvyzX5bHB1t+TOI0MXOlen1UpHkjJLk5OL1dZ0cVKPP8AgyzX9nf7O3uO27rbWRLpw8j0XvJv6Z/I5/e6/vp+8dr6bv3h5ZL/AI17TY/4zFtK9fvwhClat8Vx05nm/Svf/wBmsnta1cz7g7BhYzu2q3YqqjJ+nqa/pT9X8DPx9LfZodj7fh4tc5aHbv3QtblvFvByrEbFrIfTj3U39fKMq/1GXsfXXTT2nlp9L7/Tm5fSzGfhPTmPRAAAAAAAAAAAAAAAAAAAAAAAAAAAAAAAAAAAAAAAAAAAAAAAAAAAAAAAAAAAAAAAAAAAAAAAAAAAAAAAABqbrttjctvvYd5ei7GifOL5NfAvx73XbMYubim+t1rwvd9tu4GXexb6pO1Jxa+H956bg5ZtJXgO91rxbWOHfhLVrgbcrm22xjjwJTr8LlFSVKU8GX1a2+visWTjqcOvi1pIyRg+I5Gdt9m/ZnauQ6rdxOM15MrvrmNjg5rrtLPmOj2ruNjbdolteViwv3rTl7GQ1VyhLTpkczbp32zHov8A22nr5nlu7Zm7lj7dHa4SSwoSbsxprFN16a+RtTqa/Ncvl+22+IzXMO17XX19VznU2NJI5fLyXaea0pOhlasa85a/2BlkYZcQyRZIrVo4+6Y7jP3orT8xqc2rp9Tmx4YMa7CUlV0Zh498Vtc/HdpmOvh3kpKjN/W5cfk1dCdZx618yzXjWuW4yomtCtjJrtYywkoJJLh4E4Rkc66Awxt105hK19VKchUyuZK1j49q+rN2/Her13rs3G07UrCj9Mq6169H5HE+wm8/4eu+l5dLr5/yWYPV6utKNyEum5Fcnx/ibvT5vfRy/tevePks/FdvDuKUehulTecTaeWSS6J6kbTKZ4rs43deTaw1Z1uXY+mNybbpHkqeRpXqS3Lr6/a7TTH5c7I3C9fuu5duOcnzbNrTjkjlc3Ltvc1WzlyU1KLpKOsZLk1zI30zDh3uu0s/D6B7E7lhv2w2b8pVy7CVrKjz64r6v8y1PJ9vg/r3s/D6d9b3Jz8U2/P5SI1XQAAAAAAAAAAAAAAAAAAAAAAAAAAAAAAAAAAAAAAAAAAAAAAAAAAAAAAAAAAAAAAAAAAAAAAAAAAAAAAAACCfczt93seO62I1uW6QyF4x5S+XA6X1/Pi+tcP7nq++vtPl5Tft0TR39a8VtrhotUqZGOT5VjLnyJ1U2+F9VTThLijLK099f0YJYnW3yRa1TVfDGs26Pp1IT5wyxmk9NCcMObKRcnOleJOEbW35Y8u30yetfgExpT5hljCyGRYxUxiu2o3IOMuDVDHvMsmu2KjV3HyoZnswi5Ovpp4GhyaYr0HDzS65d3b8PJtul1Up8zb4Phyu7Z7eHY6+m1KKpSVKmZz5PDWbJFrlQrVpGnmbljYtFcmuuWkYV1Zju+Gzxdfbf4jHh5s711S4Lki8qeXimsdS5CLSkuEv7SzWtc/cMe5O37tpVv2X121wq1xj/mWhg5uP21w3el2P695fw4eJvuLk75GFi24W78HC4n/VFNxr8Hoc/rcV47h6D7Tb+3TN8YSmOO7V/ohcjdikmrkK9Lqk6a+FaHV02zHleWTOGe840VONNSzFI126cAtBTrxfIFi+E6PQrtSRNPtn3NLZ+4LULs6YWbSzkV4Rb+ifyl/A5X2PB76Z/Meh+g7l4uT1v+Oz30829+AAAAAAAAAAAAAAAAAAAAAAAAAAAAAAAAAAAAAAAAAAAAAAAAAAAAAAAAAAAAAAAAAAAAAAAAAAAAAAAAGPIsWr9idm7FSt3IuMovmmqE63FyrvrNpivD+6thntO53saS9CfVYl/VB8D0fU5/fWV4f7Hpf173KNZFur8Eb8ri7T8NdaP+0srNV6n06FpWPfXC/3VyLZYsRjncJiu8WdWqf4l5WLbRf181x8SYw7RVLrg68UENW5F18hWSVhnEMkrE9CKvFjK1aKK3Hr62tfEx3TLJOXafDOp6F5MMVufla5EosWOVSE4W3F6Qtqj257RB4Er1mUsjPj1SyLcqRekvT0Ov8ATrXx0OX2Ntpth6jpXW6Tb8fFX7HmWsjHVy23WLcLqao1OPFNG1198zy5fe4bptj8JJi3FKPTLgzbcjaYW3ItNjBK52PtOHayrt6NuMXel1TolxfHUxekzlu7drbbWa2/Dp9XSqLReBkjUq1zrzCMMUm6hf1U6mRlOGa3GUtUqU4mO7MuvHnyk/Z3buRum4W/S440JKVy8+CSdaLxZz+32Jrrh2/q+ltyb5x4j6Fxb3XDzPOWPdxnKrAAAAAAAAAAAAAAAAAAAAAAAAAAAAAAAAAAAAAAAAAAAAAAAAAAAAAAAAAAAAAAAAAAAAAAAAAAAAAAAABFu/8At57ntbyLMa5WKnKKXGUPzR/mbnT5vTbH4rmfZdT+3TP5eL5NvpbUtPI9Jx7ZeH5eL1tz8tCbo+Ghlat28rG3xTJW21OrjXiGKxbWutdGWlU9RvWhaK7aroNLjwLZa++vhetH5EsGFL0K0a4cyV/w1LioQtqwsMkWFcLDCYtboRUyNXJ3GxZfRKa6+UK6lLszcfBtt5wrhZfuzq+BbWo5eP1btyC5cGWYJXN3Gwul3o/VBNteKNbn4/aOl0ex6bYvxUdwt2xZ9wdOLB27eZHpvx5O5GOlyi05amtxWzZ1ezw54rn/AK/H/wCEuw1JxrWlDox5vkjbyHCkWlR0VfiSxxqyZDJIdbprwIp6rOsZWwOlFqV9l5qpVU6pSUYLjJ+ZTbbDJrw3a+E27Y7TyMizC/nQdjGfqhbkqXbi81+VHJ7Pdk8avU/XfU5mdvhPduhaxFG1jwVu3H6YxVEjj8m92+XpuLi10mImG035OKMbK7JVIAAAAAAAAAAAAAAAAAAAAAAAAAAAAAAAAAAAAAAAAAAAAAAAAAAAAAAAAAAAAAAAAAAAAAAAAAAAAAAAAGqpp8GEWPGfuB27/wAZukrlqP8Atcms7Xgn+aJ3+j2PaYvy8j9t0/Xb2n5QmcHzR1ZXm7KwSVEEWLeHPUnJNVGyclnhbz8i0rFtp5Xqjo18i0rFtrGWNHHjqWjBtpLFYttdJZhzWteg4yafyIZJMNaS1FZIsfAqso0KNfLjOVmfty6Z00ZTZm4rM+UU3Lb549mO4dUp3EqtvxT9SOdtv/J6TimdZJ/js7W23rdyxav25dVu7FSg15m9xbZjjdnjuu11v4d2zNTtpPlwM7m7TDDdj5FbF9K5eHsODj5Fy7bgo+5LqdOOvL4GKcUlbvJ3d9tcV2YuMI0S0MjSWXLnpJyiRgcvmVyySKdbehFq8WuaXx5FbWSarITlcvwx7PTLIuOkIykoRT/xSeiMXJyzWZrb6/U25Nsax6X2t2PhbfG3n584Z2fpKElSVi03/wCmtVJ/4mcHs9273E8R7DofV68Uzt5qXW4ucqLVs0LXXjtbZszm1KQThJ8XDt2Yqi1K2rNhV5kAAAAAAAAAAAAAAAAAAAAAAAAAAAAAAAAAAAAAAAAAAAAAAAAAAAAAAAAAAAAAAAAAAAAAAAAAAAAAAAAAAON3ZsdreNmvY8qK7BO5Zm9OmUVXj4Mz9flum0rV7fXnJpY8Dvw6JNS5aOnieo498x4Dl4/Taz9GpcikqpfEyxq6Ywx0TWoWnljf1VRMUpz8y0VwopOuq4F4xWMkJ/gSw2eGStKMs17rYTipwqRkky0biSepOWXVqXsu3B9NfVwKZZ9eO1sYyVy22+JKt8LblunFEWK67NazcwsSd95f/wBtdhRpqqT/APE5vc4trZtr8vQfV9rXF03+EZ2TPxI7nlbfjt/tZSd3GT/K/wA0fgZODazwv3+LOk3/AClmL1Urxob0rz3JGe+knpwaJyrI1nKj8CIvITuPRELYYpNkZTIslKn9xXLJNFk76jF9UumnMraz66Zc3N3P26W7bj1zVaV1p4vwNPn7U0dfp/W7cnmzEcad+/K7onK49HcSbS/icXn7F3vl6zr9TTi1xI6W1d175tMorAzrqlF0lBSSj51i9P4GthtYwnezferIsShb3XFjflzuWX0Tp4tax/sIwnL0PYfudsW4uMMXP9m8+FjI/TfwTb6X+JWpSu33FnwSfXVPg3wYR8Ott/cE7rSu01GE5dmGXjzWlyNfCqIsSykAAAAAAAAAAAAAAAAAAAAAAAAAAAAAAAAAAAAAAAAAAAAAAAAAAAAAAAAAAAAAAAAAAAAAAAAAAAAAABy9/wC5dm2HEeTuWRG1H8lta3Jv/DHmTJlFuHg/f33n3Pe1dwNsrh4D9Mkn6pr/AByX9iMuuuGLa2o527u08zGuYt+XXk2NY3P6rb/nFnb6fLmYeW+46d1vvPy6Un6aPjzOi87fDBJa8eBZEY26IRC1PmWUlVVXqWlVktq5JUJypdfDKmnSvAnLHvqtu34WYOUmlFcWx7Rj4+O24kRvdN7VysML1qTp1x118jX3546fB9fZf5OFh59y1uEbOTOrvP0t+Jh05c10ebqz+vMnwmGJLpS8De1uXA5I2rsFKNUSxObn4kMixO1LhNUqit1yz8PLdbLHL2btrFw31qruV9dx8WYpx4rf7Pe25PH4d9OMYqKVPMzOZax3J15hMjC5U8yLWSarZzKMnywyuUTbZGWSatXIzIW4yl+WOrlyRj33kbPFwXa4izZ54m8Yu5xtO6szCUJ+3KPR1Wp/9yCetKqhxu39hZcavU/X/TyTO/yjlxXuq5C7SNq3JxlOqTlTnpyZz7vdnb10kiyFxXI9NiftwXFyqRYyZXKusIWvT+a9BJP5VIiFbU0p9FqblRPqbar5aMCqmrUlCCrekquWskRYmJDtPendG1qMcbcb0/bSraXqtpf4ozbikVKkdr77Z8pQxHjW7uV9M3ZTj1fJtr8C+MRGty7uL97dpg4Wc6MrF6nrpr0vzZjsZYmGy/cvbshKWDuadf8Atyl/JlMrYS/b++b0qe/bV2P9UNGMo9Xfw+5NryaJXfbm/wAs9P4jKPWunGcZKsWpLxTqiVVQAAAAAAAAAAAAAAAAAAAAAAAAAAAAAAAAAAAAAAAAAAAAAAAAAAAAAAAAAAAAAAAAAAAAAAAFJSjGLlJqMYqspPRJLmwPMu+vvTtu0wnibJ05ubrF5HG1B8PT/W/4fEya6fqxbcn6PBt97m3TeMyeVuWTcu3rnHqfLw8l5GTCs2cid1uPVOnRWiSer/AlabMmDnXMTLt5Vl9HtuvQ19S4OL+KMvDyXXbLBz8M5NbqnFvJt5Fm3kWv9O7FSivieg4t8x4PtcF49rrfwtnxqjK1ZnLE26f2kltppVfxJitUevAlTf8AZVyUVV6IIzhy907jx8O1JxXXKK4Ii7YZeLr3ksiJx3rM7hjO11O0rcvVCLf0Pmczm7Ftw9R0+hx8M9r5rLlWrm2X43sCbvWOqP8AtpJO4qfmi+Zi1m0X5dtOW/pY6ncuBsuZtNrc8a9GzmxirjhWj6vBxKcV2m1hy+vrLPP4rY2Hcv3eDByl+rD03EvHxOz198x5j7HrzTfx8V27Mm1R8GbTlX5Yr0UpNELRiT6Xx0fEoySqSmqkwwxt11fAi1k11Y5OnDgUZJo17t6MdWVtZddXJy94wrd6Nm9k27Ep/T7kuk1ubsTSOp1Pr9uW5/CM9zveL0XdnjLKwoJ+1Pb78ruPGn5rqjFTr8aHG5uzts9T1unpxTx8tLsjuR7R3Lh5uRf9zEvNY2bVuX6F19Mq9WnobUl8Dn80zHS46n/fuwR2nLlG+pQVmcldnB/k1alTVaPR08UV49l9o4WVg7jZsq5n41yzitKdpzUodSfB8OZmjG14SjcipRfsWlyknr+JFWtVUerqtxtuFmlXdioxb/t0LSIzFHkY9nGUcecnLqfXKcqprl0pcGRVpGlnZl+GLP2Yte8uj46+LKoZeysmG27pHcpqF14y6mpaxq9EmVux6rt7tXdxyrm5WnCMcmTl0RXpWr0LfK3w5sIZ2OupTnbnF1ThrReOhW6rTZJtk+5PcW2dEbWRO7bT9XuVbK4WuyebD98Me5RblYcLidHchwfmVupHpOwfcXAyYqeHnqM3/wBuUqEeYmxM8DvmfSv3NtTXOcWT7K3WO/idw7XkpdN1Qk/yy0Jyp6ujGUZKsWpLxWpKFQAAAAAAAAAAAAAAAAAAAAAAAAAAAAAAAAAAAAAAAAAAAAAAAAAAAAAAAAAAAAAAAAAABxO5+8Ni7bxXe3G+o3Gq2saOt2fwj/N6EyZRbh4D3x93N97jc8fGl+026rX7a3Liv/qS0c3/AAM+usjFm7PPp3utycU+v803VomnrGGTkppQXut/VOiovmE4wx+nqfQ+q4nTjovwIMSrJJK4pSj13Hwaq0iT1d/tbdOi7Lb70+qNx9Vnl0y5x+Z0+nzfhwPuOp7T3n4SR+nT8GdaV5PaYYriWtOZaKbKJVdCZVcfhWmtP4kosw0Nwxsm4tH6eSRaK63FR7M2+VyEoSXEpya+G7xc2LlHceF3ZNzV6LTtzTjOD8H5HG5dbNnpeHknJx4/VobhueZHI67U+nqfojxbpw0Kbc9z4W4Oprj+Tq2cHct2u2oyUrUOle7NpqietDf4tLtHN5ebTgym20bPZwrMbdpUilq3xbOhx8eI852u1eS5rpNRitNDK0vlguSIZNYwSZDLIsbKWsmGJ3Fz0K2r6atS/mxtp1a04tlLs2ePjtrBBYO5bbK/gbjbv5ihcnPFUZJ2lamoOsuEvqUtORyOz3/W4j0nT+olxdkF3HO2m1fu2sfbZZW73W7U7uXSXtt6Ppp0xb8JPkc7fl9vNd/j4vWYnw09ux7+05lq7d3FYdmvXdhj3VKUkuEOmFVqYmS+Wrud21vO+XnhYftfup6W4vSiSUpyXCNeL1oRv5W1nq9o2resTeuypx3fOt3dy7btww83Lx31T9uEUsLIjT6m+n235rU1ppZthlu0xldsHa287htGRm4PdVrKnd9Usa5CV2vVyvxnOEouunoTRsXWz5Y5Zt5jfxu1+3Ltm7b702rLwXboo7xss/3GKuXVdx2vdS8aW38SLk9co9vPZ+0YmfGO073Z3bbZqtq5atTszX/8sJmXW/qx767fhL+zu2+zrdnqynZvZElSULii0vgtTHy7efDJxa2Ty6O8/a3svd7fox42ualZbjr8E6fwMXszZQXcfsbnY0bz2rM9y1Nr9K8uS4eqI8JRy92d3PsacfYuO3Bt9cE5RafilUvlHq0o5Vmkp3bFcpPim1H/ADRJkVsY3G1dtu64Jy4e3FNtvxJsVYv2Vq3b9xp2nJ8JEYW12Vu3s2xbVyxJpxpTpev8Cti8rv8Ab33A7kxJL3Lzuwjo4yqVsTmPQ9m+6tm9KMcu30NfmVSuCPQNj77tXHGWNmUj/S3UUwmOD3o5UV6MZx/ri/7ifZX1juYu+7dkJdNzpfhLQsrdW/GUZKsWmvFBCoAAAAAAAAAAAAAAAAAAAAAAAAAAAAAAAAAAAAAAAAAAAAAAAAAAAAAAAAAAAAAW3r1qzaldvTjbtQXVO5NqMYpc23ogPJu+fvjiYinhdu0vXq9Ms+SrBPn7UX9X/U9DJrp+qntn4eI7pu+fn5d3Ky78si/dbc3cblOTfi2XRNXNuT1SuJ20uEY0VSyaxSc3FubStcoatsCzV0/7VtcqcSEWLZOStNtdFlP6lRNjJJhYpdWtp9EOblWpKLS1KSdbS6JQkpK8lrVa1VS+m2Llj20lmKnG3Z8czChfi03XpuU5SXE7vX5faPFfYdO8W1n4bHUnXxfChtOXnys14lk1fBqtWIxVsRjCVuUXo+KLxhcjLxoqT0oXwrru52bteDmQpdsqU06qfNNGDfglbvD3N+P4q7B7bxoz9xWIqa0jNrVfApp1pKty/ZclmMu/i7Pjwt9bl6/BI2JrhzeTmu3yXYKDojIwtW5KoXkYJyK1lkYm9StrLrGG7dUayb1MeWfXVxdz3vExIOeRejbh58fkjDyc01nlv9Xqb8txIjm7/vN0se9tmX+4xIrquWsZL3Xzo+txo/xOPz9q7eI9R0+hpxeb8uJsG/Zm2blHIpW9bn7k7EtJSil03Lco6P1w0+JzOTy7GuJG/wDcDbbFrLs5+JL/AGuXBShLlO20nbk/Oj6X5lNau4W1bPcz43L9y7DD2yw6ZG4XNIp/0QX55+SJ+VfaRlyb+JKUsXY7U7eLFKM8m7J+5ea4zuf0xfKKMnxFPn5SXtjYVkZkbeBfn/x8Yxs5V9RcfemmrusP6epVjV8i2mM5U5LU7/47H2qS3C1ddpWowUrrnFSc5PVdC/KbFmWvfHmfLLlfcvIzsa5t8EoQUX7mU2lJ08DU3/jW9pmzNYexd52GGRmz3VudqEaW+fW2Y7cr2V593Bv8lu+R+ynOzZU37cauqVeBOy0rb2X7i9x4F2MbWU7i5KTZSxbL0rYfvRBqNvPjWT0b/wD1I9U/Kb4Hefbu5wVJw6nylQjBhTcOy+2N3j7ntW3OWqlGil+KoyfZCK7v9oIKDlgXGpVbjGVWq/FalvdFiFbn2P3Lt6lPJxllRj9Ptpyf4OjLyow4VyFJOWSp4kYKituKiq/PmW9TB+5lB9UowcJOkI1rKT+CK2K4SvtbtPct7tqduz7FuSbhcnopf9K5/ExWrzwmWD2Rn41q2lYlP2U5O7arKTq+LprREVk9nZxXk40kle9f5k3Rr8SLDw3LXct63NxnKtHSvN/NE5RY7m3d45dlpq5NJa9LGUerubZ9zseeXHGy7bipOinTmWtR6J3auwu243IOsZKqYlUswuJQAAAAAAAAAAAAAAAAAAAAAAAAAAAAAAAAAAAAAAAAAAAAAAAAAAAAAAAAARzu3v3YO2bL/eXfdzXGtrBtNO7Lwb5Qj5stNcotw8B70+5vcHc125avTeNt8H6cW1VWlTg5N/6j83p4Iya64U+flC3clJ/pS6vGUmSmsE5w9XQq3OdxptJkxF2wsrJOPSvcm+MqKiJLfCz0Jvpblerzei/AI1hKsbiV1K9Pko8EQsxXU4Sk23K4uFhKlPDiTEZLqj6HkaPircXT+whOMrH1NNykvbrpaVW2iVK6OzbksPJTufo4t30yg1z5SNzq83rXN+x6n9mmfzEstz9VOT4Hc1vh4neYq9pp+RbKklOtRfiTEbYjLbmmvPxMkrWsUvWFc1bpEvKxWX5IY9iCTjq+YyjGYzRuJaJBW3HhWT6eHAnLFtMMV1OUa80SjW5rRuaVIZ41ZvxKWs+sal/LjCuvAx7VsaaZvhzt7edi7esx26xmlO1FunXGWtU9Tnc/d118T5eh6X1N387IVk9xYe4UULWLYv0pJZmNbvVl5XEqxOTy812vy9Lw8H9cxI5//M7rtd73I4mFCUvovWrEOl/Bx6f4mC7WM3pli3Puvctxx7VnKt2OqzNStXoW6XU/BSrz5ornK80kSjZfY3nY7mz5UU7mF+rjwnWL9ibrO3pr6J/wZivisnzEN3nPysjJlYvW441nElK3j4VtUt2ktNFzb5y4mSXKk1ka9i9Ow+qLlbmtaNafNMWJxE+7M7qyoxaubdbvWrvp99QUWunR9DitG66uhbj0trFy41iQ3tn3zuO90xat2EkoxUdNOHU1xNnk29Y1uHklvw5W9dg92bbYcsfGjk10bttdVPKMqGndsujrIiTublgWrlvIhdsXZyVVOLi9Piii+CWLDKsRuT+qXGRbWZU+Ghc2zJt3aWZV8yLqnLLjXrtq7GE9X4+IwapHg5N2LUrU2qckxE5Sbbe+922225Tm5xj+WWqK2LZej2O+8rDxNunehLJlmwUum0nJR4PXj4lIthIl3LteQoWslRhOSr0tqpMyrdVmd2121u9pe5atXX+XqSdC03wizCO2/s/slvcoZvQ7kYvqePKTdttcKrjTyQu2RPMLa4K7yjb6EmklCMXHw/w00oUkRY7Panv5e7WIWrH+1xoyuZGRNdPU5VUUorgm+CLYRYk269obDuabyMaPXymlSS+a1L5RLUPyvtQ8XJ/dbZkdVOFm+utfJiyVab/qx2tjzLWT0ZmD0af6kPVF/wAzHdbF5tGOfbnv7go41h6vVtUSIwn93peHZ9nGt2nxhFIvIw7XNZiUAAAAAAAAAAAAAAAAAAAAAAAAAAAAAAAAAAAAAAAAAAAAAAAAAAAAAAAYczNxMLFuZWXehYxrS6rl241GMV5tgeO98ffGcozwu2V0RdYy3C4qTkuH6NuX0r/FL8DJropdv0eOZu4X8m/K7nTndvXH1Tbk5SlJ85PVsyYMNSXVKMnOSa/LaimwSrLlOhTvVtQXCKoqkjTyM5Sh0xTdvm5elP8AmR8K7K2bOfkRrZsylCj1tQk4pRVW604IjJ61keLm27XqrC3KMnGbi6Sa5KirV8hmJnhhhenBrx8QtLhcqOEuiGs3Vy1evjQnCPyxx6otdCd2T4uiokMmVs3aU2k+q/z1ql+BKaxzUlR3qXZPhGNXQZwx7JPsmf7tlWbjpdtLg+PTy/Dgdvp83tri/LyX2/T9Nvaf412I3FKNUb7hYwpKvwROVbFfdcaImI2nhkV/q4lpWG6ZHdVacyfZWyEblX4Fox3XNZPcquJMU31KpOjZNrH6tXJcYpupW1m0cfLyWlLpTaSbaSrwMG/JNfl0OvwXe4jzzf8AvGV7rx8CTik3Gd5qkvNRT4HJ7Hc/Eeu6H1M1xdvlkt90Z+4drY+33ZuUtqmoQ87Nx+lvx6Zen5nHu1td31x8I1uthW8j3I/RdVX5S5lLV5WDCxcvNybeHjJ3Ltx+mFaRWn1Sb0ilzZM8lsbeZj2Npuxs28i3l5qrK5dteq3bb4Ri3xZf4U811u0Lu7/8rK9jqWRl27byIJ0l1e3rcty6uKnbqtDHvrVtd4lWThduQ3CO6TsrNxb8IzVqM+ifqWilVN6cC/FKx72Zdft/Y9i7jzeh4ksWFurnK5NTjKPKL6kX5NsGktembH2bsn7WdnHsW0o6RUUqGveSz4Z7pmeWxDFsbWmlb9trkl/IXktW14pPhnju2JfXRcUZeNdCuVrq187t/ZNytShdtQlGejU4prUnKqLbh9otqnCmC3j04K26x/8AKyZvhbCI7n9s9+w6+wo34c2vTKnwL+0VsQrfNnv7d7Ub9mVu45NdUotfxIIzbfVWW/wYRY25Jap6+KCuW3j73nY1uGNj5F23BaRhBuiT4/Ar6xebN7bbWfuGYvYyJ3Lr0iqV1+KGcLSvQtiwd6w7f+4vSc+a5IpayTCWbdumX06yrTiiMosjrYu5K66cW+KGVXSw9yu4s3O1KVqT400qTkw7W1d/493KjiZWk3p1cGWyj0qYW5wuQU4OsZKqZLGOMXxSfxApG1bi6xik/EC4AAAAAAAAAAAAAAAAAAAAAAAAAAAAAAAAAAAAAAAAAAAAAAAAAAAAAAAEV74+4mzdp4y/cKWTnXFWziQ0rXg5zo4wX8fBEwfP3d/fu/8AcmUrudf6bMW3ZxY1jZtryj+aX+KWpmkkU+UZc1Lq6Y9Lf1XqP+ZOERZWal+g3OmruSpp8CU1ilO2qyScrnGU26kGHPu3bt2bcnWMU5NvhGEdZSfwRWo1laW77pax8m5i7ZK3djbkl/yVG5S0TfQpelRr/hKe7JNY0MjfN+v1u3s7IkpdUOrrklqvVGia0oRathzo5eVaT9q/cgm1pGUkm/l4ExSu/te4zzbE/dp+4x+mtyKp1xl4rhWq48ydb5LHSvKkaN9MZL1600+RlVjG+mdqPtdNmC9NaOrSBVK3ItxtQ0a9V2iTGVPLFGkU448uq436pzlw8eARYy4mYsTMV1R67355Rq/S+Rm4OX12ywdngnJpdal2PkKkZKtJpSivieg495tHhexx3Tays7uuSozK17czypK46KgR7eFqnJviSrdcskZOvwGT+uRWMn1J8icqzRlV3Wr0ErHtx5Vd221VvUm7qThtcXfN1sY0ely/Umm7cHo5NclU1+TszV0+n9XvyXOPDyzfO4t+edS47uD0Otu0qxXxrwkcPsdq7V7PpdHTinj5Y13FYzaWd5woZrm1GOTaj0ZSroumUfq+Bp3bLpTXHwz5e24uxZVm5DNd2OQpW72Ldj03Y25xp1PpfKvOmpGMK+9rVnjO7kSw8mXTButu9FVol+ZeNUVwvrfDFm7rj28d7ftNuWPh8L16Wl+++bnJapf4RlHrm5rlQj4L4JFcrpx2Tv2Dg21KkbedD/Sva9UHGSdY8teGplnljswZ243MnKuXG05Sk3K5wq2610L3ZTXimc1tbfvU8OEum41dk61TMOzZ1SXE+5G47Rh487dzruXNZJtrj8DFYtGLL+6+8ZF1TvRU7fg9dPLmW9fBltYn3H23IlGE62pV15qvzK2LZSvb+4rV6CdjIjJ/0p6/gyIrl1cbuCcHRy4eDFi0rsY2+Yt6kblJJ8mqMqGbtOzbna6btuPwkk0TNqSI7uH2m2m/BzxYqy3qnZ0VfOPAtN0WIluP2y3bG6vakrqjwTXTJ/yLSq2NDC+3W/boowjOOJ+o43rF1NPpSr1pqqp5EXfBJh7D2f2Ltux4VuxYtKeVd0vZM0m1Fatf4eor8ptd7ccPaY46c2pLgoW6dUnwSj5eIkRlGJXLEc14+Iuq5PjbUlJRXOskLqtKlGzWsGxbSkq3HrOb/kVuqcux7GJdj6PDgQmOHlbJ7mdD9vGt1tOq+PEmVL07arU7WDahP6ktS8YtvltkqgAAAAAAAAAAAAAAAAAAAAAAAAAAAAAAAAAAAAAAAAAAAAAAAAAAAAAAAMGdelYw712CrOEJOC4+qmn8QPE952XebV/IvWM2Vz9y5fucXMTv259esn6qyi/mUWQvuDZNmsX3KTngQvOsJwi7llN/l1fpXzLa7WIsiM5W15lm1K64OeNXp92Pqty40fzoZ5vFMNOT0SfohHjGK4/EtkrFOUqN8LfiyENLN2+/k4VyOM/1JrTkmq1ca8qjaLS5Rq7C5G9JXoO1NJKVvp6aUVEqGKxaLHGHV0qXHh8aha1tYezZmXdhH25xsS09/pfT5NVo2TqrYkG34FrbMNWrkuu/KXVNRS9UqeXJF/VSxW5rJzm31PhAsqsvSlKEZ5C6YV0gnr+CGVlKN1ako2uUXVsKrFJSh9Ls2ovWVEmTEZPcuN0x/wDTp6rkmvwQzha+HZ2vc8nLuuw3O9O3CvXrKkYKlPgjqdLm/Fed+36Xtr76uxauqduvNaNHVmzy+2p7ifAsrhk9yKSIT8Lf3MYvVoLMVzOUVpw8SMp9f0c/L3y1C7Gz1p3Z6qKerMO/Y11b3D9ZyctcC99xrGBvOIrcFkWrF+DzJP6OhSpOCX5nTiczsd22Yjv9T6fTW5vltfdnb8e1chLEmruHdpk4d5Ov6V1VSXwOb/btfl19eKazw87sbzm24qxeUcrGWrsXl1L5N8CPZb+tct5hYuynt2JbxL1xdKuQrO4urioN8K+RPtgxcfKjxlh3FkbnBzyJLqtY03+ErnOnhEj/AJJc+IyYzycurtKlyEXOME+MY+Hw8Cntlaa4dDau3LG7XY5Er8MW1df6krsZ9Kn4Ugm9S2uuVNtrHQzuybVtwWPdx7knWMrePK4pLp5uFxczJeNWcllcmOLaxuGldE+ZSzDJ5rbtqqqtfIZWw0833YXlyKbLazCzIvXZ+1GVaRVEyiW/atw6IuutC8RlZPGhKUp06pckTgW2MncMG7GcLjjGX5XwK2LZSzae6MyMFKbr/ESGXexO6oyhRujr8SticpDt3ctUqXE68k/5Eeq0qS7f3Dcl0qv4aMrYm2O9j7jbuxpcip+PUqfxIvhGGxC1hN9cY9D41X/gBurIuqwla6XKKftrl1S06mvEtlWxG9z2vKljQx7c+txnK5K/NVfVLjRLReRabIjHg2bGHB27aSlN1u3H9Un5v+xCFdSxeT11ZNqI7e1btbsVi4V826lcJlSnbdz2244yolLwGEZd+3dtTS6JJrlQlC8AAAAAAAAAAAAAAAAAAAAAAAAAAAAAAAAAAAAAAAAAAAAAAAAAAAAAAAADX3CN2WHd9qPXcS6oxrSri605+AEZ/wCS9/IrdsRmpqnoaTp8afyIwtWpvHaex58Y3IWrdxXNXBpU1WqoRYh5xu323zMHc5PZl7SknKzKzPSstPblbuOjr4ImVCD7nsOdh3Pb3PCuWNUpZNiFVo9aw8aFpSRyruyXbtxLB/3dqbft3Iqj05Tj+VlvcwwYtmLkoq7HpV1WJyX0xm1X1PhTzL+yPEbuVe2yx147uRzIwbdzpjGMXd4aT9TnFESGJK5N29izm542Jj49eD6P/hk+qtq2eXk3XJKqhwdxLp/CpaJla8H6V+3l1N/VNy/sQpljrajclHp6rz1ctZJVGVMKUnCPO9NvRUVF+PAirrbnR7infb6/yQT0/gMoUnGThKeR0u2n6bablp5g28nQrlG2rNvwSJwMli9l2+r2uqzajq7qajJpcfkX02wx7aSyx2MDcYXYRnCXVGWkjudfm9o8d3urePbDcvNw9UXozalc28eGD37nS5N0S5kbbSL6cVrm5++YmPHpnNO5L6V8OZq8namrqdf6zfk/4auHuOJk4+TkZGdH28eKnDHsJSncrXRt/TSnE0eTt2/DscP1nHx/jNRXK3ntvIyXfvYWXK5yayOiiXgopUNLfkzXUmmJ4alvZ9p3Bv8A43NWPceqxMvn5RuIx3CZtZ+Ejw7+bm9sZGy59tf8jsUHex1JpueLJ+qMWvq6H6l5GOrZnyiH/HZmXkK3i23cuy0kuCS/qk3wRGat7SNuOXt+y1jhf7vdUqSzX/p2pNUatLnTxLfCl1u3/DjzuXLt13Ls3O5N1nOTq2yLWWTEeqfb+3tWBirKyMa1nydzoljXWlGko6PrWqoy2mrHdsNfuHf67jNYViGL0NtQt+pJ+OrdTYka9rm7XjbnlZNy/CTuZDTlJSpSqWrJtNa4d7Fzr9ZLXpk+r411NXZsyte1l5OO2pR0T4kLs97Nhfh18JriRajDDK91wjFpVjwIWw3cX3JpKPItEOnj4yXqmvUicjn73VX7KXnoKmNvAX6OuolQ3VFVquPJojCazbft/ce6b3ibbs1meRlZFemKVIJR1cpz+mMUuLZj33wyaTMendsdv9yW8qVjOh/pvo/TmrkW1z6tPT8CqPCdY+z5PV0pVpxYwmVs24xUnbU0pRdHqnr4EGWy7MoUdKvk0JU4ZI43vWpK5cnGCVOmMU5NvzYyixH7mzZlvcfbc07UpKklWtH4ot7J9Y9CwezsCWFH2k3Onqm3q2WjFWlmdpZVlOVvXyRZVzZY2Xjy4ONOJCzYxN6zMeVfcfSvEIwkO392xklG7qB3sbdMTIScJqvgQNtSTVU6gAAAAAAAAAAAAAAAAAAAAAAAAAAAAAAAAAAAAAAAAAAAAAAAAAAAAAAAj289u327mVtk1G9LWeNP/Tk+Lcf6WwIxG9fWQ7V6N3ByrTrKLejr48U14MRNZY7oncpu9qN7Gil+pJdMqPh6otxb8KEoVydu2fPtTt2b852ZRorUpaKutU/GjGEohn7FmQ69tx865hzl1SjP24SjdhLRq5pWS+ZFisuEE7h7W3LGmlmYlnItxf8Ar4L6JNedtkxKLT2u3cuyWHc66RbcLtITi1y1oX9lbGhfs3IzUb8X6dVB1TL5lLFmsupSkla4K261ZKItlDqglFezbT1oqV+YIop3W3C2n7aWtxtL40BfCyDtS9OPpPnOTqiMHyo17dxR6fcuS/7iWn4jB8Ebag3PqlcvPhbbSSJMq3OlKE8uKc/yxTrRvyFKtcJTcpTlFWaaQSbb+QivhfZyZxXuOHs2o/BJ+bNnh5fWtXtdWcsx+W9Z3XqjouuHxN+9yYcb/wBTta5O4b773Xat3VZin0yuUcop/I1eXt2t7r/WTS+XCz97ljTisK9DLuUpK47Saj8Hz/A0ttq600kcnH3KeNfvX7kfev3U1dhPRPWutCs2RtMtlWti3CUpKctvy5LRN1syf8aCyKz21ce/Ydm9O3KUZuDa6ousdOdSljNr5djtiOTjbrh7jkTli4Dl0TyrsZdErc/TJKv1KjIktV28eHZ7q2b9rdnfxciF2zefTC5abXXZl9Mv7yMInn5R/A7c3HLvW7ftzt2JycXkKEpxT+X95aTK3thXL7Z3LFnKLh1pOiaTTevGjJ9D2WYm5blt1zpjVdOkoSXgJcGJXYtd6tqSyMG1dlLhLg06cal7upeKV2+zsHunvDLvWNhxYY2LjRc9w3S62rFiCVfVLRdT5RRT3Lx+szWPbNtjGd7Hd1XeiUv1F9MqOlV8RIyVr7thWrK9tRXq1qLCVx7W221kpxpR8nwKWJbUreNGck7ca8OCGCtnFtKCTiuJMhGfrafgDLl7mnLJtVIyYb2MuiKjWvmSh0cW3O/NW7UXJ1VSKs9H7IxL+1TnWXTK/HpuJcXGtemvgYvmpy9W2rEuZGM52umEUquelaLiyfyj4czee4FDar0bUnjQmulX6+u4q0ctPpReTCUHvd1Xoyt2sf8A07ejk+fw/vIwZdnb+8LtVG5WMVxrqit1WmyWbdvmPkL6ox5VqR6py6uLg2snJhcdxOK1SXN/EnCfZPNvhGFmMU1wLRhbWj0YGrkbZiX1SUF8Scpy4mb2jCdZWuIQj+XsmZjtvpdPELRrQu5FifFpoK/l1sHuXJsuk3WPMJSDD7kxrySk0mB1bWTZuqsJpkIZAAAAAAAAAAAAAAAAAAAAAAAAAAAAAAAAAAAAAAAAAAAAAAAAAAAAABrZm34uXDpvQTa+ma0kvg1qE5Qzc+0d3wK5G1ZEsiMW5ftbjSlR8oyoo/iTBw7e+bW8mOJmxliZtvWVm5HonGXwa6vmtCYh1J5NybjahFXozVLVyThWqWmroMIUu7W8pe1Gzad9LpcLio26caNakVOUW3v7e4WX1QuYcbWQm5QnCfTNfDyIEPy+zdwxMfIU9vu5VxpQg2o3Eo86Px8BUxCsja4OcoW4XIXrbSnaux6Wv/hl5vUWNDM27JtJe9bl7daRrXpqtaJrSpabK2WNaMXKS19uEeVKplkLunqtSSi7dp6OaohBWMaqMcfWPObZJaxp2U7kLcU7/wCaerSYwRbKFyzFNv35vwSBRxtK7133Lra9NuqS08hhWTDHcc1ZdzM6VbWqhWvwBa1MnLxpKHVeeLDhGHtycpyfBRonV+QtTrP0Tzb/ALC977r2utyzN0xtjs5Cri4O4QVq/ci/p92UH+n1+DTfiY7v58LWT8vNe7Pt/wB39oXoQ3vbL2FG5JwsZlVOxddK+i7H06rXXUe2UyZiNSi4TbklKXjx1JVWwtXLlyNq1B3L1yShbtxVZSlJ0ikvFsjC8e09s/bXs7sLCs9y/dabnmX117d21arKq41yGtJN/wBNaLzKYtpm/wDVBu9O89w777i969ajj7Zj1jtm2WUo27NpfTGipq+bM2snwx2Ymfy6dvb1Ha4wu25O7t8o3FbpW3O3TqnbT8aalNvlGn6t3Zu4crH2nOik7OJkX6WLcG426UTXT5ak6TK+1nw3Ybxi5OJdw9xxv9xFUhd6UqdPCj8zNhrWoPvisXrUrs0rc4Ranc/qp4mPeMnDmu52T9p45e3w7m7zyf8AhO1bb9xQm+jKy4LWlqD1jGXDq4+BhktZ7ZP+W53793rG47Z/7X7QwYbB2xCXqtWV0TvJf1uOtHz5l9dZqWfmtDYsL29pjnxuK5ba6YpPVU8i8qljm52S711qui4MWrSYYMWHVkpS9KWtSmUq5EVG+9KqvEipjdtJuC+BJVztqj8SFcuTuUlDItqTpppX4latI7OzbZl7hk2saxbc53KfSqpJ82+QymavWML7dvb8e1NTV65FdU+helOmqXiY0tuziSheUG6XHz4URCI6N7fLmJhXLXvNY1P1JJ0cqclzLyCKZ+8ZOe1CvRZ/LHm0vEsfDBaxJSaoqtkWoqW7P2HvuXj/ALh2Hasv6HPi/gRKjDP/AO3txwpPqhLpX8CatK28PcM7FmumbTT4EF8pds/e92NIXvgyTCWYHc+JfS9SqyVcOzay7N1JxkqDAzECy5ZtXFScU6+IHNzO3sO+m4x6ZMnIj+d2rftNu3rHkiYORcxMuzPWLVCCV0dpzMtXFGroiBMMC7enBdeq8QNsAAAAAAAAAAAAAAAAAAAAAAAAAAAAAAAAAAAAAAAAAAAAAAAAAAAAAUcU1qByN87Y2fd7Sjn48L3T9E3pOP8A0zXqj8iRDNw7O37aIu/s2RLcbEPqwcqUY3Onl7d5Ur/m/EtEOMu88N5H7Pc7F3AzG3S3dSt3lLg2q+ia80RhLt4t+V6cZ3LizMelY3kqXremlVGtY/IjA38XDxLs3JXZW78vT7d3Sqr80qgcXuLs3GyZSncXt30tZ9Neqj06vEhNedbt9td5h1zwMiN+CrJWJ1o6/wBLfBhGUQy+1txVm7dlY9mVp/qqqcdfBLUt7YT6uFkY87VVN1j4rWLMk3Vswwz9XTGvtxX9KRZSwU7qlKEI/p856BE+FkXbjb6ceVbldZSZVeKSuWLc0ppXMiS5JstEYa2XfjhwlevXncvS/wBKylz5CRGHpHYvcX2o7N2TbO6t5uT3/u7Ir0YyhSOCm9VbhJdKkl+d6vlQpeO1efpE1+7fZPZ295mF3N3R3bm7TtuZat3Le2adLSipfpVXplR6vUrrmeIiXDg7zucvu5e2ztLYbWTb+32yzhPde4L7UJSViPTGMLlzRyH+M/dfGPNc/fvsb9tbl2xm4OTkbP2vhdT3Heci85Sy2v8At48LldP/AKiXwKyWq3fDl7Fnf/553nLv7Fe7fv7fjYr/APx+/WJXPfm4v/UuXE+pOuqqZLrUS35S3de6snb9pt7es/B717apJO5uVqmVbtL8kppdNx8q0TGuhcX9q843LYvthvtn/kezsxdvb7Zblc2jLk3iXvGMJ6uHk1oTJcq7W48+Yy2N2zdnlHM3PartmLhT3L1tzx5NrprG5FStyVOdSbg0njw42ZnYOXjQtRu27dm224W4OKik3V6FtbIrvLa0rmfj5OXYxcX3MvLuP28bFsxc5Sk9KJIi7yI04ranEe2+2ew8WzvfekLef3BcfubdsNuSuW4SSrF3eUmn8kY/O1ZJtjxr/wDLzDvvvfuDuvdZZe7T6FHSxhxdLdqHJJeJf4TrJJ4RptNJrR6KnNtmParyOkszdNr/ANlfhdsUo549xOD9SqnR0GTEZre4W5eqtHLiiMow6OHCeQvdgqxtx9TRaVOVkpdUv4E1DqYltO2uehUZ42qxq+PImJ8JP2J2Xbye4sbeMvHjlW8ZP2se7DrtdT4SlXSq5Iw7+VpcR6/h9uYti5K7HHhj+4+uXRFKrfjQRXzl353tvw8O678aRhH/AE1o5PwXxEhl5tvW8QtRncuR6ci63KNqFPSm9EWwX9kalev5FxXLkm1LhHkhlH5bWJgXbl6MbUXJzaUYpVbbCXq3ZH27lYcM7copyqpW7L1p5sj5MyPSrWPDpUen0rSheRBe2bEvp9dtVfEgR/dOyMW5V20lLlRARnO7QzMZ9UFVDBlowt5dh6pxoQs6WD3BnY9E5NpcxksSXbu8ItJXmSrcpDi7xiZCXTNVfIYG7GcZcGmQKtJ8QNe/gYt5UnBE5MMVraMG204wSaIG5GMYqkVRAVAAAAFIxjGKjFUiuCQFQAAAAAAAAAAAAAAAAAAAAAAAAAAAAAAAAAAAAAAAAAAAAAAAAAMdyzCda8Scjl7lsGBnWJWMzGtZFpr6bkFNa+FeBJlBtx+3e4YE1f7ZzXYnF9SwsqtyzVcoS+uBOSuQ+5N22vK/b9yYEsS62ujKrGViXL/Vjp/5gYSrA7mu3ErdY3WtbdmSrKnjx4fAjA6c5bZl3LcnbVi6/qhFUo/IjFK5+8djYG4KXoU1JUcl6W/7yCPM+6ftK8L14Nq5FSfrivVF18uQTl53vGw/sr045Fq5ZfD3VH0V81yLe1RY41/brzi5W/1I0q3FlpuiRz7kpqDtqkU/zJal1MMbvztUhj1nN8ZSfAnCfly7/wC2964rtZZFH65SrFMmRS1zXGXSpzlVPRKupbKZtU97Z7y3HuXu3ZMLurDvd14OJB2MXaUq8Y9KlRUr0+ehXbGF9f1j3Tvvuvsvs3ZcGzm4/s2bVuuL2tY6Y2+vineUKVS89DDrplGbb4eFb/vPeH3H3P8AcbhKWPtdqjxNvtL0KH5VCK0+b+Rlxj4R7TWu7HD2jtvZFkX7MbNqWihGGs5f4pFIiy2odkb/AGt4nLFnTExOtdNuOnVrwbXBGSeUWWeVm5bZtmRfco2lar6batemrS4qKdKCqa7bOptPfPd3bas7bhZ/7/DklKGJdXWq11hJVehFZddZt+Ek3bJ+3ncGHbu92bE9g3C9T/8AK7c1FLzuRgun/wAyMXqnNz4uXM3HuPsHsXabmP2JN7nvmWunI3zI6ZThB/lg1SMV5RLa6fqm52+fEeVbluu47jlvLz8i5kX3/wBy43J8ak3ZOMNa45XJOT1k+JS1CY/avfO2tg7rtbhv+HHLxow6bcpLqdmbf1xWuvnyIkytc2Yia93dhdt957jk712x3HG7lXV1vCzKU/6Yzi04/MXLHL6/MeSb1se67Nnyw9xx5Y16H0uWsJrxhNemSK4ZddpfMb+xbvPBt3rbXVZvKlaVoydaWZZbV6E3oqpvShfOUZSHCX6MaqhCPlLu1+yszdVDJknbx06xT0lJLwKXZeR7Z23sdrFsW7cLajG2lSMVoVwN7ddww8exccKe5Hl4MtIh55u/cSxrU7Upyu5F1uUup1evD5Fk1EZxu5N6d67KspP+HgRaNzHxfSlSpGEJBsWUsDJjfjBSnH6W1wCY9H2nvW1NKN59L/gTlXCY7dvGHkxi4SWqBh1FchJJpr5AGurmBZKxanVSSZORz8rt/CvpvpSfIgR/P7MlVytKvOqBK4eVsmbjt+h0XEFrFbyMnGao2qcgO5tncmRFqFx/BkJSzB3JX0ur8QYb4QAAAAAAAAAAAAAAAAAAAAAAAAAAAAAAAAAAAAAAAAAAAAAAAAAAAAAAAAAAAADFdsxlrzJlHNz9rx8u1Oxk2o3bFxNTtzSlF18Uy+EPNd2+1mdg5EsrtbNWPC46z2/KTu2VT/05fVAZS5Eu6d+2WUcfubDuYsrcqW8xVuY86cGrirKL+IMJZ2733ay3BYmVau2p/V1c34LiiLqiVLbW84WTH270FbnzVU0yl1WaG59tYO4SnRQuWJxpJNKupCHmG8/be7g3Lv7S1GcZN+jRNp+BKXn2+9o7lhVllbc/aq2rkPqin40LZPCEZ+35NybhjJSlHhB6Sr5F5ux7eEfvW8zDuyt37UrN3WsbkaPX4mTMY8MEZRSlKVZS/KuROUWvbPsn3Z2Jtuz5GBcmto7lzaxlu7jGUqV9Kj1aJLwK76W+VvP/AIaHeP2h7qnub3tZL7tw51neu2JL9xTiq2q8PKJT3ZMy+J4bv2y3XtjF3LJjuFyWLmYsHDHxMmDhKEmqaxkovTloZbtLPDX/AKtpfKTY72nc7GTh5MI3LMayTnRxab5NmpvtZW3JlBN++1m3Zbld2a+rNyrcYL1Qr4E670v7ova7P74sZD22Nhq3OreRVe2lzdS/9il0nym3a328ePjRu3LdXLW5lXU25UevTRcCt5E+uWxuGzd1dv7hZ3DHt2czFuVVm3J1rbf9UWulJ/PzIm+VtuOYauR279oe7LjtZNh9sb9PWVzEko2nN6eq1L9KWv8ATRmT1uFZbP3Rbuv7Cd3bFjyzMF29/wADjG7hql1Lxlabf/ysplaWV5pcjctTnBxcZxbjOMk001yaZZWxji9ddWTBfj5V/Guq5YuStXP64Oj/AIEbVknwkm1d+50JxsbxZhumA5L3bN6MZVS8pKjI9mP+qfjxXo217f8AaTu+8sXaH/7ezJRrP2m4xfinblWL+RWzC09vz5at37I7/a3iWPhZ2Lk7XFdcs59Skv8AC7arV/BiVPvolPa/21VqSnuElKFvhFc6c3/cRUvS9r2O1jxj7UXG2uEQi13Nwz4bdhyjZkoylGjnzTfFR8yZEfLyvfe56XHj47UunWTeur5/EvhEqM0u37rndbc5OtWVS7exbDl7lmQx8eDlKXF8l5sral6tt32v2+xjxd1+5kU9TfCvkTqi1pZ327nafXYr5E2Iy4OXsOfiSfVB6c0RhbK/B3HNxGumTVOTBlJNu71v25KN6rXjyJVqU4HdWLfonKifiWHasZmPOK6XUgbMZJ6oqKgYruLYuqk4pk5HHzu18W9VxVKk5HPtdnTt3epSXSiDKQYO2xx4qurRCct0IAAAAAAAAAAAAAAAAAAAAAAAAAAAAAAAAAAAAAAAAAAAAAAAAAAAAAAAAAAAAAApKKlxJlGC7ZrwRKK5u47Th51idjKsQvWbipOElVMkee7t9mdrs3P33buRd2vPi+px6uuxPycXwJ8rRFrvcnd3buZG1v2C3Yg6LMsxlK2140XD5AwmGyd42820r+NdiktaRfUmvhxIsMJD/wAzh51voyrac0vTKJXCMtS/s+JlW+lT6006wlqlUVDzvfvtlh5GTcnZfsOro+FH/hYL8PPu5Ox99xoXY3YrPxf65xrOPwa/kTKrNc+UEz+3bauUx+qzP/07n0/+YvNkbRxcnCyMaTV6DjR0rxXya0Mk3RI7vbf3A7o7evxnt+bP240/QuNyhTw8UT4pmfl6RY+6vY3eFqGJ3rtFuOQtI50V0zi/GN2NJRKbcePhaZn+NbV/7XXsjDuZHYvcCy8e5GscDMn6vhG7Hj80YdpfytOWfmYQF5PfHZ+7QtbrjX8Rykl+suq1JV4xuKsX+JFZsS+Y9hwd+xc3aY3Gou5OGsoaurXgY/ZXCYY+ZLbvtLay90x7VyzcdbEVV3IuU2oOVfzaa0LemV9r58PObW7Xc6y5xhOWNbl6umEnG3V0XVLgqkesilrBkdh4/cmbD9lGNu5af+73KilaglxSdaSkv4Gectkww4/N+HZyN4ztn2m92t2Nj397zVFxy8+9OsIN/wDqXZUjH/p4lMT5q3rd5m+NXz/3j2f3LsedG5vUbLvZrc3KxdV2KdatNrgZLcozPw4MceEV69XyIyj1rDds01TKbRklYlBt8GUS63b2xbnuudC1gQk7kZJuaqlDzqh7YWj6e7B7TyNtwLdrJv3L965FO9cuNt18ELsrU0tbVasxdxpRgtavjRE/KKtu75h2MWVyUui2uFdG6fEtIl5p3V3hez8h2cWbVtadS/kWQjtqw5S6uNeJFqMJT2v2pmbzkqEIuNmLXXcpoiuV3tXb/bG37PjRhjw9b+ub4tiaq2u9atV1LIjM7UaUaqiMpaeVtWNeT6oJthCPbj2VYvNytqj8kBGc7tHMxquKclyBHN/bZePPVOLXAGcuhhb9m48lWT6VyYyYSXbu7oSSjc0fiSmxI8TeMW+lSSr4EYQ343ISVYtNEC4AAAAAAAAAAAAAAAAAAAAAAAAAAAAAAAAAAAAAAAAAAAAAAAAAAAAAAAAAAAAAAAAAAAAMdy0pKq4lpUVrXLEufDwLZS0cvb7V6zK3dhGduenRJVVPNMWIrzruP7R2q3M/tzKltu4r1K1F/ozf9NORCZUPj3V3B29e/bdy4d2xPqpHJjGtqXx5fgT8liV7L3btWfCN/HyI1X1dD1r5oXVGUjs5GNlpSk1chTWSpqVo1b2DauRlCMY3FJ0UXoyCxFd2+3u15kbjvWOifGM1pq/MZTEA3v7X5uGpXsZu7a525JS0+YyWSvO9y7aUHJuDszVfp1VfgW9kerg39ty7T0j1x8Yal5ux2eWfZ+4t72W/G7tuVcxpJ6wT9L+MeBfOflb2r0/Y/vu8jGW3d0YVvNxZrpuSlFTi15xlw+RTbjl+E66/p4SHC7d7H31fu+1d1e25DX/27k7thP8A6G1KBi248Lf22fMau95HfG0Yj2/esS5m7Rbk5WMnEcr1mvj0r1QZM2wm32n8az9p7PvG4413K3ST2ntqabduScci+qUfTWnRFrTUpfPwnbGv+XnZz/uB94Nrx8C1272yo42HBq3fvWnrGCdJUfOVDNpx4+VNZbc7JtfzdoyOxsPA7OzMfb5Sincu3VOdW/qk+ivVJ/4ik1uUXk852+ENytm7NxMi3LubNudw57VLNq7WFtS8IWLdZS/zE1abXbxrMOt3P9tOzF2Hf3TI2mztWd7bnjKEVbuLTRySf8GV081Xfa63Gcvm+VpOlOPmX2mF5Eh7R7E3fuHJjKEJWcGLpPIa+ryhXj8TBaySYfRnZPYu2bJjwt41hdWnXca1b8WxFLU9tws4GP8AuLsX0cEvFiCNd09z2bVhLq6IN/SuLMkiMvMt93/J3CbjFuNlaRgv7WWTGji2XJpUrXmRkTTtLs/L3bIi1Dpx4/XNlbTGHt2y7LibZiQsWIKKSo6c/NkyK2urbt+KJqMM6jQqlUB8QLUta+RIpOxbmmpKtRkcvP7exMhP0KoEa3Hs6SfVaVH4DBlwsnZcuxL1RaoQnK/AycmzcUddGDCabPmX5QSkTlKQW3JxTZCq4AAAAAAAAAAAAAAAAAAAAAAAAAAAAAAAAAAAAAAAAAAAAAAAAAAAAAAAAAAAAAAAAAAAAKOKfFDIxzsV4FpsNW7ivWupbJhzd02jCz7EsbNsQv2Z8YTSaGEPLu4/spZjclmdt5EsLJVZRsSbcH8HyGUz90Pt713f2rlexvmJNwj/AN6PBrxTWjJnkwmG0d/bbmuErNxXHpWL9M4v4EeommNveFl2VD03E+KejX4lLqldf2vGy7bjYn0V/K6NFU4Rvc+x8e5GUb2PGfV9UqIlV5zv32z9m7KWJDR1ouDXwZKHnW89n5GNOTv47oua0l/AnKcIzk7Pcgn7b6nq+l6OhOu+CxqWMrcMC6rlidzHurVTi3F/IyzeK+cp92z96+4dscYZv+7tr8/CXz5Mi6SoslaffH3X3vuFuzbk8fFkqOEXq18iZrImSRA6V1noytpluYe5bljRcbGRO1af1KMmk/wZM2PZJ+zO/cjt/KuX+h3blz/uNqunKsk2TiVFzfy3O7fuTvncsfZvz9vErraVX1fFkTGq8k/B2T9s8zuDKhkXl7eEnXp5z/uRg32ZNfD6A2HtjB26zasxhFQtxSUYqiKYRakGXlWsKxG/JacIxLSIRrurvaCxVFU14RLTUw8z3DcsncL7nOVY8o8iaWqWMSVxpRVXpoRlCd9o/bvO3C5C9eg7OLxbfF/AhL2Ta9pxduxoWMeCjGKS0JkRXSUIpLxLIZo0K0XEBqA4gUoqgVAAUaT4oDBfwca8vXBAaX/t3A6+roVQN2xg49lLoiBsAAAAAAAAAAAAAAAAAAAAAAAAAAAAAAAAAAAAAAAAAAAAAAAAAAAAAAAAAAAAAAAAAAAAAAAALZQ6uZMo1rllJ04+ZeIa07NKvj4Eoc/P2vDzLUrWRajdtyTUoSSaf4jCXmHdP2UxLk5Zmw3XiZFaqy2+ivhF8URmptQHJ3LvftfIVrcbEp2oadbTaaXhNBMiV9s/cyzlR/Vuq3NcYTdH8mLqZT3A7ijftxdm9GalxTaa/ErYh0FjYWbNdUI9b/CpXCXP3fsXDyk2oxb8KJkDz3uL7TxuQnKxaiq66aqvlSjQHl+/9g7lhydu5aV2C8nVfPiiTGaiWd29K1Ksawf9Mlp8mW13RdXMv4ORZadyD+NNPxL+6tlYfacnVkSmF3Q+HBeBZEZbNmc5xjFdUm6Rilq2yPbC0j0/sz7aLIhDJ3CPVcnRws/lgvF+LMN2ZJXtXa+2Y+BiOzatqEVpXnQjCtrLuW728K9GEVVvVvwLQwindPdzcfbjKr/LFPn5lpESITdyMnMve5edV4C1Law8CdycYQi3KXBFcpw9T7G+3k4uOZuENKp27b/mR8otepY+NbhFQjFKMeSLyYQ2OhAXJVeqogL1oQKkABTWhIqq8yAAAAAAAAAAAAAAAAAAAAAAAAAAAAAAAAAAAAAAAAAAAAAAAAAAAAAAAAAAAAAAAAAAAAAAAAAAAAAAAAAKdKJyLJwXTokTKNWdhUehbKGs7KVeZI0Nx2nCzbMreTZjetyVHGSTRGB5l3P9ktsyuvI2eTw8jVxtr6G/5EJleb5FnvTtHIcci3N2k6KTq4On+IZTYlHbH3WtXJQs5lbN2PGTejJwjD0jb+6sTNnC5bvKj0qnpr5lbEpBZyLMtLiUovmVsMtPc+29q3FN0i5UpyqiqcoD3J9q8TIsSVmKi19MqEpy833X7dbhhwk7UOu2vqi1UguEH3Dttwk3K27L8UqxqWmytlaNvtrdL12Nuza91TdOpcF8S13NdHrnYP2vxsW1HKzoK5lS4dSr0ryRityvnD1Lbtps2IpJUiuQVyt3PcbGFLohThqy8hh5/wBx9yK7NxsyrNv6vAtIIpe9y/frJ1fixlDrbVtOTl3oWLEHOc3RJKpWpw9e7O+237J28vMSleomo8kQi16Jax1CCiuCWiLxDNBJLgKLqVXmQK1YFWiBbVrkSC4/2AXEAAaAIAAAAAAAAAAAAAAAAAAAAAAAAAAAAAAAAAAAAAAAAAAAAAAAAAAAAAAAAAAAAAAAAAAAAAAAAAAAAAAAAAWygmicjDKxx00L+xhrTt9KpTTwJyhhla0boBoZ214uXbdu/ajdg+KkkyMDzruH7J7Hn35XsSUsScq06EnGv/SLlMrzrd+2e8OzMiU7U53sVOsbsK0+fgMrZldvtX7sXndjY3P08lLgLEWPR8TuHBykp2Lqk3/S6P5orhGXXtbpbnapJ1VNXxK4K5+44ONk2ZStUbfLg/kRhMQrcuybV99UrdavXSpWrZbWydoY2Nci1ZSpw0MeEphibfZtJt0iqF5EOHvO9xxrkoqSjCPMvIrY857h7lnlXJW7UuOjlzLpcKMZzab1bBXe2DtzK3TJjZsR1bXVLkitHuXZvZeBs1qMpQU8iX1XHqyMZMpiklwJVGgKUdAKrhqBTUkVIACj4kg61AqQAAAAAAAAAAAAAAAAAAAAAAAAAAAAAAAAAAAAAAAAAAAAAAAAAAAAAAAAAAAAAAAAAAAAAAAAAAAAAAAAAAAAFALJ24NcNSZRru1T4F8oYLkFq6cCyGCdrwRC3w1svbbGTacL0FKMlRp61CEB7i+zPb24uV/HTxb752+FfgymE+1eabv2x3Z2jle5ZnO/ixfpuRrw8/AtFs5dDt77nShdVjcU4qWjdafxIwix6Bt/cu2ZC/SuqUXrTmVsRHZx72NfWjTRWwZ7qtY8eqJTC0qN9wdyWsKy5dfHwL6weVb53DkbhdlRtRbLlcuzZnKVeb1IyhMe1ezszd78V0uNhU6rlCsq2MPbO2+1cHabEY2oLq0rLm2WwplJbVvxXAkZioAAAAAq011YFCRTnw0AuIBMAAAAAAAAAAAAAAAAAAAAAAAAAAAAAAAAAAAAAAAAAAAAAAAAAAAAAAAAAAAAAAAAAAAAAAAAAAAAAAAAAAAAAAAtcfAkY5248EqFpRglbaJqGKcZUo18iYjDBKIWauRt9i/blC9BSjLjF6ixDz/ur7Q7HuPVPEtftsh6qcFRV81wKpmzzXdOze5+2shTg5XMePC5GtBlaNzae+87Fko32/nqRgqRX+/IXsVtS9dOBXCMILvO7ZWfdblJuLZbCWnYtKWnEgehdhfb+9ut2ORkR6caOqT5laR7VtmxY232oWrEFGKXgWkRY6cLXS6k5QyLyISuIQAAAAAAoAAAAAAAAAAAAAAAAAAAAAAAAAAAAAAAAAAAAAAAAAAAAAAAAAAAAAAAAAAAAAAAAAAAAAAAAAAAAAAAAAAAAAAAAAAAAoBZKCJyLZW/mTkYJWI1rQlDDO00WiVnsp60BWtlbdj5EOi7BST5NVK2IQfuT7T7dnOV7FSs3XrotG/gQmV51vHYm77ZXrtOVuP546ohaeXGt7XfnLpVtuTdKJEZMJ72R9u71+8snNtdNpUcYvmD4exbXt9jCsRtWoKMUuCLSK5dSPArRUBQAAAAAAAAAAU1AAAAAAAAAAAAAAAAAAAAAAAAAAAAAAAAAAAAAAAAAAAAAAAAAAAAAAAAAAAAAAAAAAAAAAAAAAAAAAAAAAAAAAAAAAAAo0BSUKomUYpWafAt7DG7TXAmUHZaVaECnQ/CpMQwX8GxfjS5BNeaIsGha7T2mF33Y40FLjXpRT1Wlrr2MO1ajSEUl4ExDPGCROReqlRUAAAAAAAAAAAAAAAAAAAAAAAAAAAAAAAAAAAAAAAAAAAAAAAAAAAAAAAAAAAAAAAAAAAAAAAAAAAAAAAAAAAAAAAAAAAAAAAAAAAAAAAAAA0BSiJFGlSgFqi6kpXK3EjKFUgkoEFNSEqhAAAAAAAAAAAAAAAAAAAAAAAAAAAAAAAAAAAAAAAAAAAAAAAAAAAAAAAAAAAAAAAAAAAAAAAAAAAAAAAAAAAAAAAAAAAAAAAAAAAAAAAAAAAAAAFEAAAAAAAAAAAAAAAAAAAAAAAAAAAAAAAAAAAAAAAAAAAAAAAAAAAAAAAAAAAAAAAAAAAAAAAAAAAAAAAAAAAAAAAAAAAAAAAAAAAAAAAAAAAAAAAAAAAAAAAAAAAAAAAAAAAAAAAAAAAAAAAAAAAAAAAAAAAAAAAAAAAAAAAAAAAAAAAAAAAAAAAAAAAAAAAAAAAAAAAAAAAAAAAAAAAAAAAAAAAAAAAAAAAAAAAAAAAAAAAAAAAAAAAAAAAAAAAAAAAAAAAAAAAAAAAAAAAAAAAAAApUkCEKhIAAAAAAAAAAAAAAAAAAAAAAAAAAAAAAAAAAAAAAAAAAAAAAAAAAAAAAAAAAAAAAAAAAAAAAAAAAAAAAAAAAAAAAAAAAAAAAAAAAAAAAAAAAAAAABgEBSvkBXQAAAAAAAAAAAAAAAAAAAAAAAAAAAAAAAAAAAAAAAAAAAAAAAAAAAAAAAAAAAAAAAAAAAAAAAAAAAAAAAAAAAAAAAAAAAAAAAAAAAAAAAAAAAAAAADQIAkAAUCFQkAAAAAAAAAAAAAAAAAAAAAAAAAAAAAAAAAAAAAAAAAAAAAAAAAAAAAAAAAAAAAAAAAAAAAAAAAAAAAAAAAAAAAAAAAAAAAAAAAAAAAAAAAqAAANAKaEipAo+JKKJhK1t/wB4F64EAAAAAAAAAAAAAAAAAAAAAAAAAAAAAAAAAAAAAAAAAAAAAAAAAAAAAAAAAAAAAAAAAAAAAAAAAAAAAAAAAAAAAAAAAAAAAAAAAAAAAAAAAClCQowK6kCjTJFOmXkMoVpLyAo4t+AyKdM/FDKRwlTkMowvXAhIAAAAAAAAAAAAAAAAAAAAAAAAAAAAAAAAAAAAAAAAAAAAAAAAAAAAAAAAAAAAAAAAAAAAAAAAAAAAAAAAAAAAAAAAAAAAAAAAAAAAAAAAAAAAAAAAAAAAAAAAAAAAAAAAAAAAAAAAAAAAAAAAAAAAAAAAAAAAAAAAAAAAAAAAAAAAAAAAAAAAAAAAAAAAAAAAAAAAAAAAAAAAAAAAAAAAAAAAAAAAAAAAAAAAAAAAAAAAAAAAAAAAAAAAAAAAAAAAAAAAAAAAAAAAAAAAAAAAAAAAAAAAAAAAAAAAAAAAAAAAAAAAAAAAAAAAAAAAAAAAAAAAAAAAAAAAAAAAAAAAAAAAAAAAAAAAAAAAAAAAAAAAAAAAAAAAAAAAAAAAAAAAAAAAAAAAAAAAAAAAAAAAAAAAAAAAAAAAAAAAAAAAAAAAAAAAAAAAAAAAAAAAAAAAAAAAAAAAAAAAAAAAAAAAAAAAAAAAAAAAAAAAAAAAAAAAAAAAAAAAAAAAAAAAAAAAAAAAAAAAAAAAAAAAAAAAAAAAAAAAAAAAAAAAAAAAAAAAAAAAAAAAAAAAAAAAAAAAAAAAAAAAAAAAAAAAAAAAAAAAAAAAAAAAAAAAAAAAAAAAAAAAAAAAAAAAAAAAAAAAAAAAAAAAAAAAAAAAAAAAAAAAAAAAAAAAAAAAAAAAAAAAAAAAAAAAAAAAAAAAAAAAAAAAAAAAAAAAAAAAAAAAAAAAAAAAAAAAAAAAAAAAAAAAAAAAAAAAAAAAAAAAAAAAAAAAAAAAAAAAAAAAAAAAAAAAAAAAAAAAAAAAAAAAAAAAAAAAAAAAAAAAAAAAAAAAAAAAAAAAAAAAAAAAAAAAAAAAAAAAAAAAAAAAAAAAAAAAAAAAAAAAAAAAAAAAAAAAAAAAAAAAAAAAAAAAAAAAAAAAAAAAAAAAAAAAAAAAAAAAAAAAAAAAAAAAAAAAAAAAAAAAAAAAAAAAAAAAAAAAAAAAAAAAAAAAAAAAAAAAAAAAAAAAAAAAAAAAAAAAAAAAAAAAAAAAAAAAAAAAAAAAAAAAAAAAAAAAAAAAAAAAAAAAAAAAAAAAAAAAAAAAAAAAAAAAAAAAAAAAAAAAAAAAAAAAAAAAAAAAAAAAAAAAAAAAAAAAAAAAAAAAAAAAAAAAAAAAAAAAAAAAAAAAAAAAAAAAAAAAAAAAAAAAAAAAAAAAAAAAAAAAAAAAAAAAAAAAAAAAAAAAAAAAAAAAAAAAAAAAAAAAAAAAAAAAAAAAAAAAAAAAAAAAAAAAAAAAAAAAAAAAAAAAAAAAAAAAAAAAAAAAAAAAAAAAAAAAAAAAAAAAAAAAAAAAAAAAAAAAAAAAAAAAAAAAAAAAAAAAAAAAAAAAAAAAAAAAAAAAAAAAAAAAAAAAAAAAAAAAAAAAP//Z;imageBackground=default;fillStyle=dots;" vertex="1" parent="0ayYojwQcvTGPDUYHFci-0"><mxGeometry x="18" y="17" width="45.08" height="42.31" as="geometry"/></mxCell><mxCell id="xsfxkohRiaNYwhzO0Onx-9" style="edgeStyle=orthogonalEdgeStyle;shape=link;rounded=1;orthogonalLoop=1;jettySize=auto;html=1;strokeWidth=3;fillColor=#0050ef;strokeColor=#001DBC;" edge="1" parent="MoJ-YKAXfjhUIpLR4al3-1" source="0ayYojwQcvTGPDUYHFci-5" target="_lhErAnkib25VCGGUWqE-0"><mxGeometry relative="1" as="geometry"/></mxCell><mxCell id="0ayYojwQcvTGPDUYHFci-5" value="" style="shape=image;imageAspect=0;aspect=fixed;verticalLabelPosition=bottom;verticalAlign=top;fillStyle=auto;fillColor=#FFCCE4;image=data:image/png,iVBORw0KGgoAAAANSUhEUgAAAgAAAAIACAIAAAB7GkOtAAAACXBIWXMAAAsTAAALEwEAmpwYAAAAQmlUWHRBTFRUYWcAAAAAAElsbHVzdHJhdGlvbiBvZiBhIGxvbmcgc2hhZG93IGhleGFnb24gaWNvbiB3aXRoIGEgY2xvdWQ0JFp5AAAAR2lUWHREZXNjcmlwdGlvbgAAAAAASWxsdXN0cmF0aW9uIG9mIGEgbG9uZyBzaGFkb3cgaGV4YWdvbiBpY29uIHdpdGggYSBjbG91ZLc+dtEAAAAdaVRYdFNvZnR3YXJlAAAAAABBZG9iZSBJbWFnZVJlYWR5Bq0ClwAAIABJREFUeJzs3Wd7XEeSL/iINMeVL3hLT5lu9XTPdt/pO8984v0Y+2Z378zOnXlm2kgiRREkSHhT7pjMjNgXpwCSEiWRIkGYit/DR6IBiGKhKv/nZEZG4uL/uQVCCCFmj7nsByCEEOJySAAIIcSMkgAQQogZJQEghBAzSgJACCFmlASAEELMKAkAIYSYURIAQggxoyQAhBBiRkkACCHEjJIAEEKIGSUBIIQQM0oCQAghZpQEgBBCzCgJACGEmFESAEIIMaMkAIQQYkZJAAghxIySABBCiBklASCEEDNKAkAIIWaUBIAQQswoCQAhhJhREgBCCDGjJACEEGJGSQAIIcSMkgAQQogZJQEghBAzSgJACCFmlASAEELMKAkAIYSYURIAQggxoyQAhBBiRkkACCHEjJIAEEKIGSUBIIQQM0oCQAghZpQEgBBCzCgJACGEmFESAEIIMaMkAIQQYkZJAAghxIySABBCiBklASCEEDNKAkAIIWaUBIAQQswoCQAhhJhREgBCCDGjJACEEGJGSQAIIcSMkgAQQogZJQEghBAzSgJACCFmlASAmAmMwIiEwFj/EvnND8D6v8wIgFz/4B9+kBA3iwSAuOHqER8AFLF67bff5RPrz5UYEDeVBIC4iRAIgBC9Qa9RE2cFdUehPfaNMiQlxY5NYKRXQzwpcAbLCPNYTxJ90jSnDV1EihGMI0Og5IZA3DgSAOJGYQRCRGBFEDkyBZvAWUndkV88dv1T3574Zh7SkiPPipgQ6jkfr7GyOI7VKNWDpjno2v2uGWQ6j3RQ6A14jaSQARSd31QIcb1JAIibgxG8xqBQE2ZFWD6q1vfLjb1y4dS3xiGqyHqygU0AE1gRI09nghCAEYMGr9FrdBqdxSJWJw2z27NbS/H2QrzftXmMhGAD63DJ/1IhPgoJAHETBIWMoJjTklqTMDfwS0du5bBa2y9XD6ve0CclMQDjdLEXGH5wFT+d3cHpzxUDI4wTfdgxiydu9dC9nIv2uua4bcaJcgYZUBEollkhcY1JAIhr72xk59jx6mF173nx4Hm+vl+2xyEpyQQ2gc+KfH7yLzkPhvrn9bxQVlJ0UC2c+s+28uOW+X4l+XY9ebyWHHZMpZHxXdaShbi6JADEdcUIQWHQqJhb47B05G7tlJt75dp+uXjsOuMQOVL8aojG1/73U+P26zEAAJpYEyQupAU189AowtypW9urtpbiZ0vRQdeOE43MOsjCgLiWJADEtUQIAKAJIh+aedjcqR4+Kz5/Olk5qhpF0IHrWn5+rQz0Xbw+EfQ6RZyUvHJQzZ36jd1yYy/+6zB7tJ68nLdFpAOiFIyK60gCQFwzjBAUOK2sh97I3X5ZPHie39opl45cdxySinRgeK2K/6N8xZoiSCoygWNHcwN370X+/UryzUbyfD4eZoYUWE+KJQbEtSEBIK4NUkAKgSBy3B36uYFf3y8fPssfPM8XTqq0IMazKZyLm45hMJ67Q98Z+7lTP3/qm5PQGYUXc/FJ0xQxeo0AoEk2DYhrQAJAXA/nM/5JoPlT99lW/mC72Ngt+wPXKELkGc7mYS70MUwhIkOjCBt7ZW/o770ovl9OvtlMH60lxy1TGUQvpaLiGpAAEFdd0Fhv12qU1Bv6lYPq1k5590Wxul/2RiF2NJ3r/4QPqf5amiAtKCkpK6g1Dp2Rnz9xz5binb49bZjSTm8FFH3CRybE+5AAEFcaIzCACdwoaPWgevC8uP8839gtOuMQV6yIzz/m0z+ws59BWoTVinpDv7FXPllNv91IH63F+x1bRIoBGWU6SFxREgDiysGzCZ/KICN0R2Ftv3rwPL/1slg9rPoD38yDdVzv1brE6svzXcTIoD0rCsZTWtLCcXXrZfzdavx4LdnpR6NUW8+23nssOwfEVSIBIK6WeugHAB24VVEzD+t71YNn+ZffT1YPq0YeNE039F7u6H/uVY0QQ+I4PXa9oV86quZOXSMPjTXambOFVd5g0AgsOwbEFSIBIK4QBgiIRays597A331RPHyWb+zVG7t8WtL5fPpVG0Rffzw2cHccou18buAfPC+eLsd/38y2luKTtgbmpJQZIXFVSACIK4HU9MI/ctQ/8IsnbnOnvLed335Zzp26tCR1NmhetaH/LRiM5/YoZDl1h74/8O1xWDh1zxbjw7NWQgBggiSBuGQSAOLyMQABMELkeP7Uf7E1+Wwrv71T9gY+qVgHxmsx7gPAm49TE7fykDpaOHX3XhaPV5O/3Uq/XUsHTe018lt2HAvxSUkAiMvkFQYFjNgswuJeub5f3dopb++Wy4dVd+Qj96pj83UJgNchQ92KLnaUOMqK0B/49T33dDnaXogOOraIlCIwNC1nEuITkwAQl6Au3GREBWAdp2VYPag+e5Y/fJZv7JatiY8d13M+79vM50o5L/pBgjSnlbLqn/r1vWrlMPlmM/1mnQ/atrIqaAgKz48jFuKTkQAQnxSeHdpVWWSEziis71Wfb+V3XuSrh1Vv5NOSjGfks9PbL/sBf6A3Z4QgKWk+VEkZlo6qO9vFo/Xk2/Xk5Vw0PisVrWPguv+rxXUhASA+nfrELgY0gXrDUBf433lRfLaVrx6WzZx0YDjb1XWTBsHzHQOaQTtOKt+ehP7Ad0e+NQnfr/idfjTMdBEpZ5RirvvZCXHRJADEp8MIlUYTuDPy97eLL5/mmzvFwolr5BQ7VsRXpLT/gpzvWFZ1qejIp1VYOSp3tuInq8l/306fLsenDYOASnrJiU9CAkBcOFLoNTKCdbR2UK0eVLd2y9s75eZe2R+4tAh1F7drPd3/XhgAGGxgm3NaUaPg9iR0Rn7toKpbCZ00DSlUDMaTJIG4OBIA4qK8NpqzCWw990/9l9/nX2xNbr8seiMfOa5r4W/GdP+7O39mkEEHbk18WoWF4+rWTvHdavqX29m368koU3VnaTlqRlwcCQBxUQgxaHQGWpOwsVvd3i1v7xTre+XCiW9NQuSm17Yze4DK9ChjRkUQVWw82VA1C1o8ru5vx09WkqfL8YuFqDJoPejAcgC9+OgkAMRHVs/jE6JiyErKTsPqfvn5Vv7gebGxXzUn3nrG61/i+bGcF/0o4qzgpKq6Q7985OZPfGfsk4oOuraIlVPoFdZ9hGY0MMUFkAAQH81ZgzZ0BhmhPQ7r++UXTyb3t4u1g6ozCpEjTQw8PdFX1F6fAUOCuKL+qWsUYeWouvui+Hoz/Xoz2+3bSaxNYEOMzDBLM2bi4kgAiI+DELxBRrSB5wZ+4ditHlSbu+W95/nKUdXMyQS+lMb9145iiD0nLqQlNSe+OQm9oX+2GL+ciw+7ZpzoyqAKbILcPokPJQEgPhS/+gnqwJ2Rf/C8+OrR+NZusXDis5KsY0VMN7rE82N5VSrKYDz3h6FR5OsH1U7fPl5L/+t+Y2sxHqSKEQChXhSQJ1X8ahIA4oOQQmeQAWJH6/vl2n61uVfe2inX96re0CXVtIHzzS7wvwj106UDZ3UroZKaE+oP/dOleGsp2p6Pj1vGG1TE52sqQrwvCQDxqyAwACEiQFJRWtL8qX/wbPLgeX5rp+oNfFKRCYzAjCiLvb/C66WiJnBrEpKS5wZ+db9aPoy/3gxPVtLTli4sEiIiIEsMiPcmASB+jYAYNAYFzTxs7FX3XhR3tovVg3Lu1DcLsp7q6n4GlKH/Q9R3TvWTaAPpnK2n1tiv7lcPFotHG+mTlfjFfFQaNAGlVFS8LwkA8U7wrGozKGRETdyahPbYrxxW97fLu9v5+l7ZmoTITwd8uer/iBinpZ+aOCs5KakzDnND35mEzsi3R36/F41SXUbKISoiRaDqT7zUhy2uPgkA8U54+gMZERBak7CxV362Nbn7olg5cO1xSCqqm9pLiedFeKNUlCFxNH/qspyWD8o7L6NHa+m36+mL+WiUaWRkBJZbAfEOJADEL2OEyihWGDuaP3XLh9X6frW5W27sFQvHvpEHG6SJ8SeFDNZz24fYUaOg9igsnPitpXh7Idrt22FmSq1MIOvleyJ+jgSA+DnTC08ExRAVNH/q7r4svvh+srlbLpz6NA+Rn3bxlAv/T+ZVqShx7Lg/4FZOK8d+Y6/8bjX52+3s2SIcNzQrIDWdO5L1YfFWEgDiJ5FCp5EU2MDLR9Xtl8X97WJzt1w8rtqTEFdcdy2Wuf7LMi0VJVZVMIHiKnTGbuWoerIcP15Ltxbjo7YhBE31UTOX/XDF1SMBIN5QD+ikIKi6xDM06wv/7fLB8/zWy3Ju4BJ3Vt0PALLYe3nOG4UqBuXZ+pAV1BuE/qnvD0Nn5LeW4uOWmSTKa4XAilgRSGaLcxIA4ofqUp/KqKyk9X338Fn+8Nlk9cB1hz4ryXpWLEU+V8j5jFDdXLpR0Pp+2R35zZ3i2WL891vZo7XkxXwUFEYMSlZqxGskAMS0lwAjOo3OYOSpPfH9QVg5qG7vFHdeluv7ZWscrJR4XgeaOC05rqiZh/YkNPMwf1p9v5zs9expU49SExRGjjSd95IQs0sCQLxRYqiY22N/52XxxZP87oti8di1JyE+7+KpZOC/us6/j8igiJMyLAZuTcL6fnVvu/h2I/37Zrq1hKNUA0z3csv9wIyTAJh1DFAZFRRaT/2B29gvb78sbu2Ua/tVf+DTks66Tsqe3muDEQAQAYznhg9RRY08dEZh6bD6fiXZWo6356NBZoJS1pOVA+hnmATA7CKF9fSxDdyahP7A3d4pv3w6ubVTLJy4tCATAJkBoe7nI66R87SuS0Vt4EYR5k+r5SO3eOwat9Pt+fikaZxBr7FeRkaZEJo9EgAzql7pdQYU8/pe9eB5ce95vrFXzZ+61jjEjlR9aBdOj2sX1870u4YIAMgQOW6HELmiO/Tre9XT5fjb9eTRRrLftZrAeNZBOkvPHAmAGYIMhEAKvUbFnJa0eOznT9297fz+drG5V/UGPj7r6DAd+mVIuObOS0WR2QawE0pL1xn77th1x64z9k+Xk+OWGWW6sAoZNLGW7R0zQwJghtStJesfccWrB9Vnz/LPn05WD8ruyCcVm1C/82W6/6apj+qEurk0caPkeL/qDf3GbrW1VPz1duPxWvJyznqNSob+WSIBMCucwcoq67k99suH1cZeublXbeyVK4dVaxyis6YxUuJ54zGAIoiJrQ9JSY0itCZh9bDcWoy2F+L9rh1mmhHiijRd9mMVF0wC4IabXs4zK+K0pO7Qb+6Vv3kyvrddLJy41oQiTzrUXTzlwv/m+0GpaFpxdOLa47B2UN56GX29mX59K9uej0apricMAVGOmrnBJABuOGfQK9TE86fu/vPizk6xsVcuH1bdoU8rqtf95NCuGcQIBIgAOkBGZD2nBXXGfmO/eroUP1lJnqwmpw3DAJEnI6WiN5QEwA3EAKwwIACCddQtqDfwt3eK33w/2dwt505dWpIhQGaWEs8Z9kapKLH13CioP/CLx25u4LOStuejk6bJI6wMKgZFICeO3TASADcRQlAYNOjASyfu/nZx/1m+uVMunrhmEYxnZGCQbb1iWioa1HR92HrujENald2hX90vn6wmjzbSR2vJQccwIwCrcLmPV3xkEgA3BNal/YiVQQTICpobuNWD8vZOeXunXN2vekOfVKSJ+azEU4gfQGYdIA0hcpSVoTUJ/YFfOKq2luKdufikafJYKQIbWJEcAXQTSADcEIQACAhgA6dFWDl0nz3Lv/x+snZQdUY+dvV0PxPK6C/e7rVSUdbEzZySqpof+I3d8uly8t93w3cryV7PeKPgrAWpzB5edxIA1x4DeINlpEzg7shv7Ja3d8r1vWptv1o6rpq5N57rjp8y9It3gsjTGSHSgSJHWUndUbjzsny2GH2/Er+Yj0epYoCkIkWyf/gakwC4xupmPgCsA3dGvjsKa/vll99P7m8XC8e+lQfrXx3ULkU+4h2dn/ODjHVz6cj79iQsH1WrB7YzDmlBO3PRKNVBA2kEgPpsOHHtSABcVwzgFQaFNtDc0N1/Xtx5WW7slctHVXfk6/MaAacrvfLeFL8CI9DZpFBSsvEuK0JvFG7tlFtL8ePV5MlqfNowhGiZNMs1xvUjAXDN1NU7QQEgxI7a47B4XN3aKR88z88bONvA0xJPmaQVH4bPzgtSzJFnEzipqD3yc6euP3C9kXu+EB907ShVVYSKQBPUN53iWpAAuGZYASAoAONp6cjd2y4+38o3d8q5gWsUoZ7ulxJP8RH9qFSUuiPKijA3cOv75ePV9OvN9MlqfNQ29bZzRrnuuDYkAK6B10s8FUMrDwsn1fp+tbFbbuxVKwdVb+TjijTXJZ4y4SMuSj24K4bEkR1yXHFacn/o1w7KZ4vxi/nosG0niVbEUip6LUgAXANBTa+o0oqak7B2UN3bLh48n6wcuu4oJBUZzyAlnuKTqLeOK2IduJmH2FFv6FcPy7WD6uuN9PvlZKcfFbGqG4+jnDNztUkAXHVeYxkpFbg99rd3yvvbxa2dcuWw6g98Vgbrz1u3y9AvPp3zSw3ruTXxSUXNCc0f+9svy+9X4kdr6fZCNEkUMCSOlXQVvaokAK4oUhAUMoIJ3D/1vaFbPagePs/vvSgWj1xrEqznujGLdPEUn975Sw6ZTQATKHLUnITeyM0NXGsSOuNkpx8NGrqIlLegGHSQUtErRwLgiiJEQkTmzig8fF7ce57f2imWjl17HGJPdUuWgCjX/eJyMWLA+sQxSBzNn3IzD/On7s7L4slK+u168mQ1GaY6ICCClumgK0YC4KqoZ3JIo9PoFDYKWjqqlo+qjb3y9sty7aCaO3VZSSYw8NmRjTL6i6sEiS2x8RhXrplzZ0zzp27lqHo+H+/2osOOLmJdN5eur2DkzvXSSQBcFVSv9DKbAJHj1cPy4bP88618Y7fsjnxWkPXT94uUeIqrZnrODCLWB9B77g5dVviFk2pzt/xuNfn7Zvotp4cdo5gZIChE2Th2BUgAXAmkYBIrAOgP3OphtbFXbe6W63vl0pFrj33kSTEAyFy/uOoYAM5KReNqes5MVoS5U7e5W24txc8Xo52+PW3oyHNSkawKXC4JgMvEOF3pVQzNIrTG4dZOcf95cf9FsXRUtcchLVlTPeEDJKO/uA7qzSgIgAQmsAkUedeehKVjt3xY9QZJtp5uL0ARq/MXv5YTxy6JBMBlIkRnEBnSnO6+yD/byu+8LJYPXW/kk5JM3cdNActkv7hu6mPpAAABNHEzD0lFrUlYPHG3d6vvVpO/3UqfL8RlpJAYiZVEwGWQALgEQUFQ6DVazwvHbv7UrxxV97eLOy+KhZOqOQk2TA/tYinxFNccAyCzIogDW0dpEdqT0Bv59sQvHbvdnj1s29OGriuetSTBpyUB8KnVAzoC2AD9Yfji+/zBs/zWbrl46lqTYB0pZgasD3gR4gaor2Pq6f7EkT11zTzMn1R3tosnK8nfb2XfbqSTRCECyDkzn5YEwKdQl3gGhc6g09gowspBtXZQ3dop77wsVg6q7sinVT3dP+3nI8QNUy8MAIMmTguKHDXy0Bn5+VO3tl8+W4pfzEUHHeOsijwZz5rkjXDhJAA+haCREBRzWnHH0dKRu/eieLiV39ot6gbOOjBOL5Tk6kfcWPx6qahj60NWUH/oVw+rx8fpNxvp9yvxUct4jUGhM6DlnJkLJgFw4UhhESlC6A79+n55f7u4tVeuHLj5E9ca+2jaux+lyEfMiGnPWoUAYAN3JiF23Mxp5ai6vx19vxx/t5q8nIuGiYk8xY6lndzFkQC4KIzgtWIETdwe++4orO+V914U97fzpSPXHoeoYk3MyCznNYrZM10MI9CeG55i51qTMH/i5k9dZxw6o/ByLhplurJIqBSxkVLRCyABcFEIISjQxI2C7rwoHj7Lb78sVg9db+CSihQxIJKWEk8x0+hVqSg1ckrK0BqH+RO/sVt+t5p8vZm9mI8mMZICJlkc/vgkAD4yUuD1tMRz8aRaPnTr+9XtnWJjr5w/9c1J3cCZub4RvuxHK8RVUL8RkMEGaOUh8tzMQ3/o50/d1lK8vRDt9KKTpgZEE9hIV9GPRwLg4zjvhQIINkDiqDd0958VD57nt1+WCye+lU9LPOs2n3LdL8TrzktFkSEtQ+SoNQnzJ359r3q8lny7EZ6sJuNEk8Kzj5QY+AgkAD7U+Y4tb9BpzMqwdOxuvyzuvijW9sqlY9cZh6Si+kwM6d0vxM+oDzRFQGSIK5rzVVb67siv7Zf3tovHa8nWYnzYsZVR066iUir6YSQAPggDeI2sQBGnBc0XtHhS3dopP9/Kb70s22OXVqQDIAADymKvEO9ievIwgSa245AW1Bu4pWPXHYXWODxbio9aNo+VM+gVKGIlK2m/lgTAB2EEb4EQOmNa23cPnuW3dsqVg3LxxLUmQU+b+ciLU4j3c3a1hMBgPLdCSCrKirB0WL1YiL9bSR6tJ7t9O0mVdaCcTAb9ShIA7226rVdjUAAMrXGYH/j1ver2y/Lui2LxuGpNfFKxIWaQFp4X4PWnlAEYmBkIgIDqgnHm+oPOfp/f+FyFgIA4XXnE6S8RFEx/8noTDhlYLt1Zc2nteP7UZwX1h6E/8P2Rf7ocv5iPjlq6sEoxaJp2FZX77HcnAfDe6s7MDKADZwXd3q0+38rvvChWD8ru0J+XeAYla1Qf1dmzya8N6Hj+RwigoV5bR5juHHq11H5eZfLqk/iNhXg8/zAGfjXsI/7oY8QnR292FU1Lao/9wolb268eryV/30x25mxpFSFKdcX7kgB4D/V6bxUpUpDlVJ/SfvdFsb5fzp24Zk6GGKn+QLl2/Eimp6ABBeLA7JmJIQB5BgRlUCVap9okWqdKp1rFCpViYlBgMmMaWicKEJgANbBnPyY/8aEIiIgI7CkUIUwoFOSL4CeBqsABUCEaRI2oADXWP17LCfGp1ZmODIagmYe6lVBv4BaPyserybfr2UHXFom2jqyXw8belQTAewgKSKEiaOZhba/8fCv/3ePJ6kHVmnjrSDGwkpXeD3M+whIw8XR6BwAQlEJMFBqFGkEBKkSLJtW6oW3TmIYxLWObVqcaNVJg0BC1jW1b3dSIyASogBy5gXcDH8YeNQIAVeTH3g+9Hwc/8n7k/ThQGcgzMHDgaeoEomo68KNCUK9NFkkefCr1m6ue7UnL6ebhuVPXHQYb+FFId/uR0+g1KikSfTcSAO8KGbxBZ3DhxN/fzr/6bnL/eb5y6LIiKGZAJBn6PxIm5sDkiR1zYEDUqTYdHS/E8WISda3pmKgX2Y41Da0TrSKlI6VipSKlrAKNTIwIKlEqUTrSAAAEoICJqaBQBHJ1UzJgT+w4lIEqChVRSSEPfhjKo6o8rNypc8dVdViWh5U79ewYENCiMgrMdP1AfGJ1p3RkROCkCosnHPu8WVJ/6P96O/tuJRlkJq3IkNwH/DIJgF+GDKSgsgqZ5wb+s+eTrx5PHj7Ll49cUpIirod+ebX9GmeX/PW1NjliYmWVTnTUi3SmdaZNw9i2jefMqwBom6gbmabWiUaNqLC+LVBa1Wu502JydTZ1A9PfYeb6CwG9mlyq84aJgaB+DCEP1YmrDit36qqTqjqsykNXHTs/cH7kQx7CJPhJ8BNfP1plVX1bMP1C4uLxtLYarOfuMNhQGM/GAyM8WUmKSJFC67ku2RA/RQLglzECITqN/YH/bGvy+2/HXzzN5059UhEBeLkM/BDTsp3zFV5AQJOZZCVp3G5kG2myEicLse1a09A60yYzKlEq1jpSaM7O1jnzxprtD+D0A1Aj6B89itceQP3ftKKQh1CG+p4gTIIfhWK/nLzIi+1i8izPt/PqoPK5h/O2HvTqC4lPoN4SzAyKuTUJt3aLyE37Rz9aS/NISf+4XyQB8HPqS8nKKkW8eFw9eJ7/4dvxg+fF3ImPHTEDq8t+iNcUQn25HYpAgZVB27bRQhTPxfFclCzFyVISL8fJQhz1I9syOlFoFWpEg6gQ1M8N9b/8pX/8ez/667TWKlEmmOn6s2euOBv55kmzOijL/bLcr4q9stwti/2y3CurwyqUBApUpJTF6eyQjD8Xr74VUARZQStHLjzJNQEzPFuKx4lWDDZIO+mfJAHwc/is6LNR0r3t4nePJ58/zRfq0V/KjX+dunKfpku7OtUmwqgdJStJ416jebfRuJXVl/w6UzrVOtavym8+JQRERIUAoKaTO2D7UbJMIc9CHkIeqiNXvCgGj0ajb0fjJ+PquKKSODAwkKfpp8uL5OIxAgEgQZqH9d1SETuNrPC7tdQrSeGfIwHwcwgRAJKSlg+r3zwZP9yazJ+6yE1PbZQAeG88nWSnijBSUS9q3Mla9xqNW1mykkQLcbIQRz2rYqWMqif34SrdY6ECHSu0aJqaAyeLcbaRNu6k+VftYrfIt/PJ08no8Tjfzv3QA6LJ9PSWRVyw+s2oGLKClg+r32goLZ40zXHbBCVFQT9JAuDneANIsHzkHj7P720XS8cuqgilp9t7wbM1Xs9MrCJlO9a2TTQXpatp6/NW60Ez20htz+pY60Sp6CoN+T+GoDSCRrAACeiGth2TrKV+5IvdYvL9JF1JRo/H+cvSDVy9hEAVqbPqVQCZF7oo0wwgbhS0tu+GWXHYjf6m04OuNQFkPeCtJAB+TkC0xLdflr/9brJ87JOKAZFk8ue9MDAxE5MjQLBt27zX6P6u3bjbSFaTZCmJupHONFpE/NlV3CsJFapYRVbZlon7UbaWtj5r5S+K8VY++nY0/Ho4eT7xQ8/IoECuGi4aI5BCZGgWtLlbjdPJYcvs9qzcg/0UCYC3q19JWUmLx+7Oy2Jtv8ryUNeDineCUE+FU06gwLZstp5l62l2K2veb7QeNpOl2LStTrWK1HUb9t8w3RcGWFev2o6NF+NsM23cypp3GqPHo/GTcb5dVCcVeVJW6VjLrcDFqTuJ6sDdkb+1U9x5Ge/XMiPRAAAgAElEQVT37KChg0YlR8z/iATA25FCr3BxWH2+Nbm1W/SGXm4h30u9jxcYQINt2cbtRvd3ne7vOtntNFlKop7ViX6j7doNgIAWjTUmM/FcnK6mrfuNydPm4K+Dw389GT0aVSfV+Q5nuIa3O9cGAjDEjudP/b0X+VFH/+1WdtI0Mclb+IckAN6OEEDBwqn7YmuyfFTFnlBmft4RAlVEJQGibdv2Z2nrs1bny3brYTPdSEzb6Fgrq27U0P8DClSEVhudKNs28VKcbmbDb0ajb4bDR+PiZUGelFYQAyqU+4CPjmHaETAt/K3dYtDUzxfjo7bhm3W98VFIALwFIWjirKSlI7e2V7VHQQVmWfj9Ga/18CFPAGCaJupHjTuN3j902r9tN+824oXYNPTsvAVRo051PSmULMaNzXSwnkZzp6d/GRS7RRgHdgwKLqfI9aZjBMVsA8yd+vXdcv7E73dsXbkns0CvkwD4IUYICrOC1vfL1f2qPQk2yMvm3TCQozAJUc+2HjZ7f+h2/qHTuNtIFmPdvOlX/T8FQVkV9SOd6ng+bmxmrQfNo38/Gfx1kG/noQwmNWhk19hFQASIHXdHYWOvPGqZ3Z71BmUu93USAD/EAM6iHdPGfrV8WCUl1eeOyuX/T0Jgz+QIAHSi07W09aDR/X2n81WncSeLetF0un9mKUCFpml0okzT2L61PRMv2NO/DPJnuTvx5AgNKqNASQx8NNNDIgI3J2F9r9zp252+dRIAb5IA+BHEoFTsYPWgmj/1xjPIPO3PY2BiBFSJyjazuT/1en/otj5vxkuxaRjZBjWFgEbZrtINHfWjdD3L1rKjfz0++c9Td+o4MCuWZeGPiM86RSUVrxy6pWOvGIK8Gt8kAfAWJnAjD3MDV8//gDQU/GnkiUrSiU5WktZnzc5Xne7v2o3bme1ZnWgZ/d9Q71SyKp6zyjZsw0RzNlmKT/57MPl+4oYOAHSmZWX4Y2EARRB76g19b+DSkiaJZkSU5kBnJADeQIjAkBWhO3btsU/LoLg+J1AGsh9h4MDIaDKdbWSd33Z6f+p2ftNO1xLTlAv/n4aARkW9yDSM7Zp4PrZde5Tq0TdDN/AcABhQtpt8JAisAzQK3xn79tiPUj29M5AIAAAJgB9gBTpAd+TnTn1asiIAlMuxt2GgQCEPUce2P2/1/9jr/bHbvNuM5iMVKRn9fxmCilSylOiGth0bLyUHXXP6X4PiRQkIJpvtVZOPp55WMwGaOS2c+kHTDFPz6tjomScB8AZCNECdcegNfVQRMsjr5A1njX3IMyhIlpLWg+b8/+z3/tBt3m/ajkEr167vDAENRp1I3Vc61SpC2zDH/35a7pfkaNoLT2LgY1AEaRnmBm5nzg4yzXClegxeJgmANxACMrQmvjP2UWAlw/8P8Nn5WYFt03Z/353/537/j910LTWZmZ7QIt4LgslMtpGaho77kWnao387Hn835sAAcurkh6p3oyNzUlF36NOCZD3vdRIAbyAEYMgKak7IeJLJn1dwWuYPDMqqbD1ufdFa+Jf57u/a6XpqGhqkguVXQ9CJjhfjNiJaVW8fGz4au4HTkVLm7AgzeTX+WsgcVdyahLhifrVrUUgAvKm+OkgqTivSdHbtJSMbvDpNV6c6XU17v+/2/0ev+/tOuprM6A6vjwtBWZUsxSYzOlLaInsePRrVjVSlcdAHqY8ODpyVFHliuad6jQTADyACKGIVXjUOnPVLhXre3zEHVlo1NrK5f+73/9hrf96K52MZ/T8i1GhauvWwqazCSNmuHX49rE4qdjw9UWDWX4u/Rt1yUDGowIoA5B39GgmAH2FAvml9Kj8ITef9daKz9az3f/Tm/jzX/qKZLMSg5Un6yFCj7dmmaYCCemV48PWw3C85yH3Ah2Ep/XwLCYAfQWCcrh2JaZuHQMqqdDWZ/5f+3J/7nd+2om4EUut5MVChbujWw6ZpaN3QKlZH/3bsTh17BiMZ8GtJN5e3kQAQP6Ge+fHMgXWkGnca/X/szf15rv1lK+pHKNf+F0kZpZoqW08BgAryQ3/6l0F1UOlEg5Gb0w+A9c4eubqbkgAQP+HsAHcd62Ql6f+xt/Avc63fNOP5SC5CPw2dmcbtRijZj4MbeD8MzADEkr6/BrPc1/+YBIB4u2m9P0GynMz9uT/3z/3Wb1pRL5Jdvp8OgopVYzPlf+qFIqDC4bejMPY60bKR6V2d13wyYwjovXKetQalgOiSH9sVIAEg3oaBPaPCZDHu/LY9/z/77S/b8UIs1/6fnm3b5r1GKAkYqKTx9xNyhArQSlHQ+2CGELCsMC8hjQDUdOfKbE8HSQCIt2HgAFEv6v+pN/8v853fdeI5mfm5JAp0U7e/aCmD7AmAB38ZMKKxhpElA94VAwbG0qu8ZGBlIrJGzuGRABCvQUBAKomJbde2Pm/O/7nf/aodL0RKmvxcHmVU1FON+81+HkIRqhNX7pU+9yqSzQHvo54FqipAQAMIAEbzbK8JSwCI1zAAADlCi827Wf+P3e4f2ul6orSM/pcvapnuV20qQ3Xsjv7Xcb6dI6IsCL8fZvQEXCnNgEAYgdGzXBckASDOILDnUAWd6nQznftTv/+PvXQ51am+7EcmAADQou3Y1oNm9WfnRz5Mgs8DlaQiJVMZ7wUDoXcIrJgpidgYUDgtE5oxEgDiDAN7BuJkKer9Q6f3j53mg4ZuyOh/haDGeDHu/UOnOqzciRs9HvlxAGLZlPd+pgvCDICICIBsDQDMYI5KAAgAAGAgT4BgO7b1Rav/T73G/abtWin6vGp0qpPVpPsPXTf0fujHT8dc1zjKEv27QwRgDAylU8zEAABsDSACz1ZtqASAAABgZnJs26b1Wav7+27ny3Y8J9t9ryJUaJqmeS8Lk27xsvBjXx1W7AGTuqjxsh/fNcKMIUDFCpHrVvDG8IzVhkoACACYnnqcLMX9P/e7v+8kq4lKZOH3ikKF8Xzc+qzV3y3d0B/+34dUkY41IMziNPavVh8OHAjLioEBgWIEO1tznhIAsw0BGEIeEDFZSjpfdnq/7zZuNUxqZK/p1YWAFqM52/5tqzyuiu3J5FkRyoAG0UhV6HtigEBYegUlABDGbNTsrAlLAMw8BnJkGqb1sNH7Q6d5vxH1rIz+V59OdeN2w536ydYklJw/zwFAZu3eG04zAEqH9U6YJOKZuQ+QAJhtAZjYJDpdjrtftVufN6OOlUHkWkCFtmUat9L+H7ruqCoPSvbMshr8KyAAMAaC0ikAYgaO2BpQeOP7BUkAzDTyxIGThbj1Wav9ZTvbyFQsF//XBAIajOfj9pft/EWRPy/znTxUpCyifA9/BX6VAfWaMBtz4/sFSQDMLkRkz0ycbqTdP3Qbdxq2K5f/14zOdHYr63zVKXZKN/b+ZQ4GAWUl4P2d3Qdg6aZrwglM9wfc3CdTAmBWMVAgtBi1beuzZvvLVrQQqUguHa8Z1GjaJruTtb9qj59PqpMKAJhkIujXYq7XhBGr+ghJNvoGrwlLAMwoJqaSbNfWkz+NW5lpyIvhWlIak4Wo/bA5+rZR7pXlQcmO0aIcHPZr4Nk+4aJURAQAScTW3NRdwvKen0kITEwVRT3b+arTvNeMetLv89pCME2Trqftz1v5y6I8LEMZpEHQB2HAQOg85CUDECAbDUoB0w17SiUAZhEHBgadqnQtaX/RStcSlSq5YLy+VKTiftS815xs5cO/DcMoMLG08fiVzg8R84TsAEABUBJPa0NvVqxKAMweBq4YLSbLSfN+s7GR2ZaRKePrDiOVrCTNu41sIw15IEfMsi3gA7xWGwoACoAxonou6Ab1C5IAmDEIQEAV2YZtPWi2PmvGS5FOZmXbyw2GBqJ+lN3OWg9b1bEbP52AYm30TbpcvQT8KgMAXj9DBm7GjYAEwIypCxuYTVO3vmg17zdNy6KR68RrDxFNU6drSfu3rcmLfPx0wp4BbtqUxac2vQ8IUAIwK2BKYrhBZ0lKAMyWevbfdm22mTXvNNKlREvp582AgBptxzbuNBu3x8O/DqtTx55RSTnQB2PAELACQlTTPWI3pDZUAmC2kCNQ2FhNW5+30o3UdKycJXKT6EQny3HzbpbdzujbsRu66bnB4kOc9QvC0kF9mkAST/eIXXM34d8g3h1VpKxqbGad37STxUTHSlZ/bxK0GM9FjbvN9hftYqcsdgvU0iL0Y/hhvyAAgOlZkte5X5AEwCxhQI26qbP1tLGZ2ZaRa8MbBhXqzCTLcet+Y/Bfp5MnSob+j6k+Q6ZkhcAInABf8zNkJABmBgETm8wky0mykkR9K40fbiRUELVttp5m6+nou7EvA3lSWr7XH8P5GTKFYwJi4AQgusb9giQAZgUF4oqTlbj1oJltZrYjJz7eWDrT8WKcbKTxUuy3JlQQxm9fCkZEQHh1/MP1HMU+tXo9oHL1kwfXeU1YAmA2IHAAchT1487n7WwtNU0tAXBToUXbtelGmm6mxcsiDANbRv2jlQAErsess99/Yz+gvDp+ynm/oBIUMNVrwuZa9guSAJgNDAiAGqO+TTdS27PKSu+HG0sZZZqmsZE17zZH34z9OOhY/bgzBBOQo1AGKqheH0KFoAEVokHUiBpA4esJIV5hwBCgAgXIjJTWa8Lqeq0JSwDMBCZGjTaz8WISL8Ym0zL632QIKlHJStL+vJVvF1HP6lS/Ue6FAAwcIBTBj4MbOnY8/U1mDlyvGJFjqI8YU1DPFKGcNFA76xeEnqDuF4RMCbDR1+sMGQmAGcDAjnWis/U0W0uiriz/3nzKqHgh6n7VVol2J06ZN9cApoXtEByFPPixD5MQiuAnwQ98dVRWh1V5VIVBCEVQRmGEyig0CPo6znNcmNf7BTErBk5iulb7hCUAbj5mJke2bdL1JF1LbNugkQC46bDeFJbozFBFb7/hY+DA5IgqCiWFIoRRcKeu3C+LvbLcL8uD0p04qogq8pMQCqI8oEZlUSmZQjxT9wuqPCisd4md9Qu6BiEgAXDT1ff1njFSyUqaLCWmaZQ0/5kBqFGnWsU/txVg+if1viYCKsmPvRs4N/Du1FVHrjwoy/2y2Ckmz/L8RVEdByCAunwAz37MODzbH1AAMCgEggjquaArnwESADOBmXWikuU4mrMqlmu3mYG/0BEa3/y/ipVuaNu1VBGVFMrgx6E6qoqdIt8uJs/z/Hle7pfVifMDT47QIFqcHiV01ce6C1b3CyqBkBUzJfG1qA2VALjpCIBBRcq2bDwXmZYc+y5+GgIa1EbrbNohnInDJLg7WXXsyr0yf1aMHo1Gj0f5dl6dOnJUrzBNW87N7Cvr/AyZEFTBzAioCPDqnyEjAXDDMTEA2JaJ56KoG+lEy9kv4t2hQp1pFamoG6VraetBaD5sTJ628pfF+Olk9Hg82Zq4I4cWdaynBxFf1cHuwtVvrMBYOgUAzAQRWwN4dc+QkQC44TgwarTdKF6MTcdI/Y94X6gQI4QIdKahY01Lp8tJdeomW5NkOR707PjJxI9DvZKMCpSZ7TnG6R4xRgDFQABgr26/IAmAG44Do8F4Porr5V87y29N8cEQTNPoTCcrSbqapBtp615z8Pfh8OvR+LvxZCcHBsxwpqcZp/cBpMqKmQGBAMFe0UP3JABuNAYKpEBFvShZim1LNgCLD4V6Or5HvUjFKu5H6XqabWSDvwxO/zrIXxZhEtjztA31zM4IMUBgrLzCEhgIYrbqCq4JSwDcdAEAIerbeDHWDS2nP4qPBQ3alrVtGy/FyUqcrsbxQnT8n4PhN6MwDsDMxKBgRg8km/YLono9gBEBLdsr1y9IAuDmOtvZjwptx0Zdo6OZfCuKi4MAADrSyVKiEx3Px8lKGi9Ew78O8+0iFAEVYKrxKs5+XzwEAK77hmpgAia+cv2CJABurvpIcKVUrE3LmIZBaQovLgKCTrSKlG1b3TKmaUxmVDKYbE/82FNF01mjGcwAAGAGT8heQQkAlAKjuTr9giQAbi4GJtaxsi1rGkb2f4kLhQpVrLKN1LZMPGeTlfjo344HX4/K3RI1moa+YpMfn8r5fUDp6j3ZlML0POEr8GxIANxYTMzEOtVx35qWUZEEgLhYqFDHWi0oZZTOjM60bpjT/zytDquQh+nx9Fdg1LsE0/UAj1BO34VG8xVYE5YAuLGYGQhMpqNeZBtGWSVbwMQngAqjfqQSbTrWdiIdqZP/OMmfF+z5x2cSzIpXZ8iwAiZATgCuwJqwBMDNxQAAyiqTaRUpmNn3nvj0EHSqstUEFepEmUwf/evxZDv3Y28ygwr5Ckx/XwIGDISVBygYmBDZaFAKmC4rBSQAbi4GYFCx0k2tEvXDjvBCXKS6h0S2kZjGtHU0B55s5+yZ9UzeCpz3C/KEXAGCQqAkYnOZ/YIkAG4sJgZinaq4H9mWVdHZWUVCfCrKqKgXdX/fUalmBfD/HE+eTJjZNg1cg2bJF2B6hgxA4YAZmSGN2NjL6hckAXBzMQCjSrRpG5UqNLIEID45BBWpeDFpKxUmgSr2A18dVqGi+tjhmV0TxkBQeoXICJTg9AwZ+NS1oRIANxkDK6tUopVVM92eRVwq1Bj1bPf3HfZcHVQn/zWojioFv3BWwU02vQ8IWAARKwZKYrCXMBpLANx0CKgQ6wqgWX27iUunrIoX4tYXrfmjihlO/uMk5IEcTVuHzuh9AEAIqoL62p8QWH/qc8QkAG4uBmBAhagRZAuwuFwIyqp0Ne3/Uz8U5AZu/GTsR541z+7UZJ18gaB009OE45g/7ZnyEgA3FjMzs0qUbRsVa7n8F5dOp6qxkYV/7IZJCHkYfjviwICz2jAOzueCCEqnzs5mZmNA4afpFyQBcHMxIIOOlGkaLU1AxRWACk1TN+42QhHyl0V14tyJ44qnR4nNLD7LAAQGoASm54jBha8JSwDcXAzMgFapRMn3WVwdUc+2Hjbn/tTzQ3f0v47dqZv2KZnNlQB4fU2YmRgACYCjT9EvSAaGm216dz3b11fiakGNUS9qf9kqj6rJswmVgQMDIs74ShUDBELnsEAEAAQ2+qLPkJEAuNm4vg+Y0Z334qpCi9lG1v3Kj74dhlEo9koAxhk/sLruF+QDcqmYCQGSiM3F9guSABBCfGqIaJo63Uh7f+q5gS8OKnZX5YyUS4XAgIGxdADAzJRe7BkyEgBCiE8OATXGfdv9bad4UQ6/GZX7FQdGNduzldN+QdPzAwBQAVKKbPQFrQlLAAghLodOdbqWtr9ojR61T/7jtNwvVaTQzmp/iHP1EkAgKCtgVgCcxGQv5EQdCQAhxOVAjbZtGrez7u86xcui3CuZGXmWbwFeU9eGVg4UAjBCPO0X9FFvAiQAZoA0gRBXFWpMlpLOb9uDvw1Hj8YUiHmG9wa/DhGY0QfIKyBWgJTEYD9yrwgJgOvvp94s5/3HeYYrrMWVZxo6XU9bD5rjJ+Px1iQUQUeycb2GAIwUsAJCUMCE8cetDZUAuK74/BXwE68DDszEwVEoicMnfGRCvA8VqagXtR40Jlutcr/yA89WbgIAoL6Gw+lZkgVD3TUjidl+tDNkJACulboQgJgDc+D60r7+yY8q/dHnAZj9wLljR2UAsJfxiIX4JfX5kbez1ufN438/YX/J56RfOfWaMDFUTgEQAEDM07mgD60NlQC4BpgYeDruA0wbfKpYgUJU019Oz9jjs5AA9kPNjpRRVBF5YH6fA8EYODDVMVO/xvBtb0o+azetEQ0i/lINHwN7pkDT9PqpD37fv/bHf0FgckQFUUXkz/Jy+mcMdX9sg8ogGqUTpZP3nHOonx9/9g+BC1hlYYD6e20QDdZfkR0z8UX1duVpdeanPz0CDcbzcbaZxYvxZDsHAKaZPDbyZzBjCFBy3S+IMWKj+Xya99eSALjyGJgYAnBgqggQTFPbtrEdq2OtEmXa1jS0smq6OFQHQGB34vzQZ2upThQqeK8EYGafBz/0fuTZ1UPRW15lTIAIyirTNrZjVax+/s6did3Qu4ELk8DEP7X1nwnqhLNtY1pG2V/4a1/7zOlX8UNfHVXFXlWdVGEc/NhTSUz1BzAaVIkyDWOaxjRNMh8lS4nONOp3TRoO7HPvTr0f+Wkqf+zBiglQYf3cmrYB4DAO5UFFFamLaO3HwAzKKp3qqGdNZkB9utoBRNSpjuejxp0s3ymq/ZKCBMCbsF4PICwdMxAAJxFY/YEzQRIAVxQHZs/kCRFVonRDm4bWiTZNE/WiuB/ZntWJVomKetY0jYoUIJ4HAATyA1cNfDwXp+upSfV7Tapy4OqgGj+d5FsTPwzM/PZSImIgAIPNu432l+14IdKp/rm/1tHk2WT0aFzsFORIvXXrPwN5UpGK56PGnUbzTgPb+C5jATlyp84du/KoKvfLcq/Md8rqqPIj70chFAGIXxvmlGmaOmCSxSRZTeK5KO5H8WJiWgZ/aeyjiqpDN/x2NHk6CUUAgF9xm/JzGDgwajRt07zXaN5rAkC+nR//+2l1XJns46+RMjEQ6EwnK0n3t22d6E88/qpIRf2oeb85eZZXeyVXLHOWP3K2HlABTt/P0XSP2K+tC5IAuGLO1nWRERCU0SpV8VyULMbJSpwsJ8liEnWt7VjTMipSKkLbsjrTaPCNU7aZQ05hHNCiyYzOfm5cfsuj8FwelMO/D4//90l1UHF99/DjAYGZKgaG/v/o2Z41LfPzAeAnfvx4fPT/Hg0fjUJJb594YQ4lmYZu3mogYrKY6Ib5+bGgnhyrjqrRo9Hw8Xj8ZFLul9VRVR05P/R+EkIRqKKzbuuAWqlYmVTpTJvMmI6N56JkOW7czjpfdtLN1HaMitTPjIBUUXlQDf46PP7/jv3IMzMq9XEDoA7IeCFmhng+BoDJ95P9/2t/8qKwbfPRT9OtZ95tz7Y/b6UrSbIUo1Yf/77mpyCgQdO2zbuN0aPxyf8+IU8a3u9FOxPqsT4QFpViJgBI7IecISMBcGXg2RS5Jya2LZvMJ/FClCzFyUqaLsfJShwvxlE3wlgpq5RRqAEU1DO2r9YAaswmYWobwNdWCN4dQ5iEcr+abOXFbgE/FQAAIQ9UUtS3xVftbCOF3k8O1VSRO/aT7Xz43Xj03ZiqtwcAE1NBpmmUUc3jVijPBu6feqTEfuwnz/LB34b/P3tv3l3HcaR9RkQuVXU3XCwkxEWyLMlbW227+/W7zJmZM/N552vMmdfTbfe07bbb8ipRCyWCWO5aSy4R80feC4IkSAI0QABU/o6Ojk1AdylW5ZMZyxPT30znf160X3exicdXMoXpSdM6QpQ2UhJajp79LOJet/wU9UCXu8Xy03rj49Hox8PqbmVG5kVrOkcJdWj32uWDOky9iKC6aAFwrKzilt33XWwjAriJqz9rlg+WZstcigBEsLesHZtYR+GX5WguCSqouF0UtwsqFCxz4doLWOWEOeWERYQBV7WhL31STiULwHVBgghLCobqvq7uV4OPBoPv9qp7ZbFT2C1jxkYPtSpeui06fmQRkVC97iFakhR1MdZhtcM9VQAQYsOxid2+a/faMA8SBE+NUCdFOXBpbx6Xgd2JxOzJX2ThlgEhNpFdhNN+58kvB/ETv/y8Pvr1ZPLr6fyTefN1G5cRBFa501WSPP32cx8sQuQoQSSwO3TuwLkD1z3u/DyMf8KDj/p6oE9Ph6br03JYBL8IwkIvF4BTf3RcxXvKMQhix1yIXkbuBAIICjvxc++nAQ2+TABe8jGOO0Ke+x32AixUUmwix6sxjyWNZsMU29Zu2VBHifDKWNy3l/UMmVQowKUVs95OnecvLwvA9YAlNhEE7LbtvdsbfNQf/nA4/N6g925lNw1pQo2o8E3WZiAhakJDZOmFAgAAAogoXrrH3k8DOyY6PXgSFqF93LmJZ8doFCkmc0oOIAWjyRIZQk0vqXiRIH7uZ3+cH/7L0cEvj5Z/W6aUrKrUagYC4nH1VKqkWn+3J6VTRAgaQCit6fUXjZv49lHnD50EGXx/YF90pkEEWv+lILwogby6bqdnUNYZfnjup2sBI4VIsLoItPrD1Zs+95yvwsIEp7wgrFb/1XV47qcoABHSNbmqEnwk1JUqtm3vfulnPsyCALzheqQbw/ocgM6lO5vByvlzwlkArg6EJ8WdArqv7JYdfn84+ofh6EfDVBJnhvr0TOnlI7BeKAnTKn/6AqeJRNix23fu0MU6kj1t1RYIi+geObfvYh2RAF+gEwDrN33pTnYd9F8e/uvRwb8cLv669BMPBGgwHUEkSnSMAKhQWbX6c4R1PSWzE46cos9plUl1lm7i2S2AUrEdjH4wOOUcgIAIqAA1kiZheVYA1v/7ZaspAQCg4CnTGgRIkMxquU8NoYiIaSugTxGAJ2/00uu2+qbPvSNBCiemt7sqBUipYNN7t1c/bN3EYxaAlyMCgVH8cU74vH5BWQCujhNtXFSo/neqjR+Pxj8bb/zDsPednuorePnycT1ABEEJdWgft+7AhUXQQ/18FEhAwjK0j1t35GIdUZ8/LXHy1VjCIiw/rfd/cXD4r0fzP85jx2iRND3plWMAEDSkB9puGjs2VCpUyJG5YT/z7sD7uU8ltklvUKHqKfESl3H+yYI7plKpggYf9vXgqScFCZUlMzTFdqGMEnnOx3h9GGfP4oQdSzxRv8+AhGhRlUoVJMfngBPXiwMrS3bT6J4iTQCge7rYtrEOZvxsDiDJs7BwYOmEPa/Cayc+EmokS7pQqJFPnofSGwYBEbtlzUiTvZr7DhHRohmb6t3SfGIkvvk0xE0jrfUcU05YEBkAtD57XVAWgKtgne9NO0e7bfsf9Df/aWP8k43+d/rFjlX9N12E92pkHcdIogWr80HaQcc2do+dm/jYxmfXsvRfs4RlcEc+LCJ7VmoVpUkBnycRm7PBjusv6slvJ4e/PFr8bRlaRoIU8U8tYEik+7rYteVuUd4uy1uFGRtVrQQg1stGg3YAACAASURBVNFPfLfXtd+09cPWHTpOpZwKgRA0oGBsYv2gOfrVRFdK91Xv3d5qbi0AAKT6nI2PR6qgFLs7RQAE2Ev7TVt/WbcP29gxmdXkWw6sSlXcKvrf6fXuV6jw+XQIRyZFZsMMvjcwGxoA+9/t3f4/b7mDTvf1swsjAghEF92Rrz+v20ddmIf0jdJmnzTZraK6V/bulWao1y0RT/0FCYse6N67VbFtUeEViAACKtQjU92tzEhDyA3BZ0MAY/ILQhLhEsSc1S8oC8BVICAiEoUMFbft8IfDrZ9vbv5sPPiwr/rqmp55T+SXTi52iAgE7NhNnJv50LxAAJyEZfAzH7t4UksQ8DUajsIiLP6ynP7HbPGXpZ/6FN5BQmHhKEBoxqb/nd7o49Hgu73yndJuWj1QZAkRhYU79ovgJ775spl/Mp//eVF/2YRl5CgogAqxQBYOdZj/aa4HurxXqb4pb9vjvxqyaHfMxo+H1d1SQqqYeTZGBACx4dkfZuy5feTYB9SAtNJ+JCxuFxv/OBr/dIMsyfOLnQgSoqViy5oNAwC97/RuGYpNJPN8CB+AIbax/qKBCGEW/NRDkrR1f2+xbUbfH4x/Mip2yycNzE/eDgCELOmhtjv2qm5CJFQ9VdwuzNCsP1XmpRwPiomMnQMAQmQA0Wcqos0C8MbBVOspiGBv2a3/trn937bGP90obhdpi3rVn+9lCAsZUoUCSX1qkvLD4iUsY5ilztjn/qsgYRnCPMQ6AsNqxWcQEGWJDAmvXu0MnwBCG9tH3fzPi+WndVgGACBNJ/f+ZtOMPx5t/Xxz/LON6l6lKpVC2+lQJQLAkt7Rf9Tvf7dX3i0PfzmZ/3nhDh1qAEIASO4L7sgt/jKf/a4qtk2xo1GtHirSZAZGFaq4Xa7O2s+vyYTccmzj4tMaFEhcf3MBCQIIdmx77/VGPxiqHp3y3Y/9MDSmEBBZMkN9uhUEAjCkmNXir0uytDLwWBUaIRKaoanulYOPBtX9Sk7dGwoArVMmV3cfKktmZMxQq0qtfIGu9TNxPXgyQ8aDCApDacVowFfUhmYBeIOs4yccBDVWu+X4J6Pt/2V7/NON3r3q9OrJa4WARKEe2S0LUUIdZBFTaFtSTc7M+4nn7lmDKvbsJ95PfKxj2tgCrOJIuqfN0HDgsAg8D68cXi8sbt8t/1Yv/lq3aX6IxtWCKAAAdtMMfzTc+h9bWz/f7L/fN8OX7YOSFYQqFWoCgNkfZrFm9kIpy8oQ65jebvBhM/iwb8fr3igENKiMevkuSwrRfUUGUz3S8ZqbviUZVKXSQ00FnWW3hhqpeGFFgDBwwbqvVi1sT11IWX3gSqWvfIZ3uzKQUFmlBloNdZyHy7JaeitJfkFOiFAAGHCVEwZ4UUrgWt8Kbx/CaZeKxZbZ/OeNW//79ubPx+Vuee0i/qexClsVVO4WHFj2ISRLH0QiRIAwDd2+C8tgt8zJMBF33B267tD5ZWAWUAi0aj3VA13sFtyyMLiZf3I+eOGHgPZRN/vjYvl57eeBNK2CKms5GXy3v/M/trb/++bwo8GpZaYnQY1mbIY/GKqekiCpUTksIygFBIiIiLHj9lHTfNl0e04V6lw91bGLseN0TjpZCZoeSY4i/ErJOzvCjmPLkmT0qWu4UlxOXnLXHARQoAfKjk3bsni+AXuja0LyC4oRu46FCYBLC0a/5InKAvDmkCjAQhqru9X4Hzdu/W87459tFNvFNQ/7PEFAoqhSle+U3DE37NAlyxpQAAR+7tu9zk18sWNV74n7UGxj97jrHndh5iUIEiAjoJAhMzZ224ZZoKkDABF5uaVOaGP3uGse1v7IcRdVLyW7gDtWBfXuVBsfj8Y/3ajuVmcsn0WFeqR671Wjfxi2e50/8rGNICvXXTQoLN1jV3/RNA9bu2XOIQCvHMVz4YN63vDbXRKIpFEPjN207sCFTvAVN0XmJJhqQ0mCQAfJNk4rQDr1EJAF4E2R4ica7abd+Hjj1v+xs/nPm9X98qo/1nlIX8Gg3TbccXeoQIGIiEjSMD8L3V7nj1xsypOmQLHj7sB1By4sIjCkTCxq1ENtx8YMDbcM+GpvA/YcZqHbd92+SxZsx6VEHEQPqffd3vBHw/4HfTM6x42NiLqv+9/tbTwe1g+WfuK5ZYmy6iVm6I5c83XbPGz67/eKW69x4TLnAQEU6h6ZkSKDIiKQFeA8rP2CoPWYLIBLKwZPbRHLAvCGEBD2bMbF+KcbO//r1ubPx8WOveoPdT4EQDg9nJot64EmQ6kjKj2eYR7cQefngd1TaQBx7CfBT0NoIuKqNlEV2m5bs2lUj0RE4qtHW8Qmto/a9ps2TMKqVxYQGIBTMMf2vlNVd0t9/iJaJCy27eCDXv/9Xvuoq79sJIpKlUVRYh3doev2u9CEF1g3ZC6M1PxFhVKVBoVX40px03naL2jlgqj1835BWQDeBBIEQMxAD77T2/r5ePyPG+VueWMiP8+jQBXajI0eaD/xAOs69GV0hyHMfOz45F4jOg5zH+soQdCs4tGqILtl7dgm54ZTfYGegVv2R94feb9cFbmnlxIBVSm7bcs7ZXLOeI3vpAe62C1796v5nxf157UEhoJSzY4ECXX0U89NPN9cncxrgIAEZJAKREJ4rmUhc1bWfkHJB5FLWPmGwpNLmgXgkll16DAqHLzX2/wv4/E/j6v7NyPreyopl2iHVOxYM9bdPnHLAICIoYt+7v0scBNX0XwB9hKXMSwje155ewkkt59iy9pNs5r5dZYS0CBxGWMdxfGq9yodShDMUFe3bblV6N5zTVJnAQEVmoE2W1YPtQjwiWJWJJQgsebYRHGML/fjy/ydpKlkJalKoXph+Urm1TzxC/JpoDAjyConvLqqWQAuGQYRQQK7YcYfjzb/abO6V6neTb3sCGn5FlUpu12YDaNK4pZBQAgkcmyim3i/CBIEDEgUP/PdofNTx45TXY2ISBCyZLaM3TRprBiwvPJRZ89+Gfxi3W+8dn1AQjPUdrswm4aq1x+WgobM0JiBIaO4W1XKIyIQSpSwDH4eQx2NftMTE79drD059EiTpidloFkIXo9Vj1hAdHgcC1p7RdzUleimkLzezMAMPuiN/2k8+tFQ92/2NV95BvSUKshsGFUqD6lYWwSBPbtD5488d6wqxUH8kXOPOz8L4uW4BYxZsCC7ac3YxjauPCFeBXuJixgWIdYBYG3uxgIIqqfM2OgNo8rXd7NEguTFrSriFo87lhEBosQ6hkUIddT9F3hEZy4CRCRNutKmb1CjPGdblDkfT/yCOmJmBCiTBgBIFoBLRrxw4Op75ebPNwffG5gtc+OLmhmEQfc1WWU2DFpKIocKSaGwuEPXPu78LOihlsju0LWPOj8J7BgJEVFAEEAXyoyt3jCCAIRnsC0BDuyXPsxDbPjJ/OHUVFWQHijVU3+XeWqavjlQuq9XUxBk1fYlLLGLsYnc8g0opb/pIKzMnXK+5WJAEMAo6APUnYhwtcoJZwG4TAQEgAz13qs2fjKq7pSqvMHh41X2SCSFgMyGSScAQBARQkpFk/7Iu30X5oG9SBA3Cd2B87PAnmHdRUsF6YE2Y617KtYBzhbpTW107JgDU7EyVkstVqSQLK3cjF/7CyKQRlUQlYQaJfJx/EGSiXTgU1x0MpdBXvkvkPWjC5Gx84BAiFyiaJUF4NIQYJaU6ux/t99/v6eHN/9qI0gK4BgyI203tB4o0sgOVllZBjfx3aHzC5+WyzD3/siHpWcvKh0XSExP2y1jx1qVhE+XJbz0zfF4kMszP0qOysIrb6LX/35p70nPtiVgMiu+wmkpmczfyXFtaOdBgADF6pu/JF1XhIWbaLeL4Q8Ggw/7xXZxVaNdLh4GRCBDZmTsyJBVmAqBCEUkTL0/cqnoUxjCMoa55/Vo32QnlxqAzdCQOZNp7bPg5ewQ167Up6zyeGlvmjmVfMy6JEQwMIgHQogxC8DlkPIuju2GHv90Y/DBNfZ5fi1EABXqgTYbVvdVqEMaiiJR/CL6WYzLyI7TGIDQxGPT/1S0Y8fWblnV10go8aylfgKS/nne1WCdrH3R4MozfisAQZDTalJf6euQuUAEhFczaq76o7x1IK4841qHLmQBuBwEEECVqrhdDD7qF7vFK43JbhgiQGg2jNk2aqBx4thxSgZwG8PC+5l3EydB/NSnIe/pfAARUIHZ0HZski2l8FnX1VUMRj01MPLYWI09c5qx8/Jxki//WlGij9GvTO5S0SoAHI//zWPKLxsR4cChCX6ZnKOyDcSFkzzjGJizAFwKqSrGbtve/aq6U5qhubmdXy8CFZqxKXesGWkyJOvCeWGJbXRHrv26Zc/uyMU2Iq589iUIIpoNa8ZGVZR8QM9or4AKVaFUodCc6B1LAuA4LGNsIjt+7Uy7iEQXQxNjHZMp9PoHq5AXFYQ2pwEuGYFkvxFmgQPDmVNEmbOCsC5syGWgl4GAeKZK9d6teu/1zPA1zQmuM8JpyJQt3ynN2FKhwiykLTMZkiDdgVv8rY4ddweefRpuIgDALKDRbhk7tqSJgc9e6E0adU/rnlaFepLvTbO3Wg6LEJeBvVDxmnlgiRCW0U99WAbxjHZVKw0CQEglqR6pSsFbFMq7jqSZGS3HJkp8btRa5qJAhNwIdklwEE1Y3S2r+5XqK7jBxZ+nkxpx9VDbLasHmlLDDgIqRI0SxR16kTrW7A5c7OKTfRwBlWTGVg1UcoWTM1vioyHVU6qnqKDYroaLpcKc2EQ/9WEeuI0wOP1yS/LfZ0HC0yNyLHEZ4yKKY1l3gaUpCHDcI1YSvm1qfs0QEAb2wp2sxp9lCbg0sgBcNKk4PQgQFu+U5TsFXftBj68Di7CQJdVTulKkcdU2lWL9XvzUxzqGRfSHXjo5FgBVKDM0ZkOvAjXnyaySRt1XaYZX7FiiIK0cgeIyuEPnJz6NaH8eYeGWwzLEJqqespvrsbcn/mZim0zrAhwfIdYJBlSo+kr1lSrObTWaOReS/Ka6GJsAUfIB4FLJAnDRCICAIFKpyt2yuFWQfVtvYYHVoFp1PM0YAUEBe3EHDgBjHUMdVvs4BgDQfWU3jR5pVdJ5d3ZUkB1bOza6r/x8FVlChcLiF6Hb79r9LizD6QIQpdt3y8/q+vOaKqrercodazetGWnUBAKxid1+1zxs3aEDWE04AAEAJIW6r+2m1X2dWycvHQGIEmr2s8heEP++yq7MS8m380UjAADKkB6aYsua0VuYAAB4snMnQ2bDmg2jCiU+/RGwj+7IA0t0zJ7TQI9UV2NGptgp7MhQcW7XNlUou2nsltVDDXsIKU6DAAixie7QtQ8bd+DYs9LPRoG45fqL+vDfjo7+fYIaBx/0Bx/0Bx/1Bx/07dgwS3fglg/qxWfLbt+loVSQkvkI6cRQ3LKqr3JI+tIR4SBh4d2RY5+rgC6XLAAXjIiAgOorO9aqp+imO/+8CiqouGWLW4UZGT/xwoIKOYgsQroUT3ybo4ACM9LF7cJsGVVRsig5x3uVZLdtccuaDQMIHIREgBAQUVGoefFp3f902fugX94+UXcrwJ67fTf/43zy68nsdzMOXD+o53+cD783GP/jRv+Dvh6q+qt2/qdF83njpz4VfaZsJBLaTVvdKardUt9YG9ebhABECIvoJl48v4Xh0+tEvqEvGk4jBpXd1KoiVG/5/kUVVNwqiluFHuqwCNIJAAADR151Z60j5hIFCPVQFzvWJhOhc7YAp9az4lZR3C50pcLUrwQGgAyKl/pBPf39vLxbIUJ5uzz23YtNdPtd/UXTfNl0Bx23HBfRHTh34NyhH37VFLtF+8gt/rjo9ruYCklTLscLVWS3TXm3LN4pzjURPvN6CEt0MS5CnAcJsvJ8zVwOWQAumDTCVPeUHVtVELyN4Z+TkCW7ae2m0T2FtDLvTe1azzy3EgVJdF/bTaP6GhW+hrEaGSp2it79ym5bN/EiAgxIiAYhcve4m/52qgtFClWpzUgnDeCO/SLEJoqAKhUSosbYxfrLxk388tNlsWNjx+7AsWMyq0azlcupxnK3rO73ylulrrIAXDrRsZ95Pw+xiW/9/unKyQJw0aRiyELpviZLb3PFSJqXYshsGjM2qqeAQHg9v/v57y1IivRQmw2jitcVRgX2lh182O+/13MHzh12zKJs0h5gx+3X3eG/T6giidL/br+4VaiSVKnKd8qNj0cCUH9eusedn/lQR3biD32sY/e4AwAOIgxoCAgkikQhi8VOertKr+Ukc3kIS6xjt9f5+XrUaOYyyQJwwaSadrSkSo363IUuNw7SqIfajIzqaVAvHt8hgBqoIjMyemheO7CLiMWW6X+3N/z+oH3U+qlP4yFhNUmcoovLBzUg+FnY/KkbfG9QvlPooS7vFJv/davYLZd/W84+mc//vIDHLtYxjfx1U5+iVekfSAErAbtpBx/0R/8w6r1bqbfGy+/aIiBRwsw3Dxs/C6Ax99xdNlkALhpZBb7RJPPg06wl3yYQVEF6oMxIq4Lg1BOPgLCoUhVbdlVM+doPNgIVqrhVbHw8coeu2+/ab7rYRTKEGpEwNWHUXzRhGbq9bvDXZf/9XrFbmIFmAFDwZIyBhtS5IM/kImQ1nkwP9OjHw+3/vjn64aDYKXI28rIREXHiJ775ovVTv3JeylwmWQAuBbKkSiL9rfCNSblZu2V1X5NeW+mf+N7CIkH0QNsda7eM7v+9vVR6oAffG/iZbx93wrNur5MoK91ViAixDk0dwjQ0D9vF35bFjtUjo/sKELhld+TYMazHvq8yFk8+LoAAKTQD1btf9d7v2W1Lrx2zypwdAfbsjnz9Re0nngjf+hTalZMF4KIRAQDVJ7NpqHz7k8AJVSm7adIhgAOLwFPKx2mIGNnt5AGn/s7LQobK3WLjJxsSGTUe/vLIHXhphEpAhaCALAlDbGPzVdM+atPh4DijKEHYp0bi088rAMnTgmInfhr9PKi+VubtD+hdLcIS6tgduPqr1s8CUj4BXDpZAC6aVJioEDV8W2xMEFSlii1rNowqSRZrC5c1koajlarYsmasVfV358YRyFJ1pwTZjE4kyOwPi26vk8ip2BQVkgJhYcdccxpNk8bHp+gcWXoyWSw1b4sAwHHbqQDEJtYPalUpERh84Ivbhe5rMkiGQMG34Wz3hmEvfuK6vc4duNhG8xZM0Lv25Et80azdiWPLElhEvg2FbKpSZnsVWw+L+KQWCACSD08QKsgkkaguxk5HVar3bgW4pXtK9fX0t7P2mybWESKAAChISzyaJ67OAKu/oGf8BURkNeqdVikcieIm3i/n7V7XfNWOfjAYfK/fu18VtwqzaVR17jbmzCsQ4CY2D7v2mzZ2MY+CeTNkAbhoEAEx1hwmaQ4i3EwrUJHA3Ma4DGERkosDRwmLEBaBO5bwVOJUD1Rxq9QbWgj8InDHqqCTW2kOjArt2Ji+ppOxFBEJHJsQ5iHMAgCgQm4ZBEId2UXhl60EZKl6pyRCNKrYtvM/zJqHrZ+GsIzcsXBcGZQ+t1tfmZAypNZlZSlZU7BjCSK4coPjLrZ7bVzG5st69kk1+ofh+B83Rj8epi62V2uAgASJTQzz6GcBGFCjRAjzgJbSZbkwq3sBWV3MGBeri0kFrbxWWWKdZrRdzLtdMAISxc/D8q+L+vMGBN5OA5XrRxaACwZX9vTRLyJ3LFFE/11jyq8IRIVoCAtFhRJhRMQoEkkVhBpBPbX8qUoVO6bYKdKYFxChtdebCICAAlVs2WIn2ek89T6oSKWceUkAQAoBQBVEllDTK4uoVE9V9yvVU+UtW+0Wi78u6y+a5uu2O3CcfOjU6W5iKAgKBED1yI6N7msEdBPv5547FpF0gJAg3eOuedgsP61jy2Zs+x/1z5rDQEAFZEiVqCqi1BkeQQKpksim5PMF3RsICJicrqkgVZI8EQCkUqEl1Nf3TuSO/aFb/HXZfNUAAuai2zdCFoBL4Lo+Y2cHFdotO/yozx27I5dGrwhLbGJ5txx82DcbT804Q0IzNMMP+/6/bpY7RWxPnABEJAgRjX+2Ud2rnhrXhaAKKnbs8EcjLFSYOgBARbGLqtK9d6vee9VZakZRodk0w2JQ7hbDH47qB/XyQd183fgjF5YhtsxOJK4HzKY6XY1kSJVKVcpumeJ2YUYGBJqH7fKz5eLTZZgGdowaUSFYQE59y4IEqM9W2ouAGu1OMfrhkD37I7fyTGWITdRDPfrhsNixF5jnJAN20wy/15fI1XsVAJChFNpShRp82K/ulepaNjMzc1iGdq9bfl63ey3qPHThDZEF4KJJU0SiiL+ux+0zQBrL3UI+HtlbRazjSgBEOLAZmep+VWzZZ9ZlVdDggz4ZHH5/yJ6PvdhW5hAKe/eq6m55UgAQUVWqulNu/vO4/51e7GL6Q4lMhsyGKe+WeniGpoE0r3GDzIaxW7bcLXrvV27f+Zn3E++nIayiHysBQEK0qHvaDJUeabtpzaYxfS0s3V43u1Oonqof1O7Qs+dkCEGW7Jat7pbl7UKfeeQkaareKeRno2LXxiYqs7IYYs+qoPKdonqnvKj2AkREQ3bbjj4eFbtFmAcBSF7ZgECa7LYtr6udkXhp97rlZ7Xb77hlNXirW+ivE1kALhoEQIld9IvAXVwtOjcNVGh3Cr1hBh/2n5IxEVRIlsg8+4iipvJeaW/ZVXrguT0yWSRLT7kpIKhSFbuF2bQS1wt0mlaKQIrQ4vNv9HJUT1X3yuK2lSDCEpbRH/mwDNydEACFZFEPtB5o3ddUPKkI4g+l951+9U45/f1s/qdF82XT7bkwC3bb9t6vNj4eDX840P2zPjWosbhV2LEdfX8oLE+uiUjyI7pIsxAENGi2zGig+aO+xHTSWf8QATWiecEotKuFgRuuP6vnn8z9IkL2/3mDZAG4YNLzHObBHbjYMtzQQwACGSSjzpHCRkgT28/3RgRkiSxcVK487e5pHUE2I7FbhjuRcCIERIAaqSCyROqp6n7VA7IVFVjcKqp71fyTxeIvi+brprhdjH4w7H/YL2+X52gKQyBLYOHNDAVFRNQI+g293UXBjt2RX/x1Of/TIjYRzdvePH+dyAJw0SAAQJiHbt+FOr6G4WXmAkGFutJSnvJ3sFplnltqVE/33+8Xt8ree73e/ar3brl8UJux2fh4o7pTXc8Qyg1GIMxD/UW9+Oui+bKRyGRzw92bIwvABZPsaEId/TTEZeC1VVnmysBzN22hQj1QZEo9UL33K3/oUaPdLuyWuaTP+C1FQII0D9uj/2+y/LQOTUSDlLf/b5AsABdNyvIFjnVwR97PvN7Qz08ozFxzkFBVSlWquF2kdAJALk6/YCSKn/rFp4vJryfNN+1qfBBeWGtE5pVkAbhokpMMIXtpvm7ar9tip1A2N47eVI57iVMp1FV/nLeKUMfl583sP+fzT+Zh5lcp8bz6v0GyAFwKpFECp4L0/gcDPcizRG4yx+4RmYtCgAN3j7vJbyazP8zdxAsLZcPtN04WgEsAU8e/LB/Ui8/qzXmw21ZlAchk1ghLmPrl35YH/3I4//MCFF5UP0TmXGQBuBRQY+oqah+2fubZsypz+DiTWcGeF5/Wk19P5n9cuEP3lg9PvcZkAbgUkodMmMfusesedeF+Zfr6WzIbIJN5ORyk23fT382Ofj3t9jr2vHJXzdH/N04WgMthvZvxR272yax8p7BbRp3ZQiCTeWthcY+72e/nh7+azP+0AAFd6bz0XxVZAC6Hdbupn4XZf8777/f77/dIU04FZ77NSJQwD/M/Lg5+cTj/49xNnCpUjv5fIVkALgtEpIJCHeafzIffG4x+PFQ9rXNDQOZbTGxi/Xl9+G+T/V8cdI870rnp94rJAnBpIKDCZKe8+Nty/seFHRvdr676Y2UyV4CwxJaXD5qDX04mv5k2XzYchGy2/blisgBcJska2kP9eTP59bR3v7JbNhc8ZL6FxJabL5rJb6b7//Ng/ucFO0EDqHLb1xWTBeAyEUjxzfZRO/3NdPDRoLhVVHdLtFkAMt8aBEId6i+ag18cHvzicPa7uZ86spBD/9eBLACXCypEhanlffqbabltdU/ZHZsPAZlvBQyxicsHzdGvJ/v/82Dy25k7cIigCpXmPmSuliwAbwJSyF2c/naqe7q4VVCpzFDn9FfmrSc0of6yOfzXw8f/98H0dzN36KggUiiQq/6vBVkA3gSoUUSar5rpf0yq+wUVOPjeQJXZIS7z1iJRwiIsP68nv57u/+Jw+h8zP3EIQAqQ8t7/upAF4E2AGiFCWMbFg3r//z1UlTYjU75TUvaHyLylxGVcfro8/LfJ/v9zMPvPuTvo0gg2kLz6XyOyALwhkJAsccOz38+VVWRw8+fj3ns9MrkUOvNWIVG6fbf48+Lgl0eTf5/M/jj300AaSWG2e7huZAF4IwgAgCoVe+4eu8lvp6lPGDWWt8uVEUomc6MREBbu2B352R9mR/82Ofzl0eJvSz/zpFH1lOS9//UjC8CbQ0BAAVXojtzhr44AJHre+R9b1b0qnwMyNx1h8ctQP2hmv5sd/epo+vtZ+6gNDVNBqFAkb/6vI1kA3iACSIiEsYnuwE1+MwMAVRAHLt+pdC+bomRuJBIlNtwdds0XzeS306NfTRZ/WXaPWw6CCld+D3n1v5ZkAXizpFhQocRIu9cd/moCiGEZN/+L9O739FDnxvjMTUJAgvhFqL9o5n+aT/9jNvn1dPHnOUchS+rY6iev/teVLABXAQEiAoGfh8lvp9xxmMfRx37wQa/YKfLomMyNgB2HeWgfu/pBPf3ddPbJon5Qt4/a2DFqTD4oee9/zckCcBUIAIAulURpv+5iHcMsuEMXphsbPx6VuwUaRI25Wzhz7RCQKBJFWNyRrz+r539aTP9zNvv9rP6iCXVEAt0/0eSYV//rTRaAK4WQDMY6zv407w5d/WXThyptbAAAIABJREFUPeqGPxqWd8tix5pB7hbOXC84ip+4bt+5Q19/Vk9/P1v8ZVF/1YR5EC9kEBWuJt/lpf8mkAXgKkEEtMSewyKkc0BchuabZvDRYPBRv3ev0n1NBZGhPE4yczUIcGD2IoFjw37q68/r5Wd187CtP6/rz+r2URuWEQ2SJaKc771hZAG4ekhT8sUNy3D075Plp8ve+/PRD4ajHw5771XlndLuWFWp7JyeecOICHsOE++OvJuEbq+rv2zmn8wXf112+12oI7AAgOopRMz53ptIFoBrAAISAgMH5pZbx7Fjt++Wny773+0PPuz33+/bW1b3NJWkCkU2ZwgyF42AsEgQCcKe2TM7ji37qW8fts2XTf112z7quv2u2+vckYsNgwgZwhT2yev+zSQLwPVAABDIEGkSlrAI7sgtP10u/rpc/KU/+KBf3SuL24XdsnZszNjogValgjRfEhEgJwsy50ZONOay41jHWMdQx7gIYRHcLLgj1+11zVdt/XlTf9X4qRfPqBEN6tS+nnf9N5wsANeMdQINCYWhO3ShicsHtR5pu2Wq3aJ8pyx2y2Lbmg2jCoUGyRAZepJ8y2ReTFqxmUWisBcJIpHZcVgGPwl+4v00+MOuO3TdofPzEJeRmxibGJoIUdJ8C6R8s70lZAG4ZgggImoEDSDAkd2Rax91iKgqKrZtcauw29ZuWrOhVaGoINVTVCplaVV8nbdjmReDiOm+ih3HJkrH7GL0EpbBT0OY+TALYerdxHdTz45BgDSiRdKEJo/wfdvIAnCNQUCFqlBkJMWI3NT7RcDPaqDVPFUiVEOt+0pVirIAZF5JEoDAsY5+EbiJEkQQQURYhAUEgEV4FZAEkLTff5LmzbxFZAG41iAiKECNICAiEoXd6tie+nEAQRWKSiJLlNPCmVchiCAgzNxxbFk8C0uyqErhnbS3QELSKc7z1iR4sx3dKWQBOIVrZ1srAACIiApBARQAoJ5k8AQAQIJEkHyHZ84IEuq+Bnxyxzwb3nnrTpNy/K/MmiwAT4MrV3OGKMDrP7s2dw0++feTA7kA8LqiI58BMi8n3coIgICYehGf++nbhQAIAouwRJa84j1FvhynICB8nR+F5z8aQQ7QZl6Ta3ynXyjCILIKBOWHZUUWgKdY2xeyCIvkeyWTeTtYjSOT/EQ/TRaAZ0nbf05N7plM5m0hp8ieJwvAKVy7JHAmk/n7SFYXkp/sp8kC8AwIgFFilHjVnySTyVwYIhwlxnVlRyaRBeBZBCAKRwksSiQ3PmYyNx4BYeAgUSBCTgKcIAvAU6yTwDEKM6Cs7NYymcxNJrU5QxSQ7Ft9kiwAz4CrPgAJDCCAAirvFzKZm4xE4AgxQrzW5d1XQRaA02HgwCEKKqR8ZMxkbioCDBIlBgkROBcCPUMWgNNhYCchCJiVx2Ymk7l5pOi/F+fFQ07pPUcWgFNAQBHx4rxgAQU+mXyRyWRuFAjC7JIAgMmbuWfIAvAsuBYAx84LMYgCRMB8eMxkbhSIAAwSITpxQQKAyTu5Z8gC8DwIAAzsJXjxgYMipTCXA2UyN4n17LPo2QcJqbMnL//PkAXgGQSSLy6iAHvxHbcKiZDS4TGfAzKZ68/6aWUv3okLHPI0gFPJAnA6KRAUJbTSGDFKtEKVA4iZzE1BQKLETlzLbQQGyPOSTiELwOkgIAJFdp20FgtDloCyAGQyNwUW9hK62HaxE2TMTZ2nkQXgGRAAQARFIBWQQeik1WyIKE/EzmRuBAwcILTcOOkiBABAAcxhoOfIAnAaCHI8bku4445QG9IESHkfkclcbwQkQuykXXLtxAsIYJp/lnmWLABPkQZgMyITCRIggbBnD9AY1EhUUA4EZTLXGhbupGti08U2SkBABhJEJpScCHiaLADPgRCM8kYxrf5/6iRsuCEkJUrn3uBM5rrCwF58w03DjRcPAAQEAJHQaRXT/i0HgtZkAXgKYgCAttRNZaJWgIgiBCQgDTcAQKBKKg3mlsJM5trBwI5dw3Udl44dIqKsIrpeU1tqrxXmiQAnyALwFCgiCHWvWA6KqOnkIh8lttwhLEQECAyZtLOA3ByQyVwdx1uxKNGJW/KyjnUnjoGPfyQIwdCipzurMD+sJ8gC8BTIIoD1wC6GRdCUbhVc/ytKqOMSQAABBfM5IJO5JqTIT831Mi47bmRVyY2YZsEjOkOLvukswZMKj0wWgKdBEQGY94vpRtUVmhWpuDoxJjsgBm64TcJQUanRpP6AfAjIZN4wx835EaJnV3O9iEsnHYOk1R/SfA+EqLAp9HRo21IT5BzAE7IAPAWxCEHTt4tRWfetM0r7iOtB0mmhD+IbZgBhiSVVBk1uEs5k3jxpQxYlruL+XHfcyYnVHwAEgQmcUXVlFj3rrFJBMI+GX5MF4HkwGFX37GxUNj1Ttl7FJ7dLurFYuI514BBUrFRlwWrUx63C+TSQyVweJzf+QULHbcNNHetU8/P8ViwoWlZm0bOt1RFJS7iCD31dyQJwGgKuUIc7/Z3Hi+GsU1FQnsyHx/XYSAcOGKKEgspUGkRIOSKUyVwSx0v/auMvruW247bjzrEDAEJ66vcFBNBrNRmV01HBOleAPksWgOcQ0TF6o/Z2hzt7i91H88KFlBw+3lsgrArM2th59E5cEF9SaclqNBp0PgpkMhfL8TMVxHvxjl3DTSutZy8izyz9AMn4QURRV6j9repoowCBk6f5DGQBeB4UUJG9VXvvjHa/mTeVKRunGRBEnj1dCqSjADuW6MRZtiWVJZYK9bGDNGQlyGRei5PxnHTs9uIbaTpuPTsvPkhkYTgt8pOq9YLCZWX2tqqDjZIRifOT+BRZAE6BWKKm6bg6uDU42u5VteuH5xb/9TkAABi44+DFe3RBYkQuqDBkFKrUK5CDQpnMa3My2dty23LTSZss/hHx+b3/GmTCZc8cjovDcbGsjPWRcvr3abIAnIYAMIiGo63eg/e3q9oXbdCRT2YCToKAgCQgXkKMS4eulLKC0mKhUScZyBqQyZyd4x09AwcJKeZTc9NxGyUwcHrqXlR9lzo6nVGPt6ovdwd1pbMX6KlkATgdFFERZqPy8/e3tw7q0bQdzBsVThcAWN2vyMAsHCUyxAjBorNUFFScrBHKZDKvREDSRBcvvpPOcefYddwFCeul/0Ub/5Xzc1C06Nmvd/pf7Q46o1XIq/8pZAE4HWIRkWXfPry3cfub2ebB0nahCu5Fh4DVfwUr9wgvPsTQYFtI0YNegYUFq1Dl0ZKZzEt4UuIpMUhw4lppm9g4dgwRnqvzOeUVBABAEJtS72+WX9/uP97qAYhiziYQz5MF4IWgACC6Qn99b2M4a6vaaRdNYBThV5rKCjCwgLTMUaLDrsCipNKQPS4VXf9ivisz33ZOPg4sKebjWm5b6Zy4wH6V6T2Dp3/aojlLB5vVg7ujw3EZNJoAufnrVLIAvAztIwDs3xrYLo4Pm7INo2nzTFvAqSBiCvpHiYFrh51D5yGUkEpF9XGpaCaTSZwM97fctNw6cVEiIb1y459ImzZvaDIsv7o9+PzeaNE3JnAu/nkRWQBeBrEIYtMze7uDTz/aVjG+xzyYtypwGhv/Chk43teIdOB8DB13JZUllc8nBvJRIPOt4sSdDwzCEL34jruW2za2QTwDgwgB0YvD/U9eTVa2P17TdGg/vzv88s7gaKNwhlTMwZ8XkgXgpQgACCPVg+KL97dUFBP4na+nw2mrIoO82lfwuFRUgD2HiCFCiBAChAILA0bRqkYolwllvoUIcBQOEj24jruO25bb47ZexDNN8Fqt/gBeq8nIPtztf3p/+M1OzxmCdVYgcypZAF4KAgIYx0L4+PYgKmTCoOjdeDhYtDowyisOASdfKR1jHbvAocW2pLKkqoDCoElTxrIGZL4lrDy1gAMHJ66TtuWm5S5KFFi19Z4xRppWfxTxRs0G5vO7w7+9u/HFneGy0jpm37dXkAXg1ZAIA0SlJpu9zz4EYkGROw+no2mjw6o54CwW42l9F5EIkYGZOUDw4goqLFqDhtauorlSKPP2cfKuZuAoIcV8Ouk6dl5ckJBmbZwl2bt6TQESYcTOqsmo+Op2/9P7o692+8tKCyJK2qJd4pe66WQBeDWCgCxFG4JRj28PASAqioruIWxMG+MjCACcVQOOb+7AIXBw5I4TA3adGLjMb5PJXCWprdeLd9y1sW2ldexSkQ8hnaswAkUQQBA6qw43ii/vDD67P/ryneGsb01gYoY8/OVVZAE4KyhAUQRhstnjD8kZqiv9nc8Ox5Om6AIxE0MqDz1jUAhWzlaBhT17p1wpZYmrUlEFKueHM28BJ25jZuEgsZOuk7aNrWOXTsNwthLP1QuKHKd8g6a20Pub1YO7wy/uDPa2e3WhiQUZ8t7/LGQBOCuCoCIrBmf1wU6/M9haFRTeeTjdPGx6tbOeKa3UZ7vznioVlRAgBAkBYyHBkk1zZvJpIPMWsDbzCZ69Y9dK20rroosSiejsMZ+Uzk27/kjUFWrRN4fj8qvb/U/vjQ62qrZUKoj1LJhX/zORBeAcCAIIKB+FsBmUX76/NR+YvZ3eu58f7X6z2Jy2VRd0YBJhOlNECFY+QgAAAuLYBQgtt6UqSyqLZCUEal1HlM8BmZvE8fSkCDGIb7ltuU12DmnXn5oiz/GCIijAhN7QsrIHm8XXt3pf7Q73N6tlz3iNKgix5KX/7GQBOCcIikUEgqF6ULRWdVYvKzMbFLuP5tuHzXDpChfVqvwgRYRe+ZJpuoBEiFFihBg5BgkBgyVryWrIiYHMzSNZY6XGrlTq49h59rJO9Z7xrl7XcQoTBk1NoabD4vFW79FO79FOdTCu6kqDgGJRLJAt385DFoBzIwgAogIrRFF6sjNc9O3BuHq8Wd3/anp7v96ctUkGkiUhnLGaLVkbIgiAiy5gcNgVUpRSllglc+lcKpq5/qxG5j1t4OzEBQkikiKf53tBEQBggqbUs4E9GJff3Op/tTs4GJd1ZVBAh5XTZ34wzksWgNfkSX2xVm5QTEGCxnlPP96sdvfrO48X25O2bIOJrFgEQF7VNnyCNGcmehBmDhI8+kKKVCN0csYA5LhQ5npwfDeeDPd30nXcdeyC+AhRRM619KeADwAwodNUV2Zvp/fNrf7ednW4Uc77pi1UJNRBKD8Er0sWgL8DERTRQAAkpZ1vw6xnjjbKyUa57Om6Wm5N2uHSVS4S89kX6hPNw+LYefCenJOulKqg0qA1pBWoS/xemcxrsTZwDo47x00jrWPPEl81ueUU0gZLCIKmujTTgd3fLL98Z/j17uBgXDpDOrCKokO8tG/zrSALwN8NMyCCUmgLEGwZ9hAXPfNop39nb3Hn8XLnqBksfeFYMSMAIwqcKSyUmocFJAq30nkJnXQllaWUlorjOTPpl/NRIPPmecrFEziw76RruOm48+JZWEBSgec52nqToydgUNgWajYsHm1XD28PvrnVn/VtV6iIqCLnFt8LIQvARSCCSEiEWkspDcKyZ2YDs6z0vG+nA3v7sN2cdb3GJ2PC1fb+jI1j64hq4BAlBg6RQpBgqTBoFKhzbawymYslGThHiU6cky6V+qTVP4X7z770JxiBFXVGLXr2cFzubVff3Oo92u4dbZSCqCIrzgYPF0YWgAtCRADEGEAkANV0omh/qzcbFl/v9u/sLe9/s7h90Ixnba8NyUToXKWiCCgoDNxJ56M33FZUlVQWVGrIpaKZN83JEk8vvottw03LbYCQbsLj2UdnfcFViSd4rZY9c7hRfrPT/+Lu8PFWVVc6qLTrX50PLutbffvIAnBBiKz2OkqBtcgCACGGoLEz5Iya9+3huN59XO8eLAdLX7iooxBLKvs5S354ZSUEEiUIsDB78R27kspVqSjS8YYrK0HmMji+u9KuP0jopEvG/Z5dEL+O+Zx140+yulWZ0GtKlj7f7PQf3ertbfWONoq6MkxAUUzkS/1q306yAFwcIkkGxCjGghB1LcgsAEdDOxnag3F5OCqXPX37sNmYd8OlT6WiZ3+HE6Wi0olz4jvovLhSqoIKS0ajhjx8OHOZSPLuh+DEddymiH+af0dnc29+FoRI2JR63rdHo+KbW/0v7gz3tnuLnlYsKrDOW/5LIwvAhSOAKFpJYUEEAdB5JcKIy57+6p3+ZGh3Ju07+8s7e8vtSZsSA+cvFU3vJAFCzbUTX4gtpSypTK6ix6Wi+SiQ+Tt5vsTTsWu47dYTu9Lqf77XPFniadSyZ/Z2eg9v9b7Z6R+NirrSnSVioOzpcMlkAbhoBEAEiNjqdOOiiHYBAjPRvKcmw2I6KuYDu+jZ+f5y56gZLVzVhtQ8jOvXeDknjtgSJUSJAXyQECSUVFq0mjSBwmScconfNvNtQGRV4hlWLp4p7PPExRPxzJ3quHq9laNDXenJsNjf7D3c7X99q7+/WXZGmcA6igkxr/2XDd7+vz6/6s/wNrLeyGOI1DqqO+ycMAsKI6GIjmICjxfduw/nd/dWMlB2keK6VPTMt37afCU9IKCCbEllST2LVuMqMSDHv5vJnJXVTSzCEThI6KRtYpOKfGTVefvk3nv1yx2XeCIGRXWpp0O7t9P7anfw5e5gWWmviYkAVyM3LvGbZdbkE8DlkG5fIlGKV7EgQecpRAKOhJ2hutJtqYLC+cAcHBW7j+udw7Zf+8JH4vScnDU5DMcndGHh5L0VCioLLAxaherkiKUcFMq8nCeZXhARDpLC/V0n7aqt95wlngDJwBkFISpqCzXr273tam+nt79V7W9WR6MyIqgoiiUPcH+TZAG4TJgBUazmlfUVgAAyKxYSMZEFYW+rd7BRfrk7vL+xeO/hfPdgOZ53vTbqwHgee5Pj/DCDdOwc+I67inrHc2ZODhjIZF7OsZlPivk0sWmkCRIAAAEVnq8RPe39hcAbtaz0wUb59U7/s/ujRzu9tlCCoEPU69/MvEmyALwJRCsoLIsQADoPT/oYkRGiUYz44O5w3rf7W+Wdx/Xtw3q4cOXKXHqVBTtXfpiFHXjmpRNnpSikKKgwaI4H0EM+CmSe5sTGnyNEx2lKe+ekCxICBwE5+9gWWBfsp5YXZ6gpdCrx/OZWb2+rNx3aptRMSCyQLZyviCwAl0yqDSUSqwElzQRG8BAFBFDE+lT/g9NRMRsW05GdDotZ39w+bDan3XDhChfonKWiAJD8pR07B67jLlAVKRaqsGiPXUUv7TtnbiTHdT5BgmPfcdtw3XJ7PK/xNe4ZAYiKmlJPh8XhuHi003u4O9jb6s37VkU2gTHk6v6rJAvAGyGt4FpLCQyIDWLncO0Ql+oijGdBWFb6i7uDve1q57C592h579HiuFQ0xUbPXip6PGomQqy5duJKKEssCyzTuDFcJQbyUeDby3rXDwLy/7d3pv1t3ErWrwLQ6I3USi12cjMz3/87PTP3xpa1b1y60QCqnhdoUrTjJKSihZLq/8sLJ5FboizjEFWnTvE80aHltqWmoy7w2u/6YW7xZOwtnpPanu2VX48GJ0eD2+28y1TQKguERCCd3tdGBOBF6KMNFRuDBSCzYgYfMPZ/BxDAREp/Z6Zldl/bJjetNdMyO7yajW6a7bGr2pAFWhioV4wSgjQuQCFiJIgBg8dgtbVgM8gMGEDZMfDRYaYAoeOuo64j59h11AUKiKBQrbjQAvoKPgNA1NhlelJlt1v55W51OqrORuXlXumsyQKZSJmPIBvbNwCxgb4wCIjoA7ZONS06j98nRS+X+5EhC3Hn3v16Ovl0Pj28nm1NuqKNhgj58VZRBLQ6L1VZYrlsFV3+SOF9s/jjJqaUM+jYzXjWUuupS//rcRZPQvQGZ2V2u5Wfjaqvh4OTo3paZUGr+Uf2jQFhE5AbwMuCAAhsNBSWAQARnYcYF6duv/aa0/Y77LLMG+0yfbOVX1yXny+mB9cpXDqq2PeH17OKMgOAiy1RDMrnmOeqyDBbyIDcBt43y0qfsvs9dY5bR67j7hEpnvBQ80FvVFuY+0F+OipPR/XlbnmznY9rSxoV8XxPqrBBiAC8LA95QYYAFKThMMD4414LNTdER4WXu+XtdnGxX90P80k5PrxqdsZ9uPRa76S+WzXDzsfOoSvZ56qwKrcpXBqUaMD7JjV7PQfPnaO2jW07t3jCoyyeABg1pJrP9XZxdlD9+/PW2aiaFVlv8ZStLZuKCMBrkKJDM0OIChCUA4cY4097YopBMZPCaZX9+5fhzZY9uGo+XUyPL2fbY1e6aDwlm9CaUULIwJ49RXLsLNlSlbkqMiVW0XfIdxZPjp67ltqGGk8+cCBIJ/Ta7/oBICrsMt2U5no7PzkcnI2qy91yUmfO6vlM7zO9JuEJEAF4JZhZKcgMQxqSQejgpxqAzFng1B++q+2kzCaVndZ2WtuD62b3tt2auMIFnW4SK++Z6Z8N3HEXog/oKUUJQbnYMyNW0XfDfFA8Bo4du5aallpHLjIBpIvhymE+i80tCnza1zjMb3aKs/3q5LC+2immVYYMJpIJUU7/DUeawK/Hcl5Q47Dp5t7Qn/+lSW/wGQAZTOTChf3b9tP59Jez8cFNU8+C9XFdqyh8/x7fYJarvFRlMbeKLmRArgJvjh8yQiKHjn1a29KRixB/+MiVnvlg8VQu1+M6O92vvxwPTg/qu628y1RU6UeUUTq9bwG5Abwei7wgo6nMVbLodB38yZ5r5D4gKCrVGtXm2lndFGZSZzdXs8PrZufe1bPOelLMSGtECaXDnZg8dEwUOXr0ubK5yjP4bnBMZOCtsLy5JXDw3M3zfNwixTM1e1d8YB/RgxA0OmsmA3u9XVzslWf71cVeeTe0zmpkTnk+z/ayhCdGBOC1SXlBxlAJiAxMyPyDN3SZdLmGCAzgrDo9KG927NlB+fls9ul8epQaA63XtGqyNMwPi9T9ixwjNR04p23BRTlPFRUZeCs8WDznYT6O0qL21pNPJfnH7ZFmBG/UtLQ328XpYXVyWJ+NqnFtvVFIbLsoFcM3hwjAZtB7Q3NiUEph28HfzUmmrH9CdJm53latzdI7sl9Px0dXs3rqc0+aqJcBXOM6zsARoiOX1r3mWOSYW2UzzMQqusn8aPEk79i13HbU+fnmlvX29M5t+4TojXK5uRtk344GXw8HF3vl/cC2uQ5a4fynUXhziABsAIu8oMxAquAzYRcg/o0G6Mg6MgN6rS53iruBvd3KZ4WZltn+bbNz7wazYOcZEiuysIoSUEedh9Ch77Ar+62TdrGAXtg0+ox+Zs++466lNq1tCeDT0b/2G38GBowKU7n/Ziu/2Kt+/zT8dlBPq4wQskAmkPw0vF1EADaGZOU0mvIcGBDcfE74b49vVgRZIASelub//bZ1NipHN+3n8+mvp+PdO1e5qCOl7dvrRQkBIEBgHzl4djnnJVWFKowySipCG8PSlF9f82mpaahx3AWOAIyAamWTD3y/r9EbPSvN5W75n8/D04PqeitvChOM0sQaWJGkObxtRAA2hkVPONOEFgEUAHQe/+4ekO7pOqb+MLaVnZZ2VtpZmU0qc3TZjG7a7Ykr26AjrZsjBPN6AkGMMUZFnn0OucX8hwwJ4bVIPp/IMbBPAc7zDOc4X9S+lsEfFmO90yq73covdouzUfXtcHC9XTSFRoIsko4k20bfAWID3TxwKS9o5nAFDVgmlfsZEYGtp8Pr2S+nk1/OJilDYm4VxbWWbS+/x9eok1W0xHKxbkyuAi/Mzyye3YxmLbUd9yaf5Y9c6Zlzm1myeN4P7Omo+nI8/Ho0uNnOo1K9v1Oy+98RcgPYUFJPmBkQALrv8oL+GmQGBAYMWgWtzvarxuqbrfz4cvb5fLp729YpXDr9bV9tz8yyVZSB0+ZJjylDwlqwBk2aH374+kUMnoEfvsPElMr9HbuHMB9a3+I5X08UtXKZmtT2crf8elSf71c32/n9IO8yrYg10VqrKYTNRwRg81jkBRlNpQUEBFYd/Nl8wB9BBs2kCQDAWX02qq92y6vdclLZT+eTg+tmOO1KF038U7PpT545t4qmakNDjUPn2BVclqrMlypCUhR6bhY1H89pbUvT/lOLJyafz6wwt1v2fL/6ejz4z6fhuLakUEfKu/Dkr0LYBEQANhtjqEAFQOgQUlbEeg9QxKCAFN5sFU1uTkfl4VXzr9Px0dVsMPF512dIQKodrdUbYO6oixwduQKLQhW5/m7rpFwCnpDvWjLzfY0NNWlfYz/YtZbFk+cWTwVeq6Yw98P85LD+eji42C/vB7YP82FW8sf4fhEB2FTmO2TAGCoYGRQzdLBWPwAeUkXRG5xV+aTOxrVtSnM/sAfX7e59O5h2totpehMZAP/+2F7sGkujRoFDxBAgBAhpYsCAEavo07IowQUOjp0j13LrqO2Xdq1s8VzICAAzQtApwLkf6z05rM9H1f3ARoW5IyP7Gt870gTebPpjFDEE1XY4a9F1SPyIXXqMwAqBAZgVQ934w8vZr6eTX8+mu3dt2fiM+rj21afGFjtD0hmUYVaoolRVv4AeJVX0n7Kc6BAhevItt02cOXaBw/L3duXNLf01jxA7o6dVdrlX/ufT4ORocLlbdlYlozAyoCQ6fADkBrDZpOBoTPMBNrXgvtshs/L7bGRQkQkhKuyM6qzyRs3K7HarOL6cHV7NdsZt2QYTaSEDf//MpbpE6g9TpMCh4zxXucUHGXjMaxceyv2hY9/NLZ6efXrjv77Fk9P0uM9wWtrr7eJsVJ+Oqsvd4nYrn5UGAUygVBWU4/8jIAKw8TzskNGEuUqBoA5W9wU9PGmeJKopMkBTZNPSno7q8/3Zb9/Gv56N96+beuatp6XGwEpPVqAAgYEDBB99S22u8kpVhSrT8LBYRVfnjxZPx66hpolNsngirj3T2/9pAgaNrdWToT3br38/Hvz+aXi1UwAAMufdQ3qz/CF9EEQA3g7JF1RYYFa9BhCXun0nAAAYcklEQVT0RtE1n8QAaYwHIRh1sVe0hb7cLY4vp5/Opvu37XDmM09IrHjVVNFlCMixizE6bgsuc1X8YBUVGfgzvkvxBN9Rn+jg2QcIvH7pr58AB4wandX3A3uxV54cD873ytutYlJlpFBxv0xC+GiIALwRlvKCUmNOMfd5QY86TJEBmRQBALS5aUpzu5XfbuXjyn66mB5eNVuTbrkitNIzU3oEYjIpRg6eu8AhcIiqXE4VfcQX/EFYWtrlHfWbW5Ytnut+9wiRFHaZni9qL08O65Ojwf3ABq1MIOtlYePHRQTgTbHICypzQFTo0HWPvgcsMJGYkAGutou7gf12WH+6mP76bXJ4NduadIWLCxkgtUaOECAygOPOx9BSW2BRqHK5PwxyFQCAP9R8PPcWT8fOsyegB9/Vig98sHiqkNz9Q/vtsP56PDgdVcndjwzZmkGBwvtDBOBNscgL0pryVAti7DyER94DEooYgBnRG2zKzGfaWT0ts5vt/OCqjxLKu6jWaQw8pNIzERAxRSTPwYMvVJ6BNaDVmvvH3ytL+xpDx76l1lHbcRc49Cme60W5AQAwYtSqKcz1Vn65W56Pyov96mqnvB9kQaP1tAiGEj4yYgN9m6S8oC5g2+mmRef/+T0gsRgHI4V144/PZ7+djH85m+zcu8p5E3ihFms/GRgAMpUVqqiwzLEwyuoPbBVdWtTOkYOnrqW24VlLvcVz3WrPwr5FCjujpqW92i1+/zT8/dPgfL/0mV5I+OplPeF9IzeANwxnGsASpJ7w02iAIiYFUWFQOCmzbwdVU5jLveLocnZ4Ndu/dVXjTVwsH0ZY2SnEzAzsyTNzwGCVs1AUmFu0i4rQu1eC5Re4SHRw7Fpy3fxdf+TIzKtP0s37twwAUaHP9Li2l7vF2ag636+ud4q7gW2tAQRkThogcW5CQgTgbdJ7Q3/oCXuI//ToZOytoiZGRpxV2bTOLkbl1W5xN7TN2XR03Q5mXd4FHXmtGkJyLjKwZ99R59jl3EVVEVKmsmQVhTXzDN4uBMTMYZ7i2VDTkSOmpIV6zeIYI5DCqFWTm/uhPduvvhwPTo7q6+2CFCKxDUsWzw/xDRZWQgTgTcMAAJkmzAEAFao29YSfakFff8QHhed71aS0F7vVp8vpL2eT/etmOPU2kI6M61hF5/1hIKaWXODosC2oKFRhdW76H8jV9xm/Lfr6PAGlHLeWnKPWc4gQeH2TT9rcwtgv7bob5uf75Zejwdmout3KW6sZIb3ll3K/8FNEAN4yD3lBmgqrgHnhDX2KIi8y6JhWwoKzurV6VppZlU3L7GiQj66b3bGrG5956ovLCLDCsb2IiiOOHceIPmAIEAoIFnOD2XwB/XtjbvEMnn03D/Px5KnPcljNYgV9FSn9Mhh0Vo8re7Odn+9XZ6Pq9KC6H9jOKBPZSKdX+EukCfz2WeQF+aBap9oWnYfwhPcAgKXmcEoL2Bp3h1ez376Njy6nO/eudNFETscSPaI/jKxAZZAVOoVLW4MPWyffdEtgqdNLxNGnsd44a6kNEBh4pQjW7x74sKg9aDUrzdVOcXJYfzkeXO5V08pENf954PVqdMIHRG4Ab59FXlCmCS0AIKPix+QF/QWLakPQ2BUmaOysmpXmeqc4vpge3LQ79876oBaJcusU85k5QuyjhMh3Ks9VblVu0Gh421bR5ez+jpxj11GXmr0pQW/1B8E8qjWleDZ5drOdn++Xpwf1xW55s5XPShO1MpEUic9HWAkRgHfBww4ZQwUoBAbG7jF5QX8NMmehnwi7G9jbYX6xX95s5ePTyeeL6c69K5uQxovWWhibfO4M3FHnIa246kqOaWosVYQWH/OUr+fZSBeXxVhvx52jtomNIxc4pMGu9dz9ALCweGZ6WmXXO8WX48GXo8HpqHJWI7MmNlHGeoU1EAF4R6SrgDEpylehQwcQnmY+4A+fCxCAEWZF9uV4cDe0pwf1p/Pp0eVs77atG29CTDkTnG4nKzxyUS0JHJjIs7eU5yovVGHRAqJ6CxWh+avoX8g8uN957iLHCBHmXZDVngYwH+tdtnh+O6zPDqqbrXxaZT5TANLmFR6DCMD7gpmV4swoYAJWzAjhH84J/5QUMaaJSeGkspPa3myX9wN7P7DHl9PRTbMz7nIXdFyvwp022TJw4OgpeAyefYQQ8SFK6GlfyJPT13woBuhTPFtqPfUpnphe4logRIXBqKYwN8PiYr/8dlB/O6yvtotgFDKbSFoKPsKjEAF4d6QOYWbSOaMQkZ9sTviPpAMIAIKG01F1s1V8PR58Ppv899f70XUzSFZReqxVFKLjNgTv0BWqLFSRq9yg2cDh4e9SPDm03Laxaan14AmIgdfa0g6LpovCqNBl+m5ozw7q//1162y/mlTWZwjYm3zkvb/waEQA3h2LvCBjqAQA7OeEw1P2hBcsr5Z1Vrtct4VymWoKc7jTjG6a/dtmOPG2i2kbyeo3grlVdB4lBDGw9+xzZS1ajWajRsZSuT+kGTdyaWtjCvOBdWo+AA8lpKDR5eZumF/uFhd71fl+ebZfjQdZ0EoTm7BGUKsg/BSxgb5fEAEAQ1CtUzM3z4p4YgFYJh3ujMiIing49UeX0//5cvfpfLozdrmLemnr5NoPB0ZAg6ZUZaWqXBWvnir6Q4pnx11LzSzOHLvIcT2Tz+KZ89TVqNSsNNfbxe+fBv/+Zetyt2yKLJXyxN8pPBVyA3jXzH1BwKAQ5/MBz1ILgoccSmAEb9T9IPN6MKmys/36l/PJ4dVs597lLuh+T/3DbMEqpHPWs2fiwCFnl6s8ycDCKvoyYvBDns/C5JPe9Xv2657+ywFthBCNaorsaqc4HVUnh4PL3eJ+YNtck0JNsAh0E4R/jgjA++Vhh0xGjACoGBA8hOd1Cqr5+U4KJ3V2P7TXO8X9wI5r+/liun3f1jNvO9JrJtEvbKCefICQrKIeQomlBatQrbsl8Z+wtK8xtty23DY066iLFB9h8eyfiRgMtlZPanu9U349qr8cDU4Pqi7TOorFU3gWRADeO6nkkmmCHBAUIkL3rPeABUigmZHBZfrLUX29U/z+afiv0/tfTiej66Zqgo6MaWJALaUb/PUz5x3iyLGJTUedw7ZUVanLDDPFSqW29/NcAvr3/swMHDE6dk1sGmo8d6lXsVand2Hx5FTzMep+kJ2Pqt+PhyeHg/vaNrkmRBMYk5YLwlMjAvDeWfSE55lxChjBP1Ve0F+AwMigIpPCpsxmVTauszZXkyq7G+Sjm2Zr0lVtMIH67ALuM3H+7rEP4QqBQkSKQAFCwUWG2XJF6MnpLZ4QPfmOu5baltuOXOS4Vo4bLrrxCHGxr3GYn++Xp4f1yUF9vV1EjYql0ys8L9IE/jAkD7oP2Dr90BN+9ntAYlHrJ4XWx5179+vp5L9OxgfXzXDSZYE0ERI8YgF9ujko0BnaUpWlLq3Kl4eHn2IGoh/rZaBAoaW2paaJTYDAQI/oqidDFGG/qP1umJ+O6v/7dfhtVI+HNipcbGqUcr/wrMgN4GPBRkORE4BCwHaeF/T8GpAOMlIQlWoKFZXymR4P8oOr5vBqdnA925q4oiPkh+LNqntmevd9YGAmCtBZyq3KM7RGZfohVfS74syf1Yh++jEpziFw6Mh17DruOur3NabfsOpY7/xzIkBU2OTmZjs/368v9suLvfJqp5hWmddKESuQTq/wEogAfBge8oLSPmFQNM8LeikUQU6RAVjh1U5xtV2c7lfHF8X/fDXHF9OdsStc1JHX2lTeW+wRCKjltoudAVfoolBFDrlBo1ApUDjvyq5yWC8cPgREQETRs08Vf0cu5dalx677HUibW4LWs9Jcb+dfj4f//rx1vl9Oy0wRa+IiRniPmxCEzUQE4EOSGUrHpnKqhZesBQEAAjCDIiCESZ191YPxwH47qD6fT48vZ7u3rnBhMTEAsKpVtB8cA/LgiciRyzDLVGaVzdBmYDSav23SPhz9TCnC0ye7Efnk7+zHetct9/eP7QOcL/fK04Pq5GBwtVNM6ixFuSmWVV3CSyMC8MF42CFjqGCVbgWpH/Ai7zvnhzrryBqAFE6rbFJn9wM7rvNxbY+r2d5dO5h2eZcGx9ZYD7awigYKAbzHzrDpOAlAZlBr1DhfQ/9DKA/z3NwJxEyRKXAIcwEIFGge57D6G//F85PFs8nN/SC/2i1ODgbfDuvLvcJZk/b0ZpGWvz+C8DJIE/hDstghk+aEG4dtB5Ff8h6Q6IeHAQFAEZdt3L1vf/s2/uVscnDd1I03gdR8/8kaj+39RAgAiJg+gUKt0z+QfqFwyY9DzBFi5Bg5EsfAMZX4AYD7DQfrTfamzS0MQEr5TN0P7Nl+9fun4cnh4G5gnVWp3Y1S7hdeD7kBfEjSQZ/6AUUODMiguufKC/oLFhUSUthZ3WXa5arL9d0wP76cHl7N9u7aqg3GP6w2XKVQsjipUzGHmdMaFcVKoVKgVX8PeIABUuhQWt1FzOnEV9D7O9ft9AJAelHjKrvaKc9G1dmovtgt74bWGwXAJrASi6fwqogAfFQYgGmhAZji/Zkx5QW9LAigiRVFAAhGnRwMLnfK01H1r9Pxb9+SVdRbH01Mpvg13jEvWsQLIlMEQv5xWGw54AFB6cdLYLJ4qmCwzfXdMD8bVf/7eevbYX03zFmhCZT5tBVAEF4ZEYAPDyJkmtESskKce0P55beyz2v9DEDe4N1W7q262i0Orprji9nn8+n22OU+Jg1Iv+XRbdM/2kD/4fDwssWTFDa5vtopTw7qs8PqcrcY13ZWGFIp8EeavcKmIALwsWFOO2QgMwBAAMCMHWOg1/qKFEFOxAjB4NVOcbVTXG2Xd4PcWXV8qbfHXeHmWycfdWI/X4g0IwSNwZhZZa638q+Hg39/3jo/qCZVpiOZyLknkDavsEmIAAhza9DDjBgCd9h7Q1/h3WpvmSQ2gRhxVuovn+q7oT25aX45nx5dzPZu28oFHWjRw32VU3XRZ0j/EoyeVNnlXvHtoD45rK+3i2ltOqPmciX1fmHjEAEQlvKCtIbcEoNiBucxvto9AACQQUcG4KhxVmZtbmZlNq2yu4E9upyNbtqtSRocI7Xm8PBTfXnps5ECb3RTmNut/GK3PD2ozver6+28zQ0j6Mj6Vb+NgvAXiAAIc4gAkW3GiAyoAcG95j1gwSJfelqaaTk83yu/Hda/nYw/n01HN03d+MzHVBF6xJ6Zx5H2oDFC1Kqz+n5gz/eqL58GX44Gt0PrrFbcn/ti8RQ2GREA4Q8YzYUlIAW8lBn3ahqw2DMDCFGpWZmdK3SZvt4uDq+b44vpwVVTz7osrGcVffRXAvPlLV2m74f56ag6G1UXe9X1dj6ubWcVA6gIkuIpbD4iAMISfV6Qgsww5Gn2SvVzwq9MqgjpGBnBZfrbqL7aLi72yvs6a63uraIh6kjP/aabFAatnDV3w/z0oPq/X7e+jer7OiOtNJEJz/4FCMJTIQIg/JG0Q8YAAjMQomq7V78HLEAGBQzMUau7Qe7+S5/vl0eXs8/n08/n061Jl/moloIV/nldaJFKBAApwPl6p/h6OPh2WF/slZPKOqsBURHJtl7hbSECIPyBRU/YGCpAATPPa0GbATLoSIzYZarJ87uBHdd2UttZmR1cN1tjV89C3gVN/dn9UERa/VMAwMKyiUCIQavWmmmd3W4Vp6Pqy3F9vldOKosAOpIien1tFIQ1EQEQ/oR+l2RGgIyoATahH7AMMmtiRQgA48o2n835XjW6aT6fTz6fT/dv26INJvYWTPxh2dgfnKPfeTrn/58RSSGj6jI1K7Oz/fLbYX1yOLjZLtpcRVRZIFxpj5kgbCIiAMKfkA56BDaawQKzQlBt6OeEATZBBpBTmQqixjbXnVXOqmlpbraL/dt2595t37utaVe2IfM0T5b+q/N6fktABiQFXaZnhbkf2Lut/HYrv9gprneKu2Hucs0AmlhHqfgIbxgRAOHPme+QgcwQAiAiO3T8AvuE1wIBTGQAZoQmN7OD7HyvGjR+/6Y9vpweX8y2x650IdlJ+39+VqxnBEIkpUghKewyPanM9XZxsV+d75fXO3mTm6jUfFXva7xUQXhSRACEvyNpgDacY2RQCOr18oL+GmRABFIQlBqrzBt1u2X/83lYNb5uwnDm65kvGp/7mAXWkRTNXwIzKRUMdkY5q9sym9T2vs6mRdYUpilMm+vO6qgQGKTTK7wbRACEFWAGpdgaACZgJMaON6cnvEw/NYbAALPCjGsbFRqi0sXtsRtOuqrxeRetZxOjIu5D+ZmjUsEol6m2MLMyuxvacW1dpkmhJkqPNUEOfuFdIQIgrAY/eEMjokJUbkPvAQD9ihkFgJEUAQIEjTdb+X1tFTESKOhXTj4YPBEZgBAJkTSSQkLQkTRBMpXKu37h/SECIKzGkjeUi/7gVB1DoKVDdLNItZq0v5ERvFadQUbgNBzwwxfM898yT3pQzHqd9fSC8OYQARDWgQgQwWRUpmBlRp57QzdQAZZABs28sHn+xAmUBOCFvyxBeFVEAIT1QQBjuABiUIDoNmhOeEXmdlBB+NCIAAhrkryhSnGWEQMAK2bsNmhOWBCEFREBEB7FvCdMiICIarPyggRBWAURAOFRPPSENRVWpYmx5AsSBOGNIAIg/APSDpksI0BAUMAPc8JyDxCEjUcEQHgC2GgqcmBA2Oz5AEEQlhABEP4Z87wgNpryVAtKc8IRYNO9oYLwwREBEJ4EBkiZcQipKyz3AEHYeEQAhKeAAYBZKcgMAagkCA6kJywIm4wIgPB09N5QTWABUk+YILLcAwRhMxEBEJ4OZkAATLskEQAUIHbdJucFCcJHRgRAeFIYgJM3dH4PYEZOM2IgCiAIG4UIgPAccK8BaAFYKUSZExaEzUMEQHgGOO2QQc4MAQCCYkIXJC9IEDYKEQDh2WAAADaGCgBGBe4t5oYKwjtGBEB4NpZ2yFAB0PuCJDdUEDYFEQDhmSECBLaGEBlRA/QaIPcAQXhtRACEF4KNgsIS0xvdISMI7w8RAOH5ST3hlBdUFIAotSBB2AREAISXJXlDGRAQXYdyDxCE10MEQHgpUlCEUmAMFYAAihk6j3IPEIRXQgRAeFmYAIAzAwCEoBBB7gGC8EqIAAgvS9oRgMBGA2TMDMDoQp8dDSAyIAgvhgiA8OIsesKZIUSFSODQcX8PEAThpRABEF6JVPPR/U55QMBWdsgIwosiAiC8HsyMCMZwAQBMxNix9IQF4cUQARBeHzIai1whAiI4j3IPEIQXQQRAeFUe8oKQkjEUGDrGIPcAQXh2RACEDYCo7wkDIKICAPbiDRWE50YEQNgM5lkRAJaYl3ZJigYIwnMhAiBsDHNvKDAwIzMge4jxtb8sQXi3iAAIm0dmGIGQEeFhPkDuAYLw1IgACJvEPC+IjcECEFAB9L4gQRCeGhEAYfOgpbwgYAUMcg8QhGdABEDYXNhoKHIGBEB0MicsCE+MCICwqfS+IEMFKABiwI5lRkwQnhARAGGTYUAEY6hABQB9drRogCA8DSIAwgbDAMCsEDLNYPv/5EB6woLwJIgACBsPMQCQMZjuAQDSExaEJ0EEQHgjqLRTPk8agF0HQXbICMI/QgRAeCP0eUGawCIAMCOD7JARhH+CCIDwdljkBRWWAJRCbDuQWpAgPBYRAOFNscgLQmAEZsYuQJCesCA8BhEA4U3CxlAOwIDgkKUnLAiPQQRAeGssdsik/QEAigG6TnZJCsK6iAAIbxMiwJQXhISoEGSXpCCsiwiA8GZhAAQ2CjBL6+WhBckLEoTVEQEQ3jKLvKASAEExY8cQYi8OgiD8JSIAwrtAG8oRGBAQWfKCBGElRACEN858hwzMZ8QUM3QgPWFB+FtEAIR3QdohYwwUwAiAAK7DSMASFCEIf4oIgPBewNQT1gRWMQPAww4ZEBkQhJ8gAiC8F/j7HTKoCABTdrTEBQnCzxABEN4XqfdrNCEgkELABiQvSBB+igiA8O5IQwFGQ54zA0VGH6QnLAh/RARAeJcwAHCmCKwChJkD1yHJPUAQvkMEQHiPpKK/UmyQClDMAAydl3uAICwjAiC8X4hTXhABIKICAOflHiAIC0QAhHcNAyCyNpAjMSsA7Lz0hAUhIQIgvHeYQSFbDZj3TlHwECUvSBBEAIQPAQMAGM1FTgDYADqWWpAgiAAIHwAGAGCFnGmEHAEUgPSEBUEEQPgwEAMAWw1oKWlA7w2VoAjhgyICIHwkEFJWBJTAAIDLeUEoHQHhoyECIHwk+LsdMgqBeJ4XJD1h4eMhAiB8SBDBGCpQpV/LPmHhQyICIHw8+h0yCEazzSAS+gAEEhoqfDT+P7fZ2zfqdca2AAAAAElFTkSuQmCC;" vertex="1" parent="MoJ-YKAXfjhUIpLR4al3-1"><mxGeometry x="-56.5" y="331.85" width="81" height="81" as="geometry"/></mxCell><mxCell id="0ayYojwQcvTGPDUYHFci-6" value="Sensors" style="text;html=1;resizable=0;autosize=1;align=center;verticalAlign=middle;points=[];fillColor=none;strokeColor=none;rounded=0;fillStyle=auto;" vertex="1" parent="MoJ-YKAXfjhUIpLR4al3-1"><mxGeometry x="-512" y="292" width="62" height="26" as="geometry"/></mxCell><mxCell id="0ayYojwQcvTGPDUYHFci-8" value="MQTT BROKER" style="text;html=1;resizable=0;autosize=1;align=center;verticalAlign=middle;points=[];fillColor=none;strokeColor=none;rounded=0;fillStyle=auto;" vertex="1" parent="MoJ-YKAXfjhUIpLR4al3-1"><mxGeometry x="-60" y="282.5" width="106" height="26" as="geometry"/></mxCell><mxCell id="xsfxkohRiaNYwhzO0Onx-0" style="edgeStyle=orthogonalEdgeStyle;rounded=1;orthogonalLoop=1;jettySize=auto;html=1;strokeWidth=3;fillColor=#0050ef;strokeColor=#001DBC;shape=link;" edge="1" parent="MoJ-YKAXfjhUIpLR4al3-1" source="UPwPihR9U3PeY4CjQXII-0" target="AAcZ-q7HfI9-OeqjXcIQ-0"><mxGeometry relative="1" as="geometry"/></mxCell><mxCell id="UPwPihR9U3PeY4CjQXII-0" value="api" style="rounded=0;whiteSpace=wrap;html=1;" vertex="1" parent="MoJ-YKAXfjhUIpLR4al3-1"><mxGeometry x="40" y="498" width="120" height="60" as="geometry"/></mxCell><mxCell id="xsfxkohRiaNYwhzO0Onx-13" style="edgeStyle=orthogonalEdgeStyle;rounded=1;orthogonalLoop=1;jettySize=auto;html=1;entryX=0.5;entryY=1;entryDx=0;entryDy=0;strokeWidth=3;fillColor=#0050ef;strokeColor=#001DBC;" edge="1" parent="MoJ-YKAXfjhUIpLR4al3-1" source="AAcZ-q7HfI9-OeqjXcIQ-0" target="t65IUd-lonqh68D3Nb9Z-1"><mxGeometry relative="1" as="geometry"/></mxCell><mxCell id="AAcZ-q7HfI9-OeqjXcIQ-0" value="" style="shape=cylinder3;whiteSpace=wrap;html=1;boundedLbl=1;backgroundOutline=1;size=15;" vertex="1" parent="MoJ-YKAXfjhUIpLR4al3-1"><mxGeometry x="283" y="583" width="60" height="80" as="geometry"/></mxCell><mxCell id="AAcZ-q7HfI9-OeqjXcIQ-1" value="" style="shape=image;verticalLabelPosition=bottom;labelBackgroundColor=#ffffff;verticalAlign=top;aspect=fixed;imageAspect=0;image=https://upload.wikimedia.org/wikipedia/commons/thumb/2/29/Postgresql_elephant.svg/1200px-Postgresql_elephant.svg.png;" vertex="1" parent="MoJ-YKAXfjhUIpLR4al3-1"><mxGeometry x="298.46000000000004" y="617" width="29.07" height="30" as="geometry"/></mxCell><mxCell id="xsfxkohRiaNYwhzO0Onx-4" style="edgeStyle=orthogonalEdgeStyle;rounded=1;orthogonalLoop=1;jettySize=auto;html=1;strokeWidth=3;endSize=6;fillColor=#0050ef;strokeColor=#001DBC;" edge="1" parent="MoJ-YKAXfjhUIpLR4al3-1" source="AAcZ-q7HfI9-OeqjXcIQ-3" target="MoJ-YKAXfjhUIpLR4al3-34"><mxGeometry relative="1" as="geometry"/></mxCell><mxCell id="AAcZ-q7HfI9-OeqjXcIQ-3" value="Notificatication" style="rounded=0;whiteSpace=wrap;html=1;" vertex="1" parent="MoJ-YKAXfjhUIpLR4al3-1"><mxGeometry x="203.39" y="127" width="120" height="60" as="geometry"/></mxCell><mxCell id="xsfxkohRiaNYwhzO0Onx-10" style="edgeStyle=orthogonalEdgeStyle;shape=link;rounded=1;orthogonalLoop=1;jettySize=auto;html=1;strokeWidth=3;fillColor=#0050ef;strokeColor=#001DBC;" edge="1" parent="MoJ-YKAXfjhUIpLR4al3-1" source="_lhErAnkib25VCGGUWqE-0" target="t65IUd-lonqh68D3Nb9Z-0"><mxGeometry relative="1" as="geometry"/></mxCell><mxCell id="_lhErAnkib25VCGGUWqE-0" value="Message Queue" style="rounded=0;whiteSpace=wrap;html=1;" vertex="1" parent="MoJ-YKAXfjhUIpLR4al3-1"><mxGeometry x="210" y="392" width="120" height="63.5" as="geometry"/></mxCell><mxCell id="t65IUd-lonqh68D3Nb9Z-0" value="Sensor Service" style="rounded=0;whiteSpace=wrap;html=1;" vertex="1" parent="MoJ-YKAXfjhUIpLR4al3-1"><mxGeometry x="459" y="282.5" width="120" height="60" as="geometry"/></mxCell><mxCell id="xsfxkohRiaNYwhzO0Onx-14" style="edgeStyle=orthogonalEdgeStyle;rounded=1;orthogonalLoop=1;jettySize=auto;html=1;entryX=1;entryY=1;entryDx=0;entryDy=0;strokeWidth=3;fillColor=#0050ef;strokeColor=#001DBC;" edge="1" parent="MoJ-YKAXfjhUIpLR4al3-1" source="t65IUd-lonqh68D3Nb9Z-1" target="_lhErAnkib25VCGGUWqE-0"><mxGeometry relative="1" as="geometry"/></mxCell><mxCell id="t65IUd-lonqh68D3Nb9Z-1" value="cron-jobs" style="rounded=0;whiteSpace=wrap;html=1;" vertex="1" parent="MoJ-YKAXfjhUIpLR4al3-1"><mxGeometry x="432" y="523" width="120" height="60" as="geometry"/></mxCell></root></mxGraphModel></diagram><diagram id="NpZaGxv8-uCla66ZIFVP" name="Schema"><mxGraphModel dx="2131" dy="443" grid="0" gridSize="10" guides="1" tooltips="1" connect="1" arrows="1" fold="1" page="0" pageScale="1" pageWidth="850" pageHeight="1100" math="0" shadow="0"><root><mxCell id="0"/><mxCell id="1" parent="0"/><mxCell id="ZE2wqM35r_SoHQTAhyVK-1" value="CROPS" style="shape=table;startSize=30;container=1;collapsible=1;childLayout=tableLayout;fixedRows=1;rowLines=0;fontStyle=1;align=center;resizeLast=1;" vertex="1" parent="1"><mxGeometry x="-690" y="149" width="220" height="280" as="geometry"/></mxCell><mxCell id="ZE2wqM35r_SoHQTAhyVK-2" value="" style="shape=tableRow;horizontal=0;startSize=0;swimlaneHead=0;swimlaneBody=0;fillColor=none;collapsible=0;dropTarget=0;points=[[0,0.5],[1,0.5]];portConstraint=eastwest;top=0;left=0;right=0;bottom=1;" vertex="1" parent="ZE2wqM35r_SoHQTAhyVK-1"><mxGeometry y="30" width="220" height="30" as="geometry"/></mxCell><mxCell id="ZE2wqM35r_SoHQTAhyVK-3" value="PK" style="shape=partialRectangle;overflow=hidden;connectable=0;fillColor=none;top=0;left=0;bottom=0;right=0;fontStyle=1;" vertex="1" parent="ZE2wqM35r_SoHQTAhyVK-2"><mxGeometry width="30" height="30" as="geometry"><mxRectangle width="30" height="30" as="alternateBounds"/></mxGeometry></mxCell><mxCell id="ZE2wqM35r_SoHQTAhyVK-4" value="id   BIGINT NOT NULL" style="shape=partialRectangle;overflow=hidden;connectable=0;fillColor=none;align=left;top=0;left=0;bottom=0;right=0;spacingLeft=6;fontStyle=5;" vertex="1" parent="ZE2wqM35r_SoHQTAhyVK-2"><mxGeometry x="30" width="190" height="30" as="geometry"><mxRectangle width="190" height="30" as="alternateBounds"/></mxGeometry></mxCell><mxCell id="ZE2wqM35r_SoHQTAhyVK-5" value="" style="shape=tableRow;horizontal=0;startSize=0;swimlaneHead=0;swimlaneBody=0;fillColor=none;collapsible=0;dropTarget=0;points=[[0,0.5],[1,0.5]];portConstraint=eastwest;top=0;left=0;right=0;bottom=0;" vertex="1" parent="ZE2wqM35r_SoHQTAhyVK-1"><mxGeometry y="60" width="220" height="30" as="geometry"/></mxCell><mxCell id="ZE2wqM35r_SoHQTAhyVK-6" value="" style="shape=partialRectangle;overflow=hidden;connectable=0;fillColor=none;top=0;left=0;bottom=0;right=0;" vertex="1" parent="ZE2wqM35r_SoHQTAhyVK-5"><mxGeometry width="30" height="30" as="geometry"><mxRectangle width="30" height="30" as="alternateBounds"/></mxGeometry></mxCell><mxCell id="ZE2wqM35r_SoHQTAhyVK-7" value="ideal_moisture_content         TEXT" style="shape=partialRectangle;overflow=hidden;connectable=0;fillColor=none;align=left;top=0;left=0;bottom=0;right=0;spacingLeft=6;" vertex="1" parent="ZE2wqM35r_SoHQTAhyVK-5"><mxGeometry x="30" width="190" height="30" as="geometry"><mxRectangle width="190" height="30" as="alternateBounds"/></mxGeometry></mxCell><mxCell id="ZE2wqM35r_SoHQTAhyVK-8" value="" style="shape=tableRow;horizontal=0;startSize=0;swimlaneHead=0;swimlaneBody=0;fillColor=none;collapsible=0;dropTarget=0;points=[[0,0.5],[1,0.5]];portConstraint=eastwest;top=0;left=0;right=0;bottom=0;" vertex="1" parent="ZE2wqM35r_SoHQTAhyVK-1"><mxGeometry y="90" width="220" height="30" as="geometry"/></mxCell><mxCell id="ZE2wqM35r_SoHQTAhyVK-9" value="" style="shape=partialRectangle;overflow=hidden;connectable=0;fillColor=none;top=0;left=0;bottom=0;right=0;" vertex="1" parent="ZE2wqM35r_SoHQTAhyVK-8"><mxGeometry width="30" height="30" as="geometry"><mxRectangle width="30" height="30" as="alternateBounds"/></mxGeometry></mxCell><mxCell id="ZE2wqM35r_SoHQTAhyVK-10" value="crop_type         TEXT UNIQUE" style="shape=partialRectangle;overflow=hidden;connectable=0;fillColor=none;align=left;top=0;left=0;bottom=0;right=0;spacingLeft=6;" vertex="1" parent="ZE2wqM35r_SoHQTAhyVK-8"><mxGeometry x="30" width="190" height="30" as="geometry"><mxRectangle width="190" height="30" as="alternateBounds"/></mxGeometry></mxCell><mxCell id="ZE2wqM35r_SoHQTAhyVK-11" value="" style="shape=tableRow;horizontal=0;startSize=0;swimlaneHead=0;swimlaneBody=0;fillColor=none;collapsible=0;dropTarget=0;points=[[0,0.5],[1,0.5]];portConstraint=eastwest;top=0;left=0;right=0;bottom=0;" vertex="1" parent="ZE2wqM35r_SoHQTAhyVK-1"><mxGeometry y="120" width="220" height="30" as="geometry"/></mxCell><mxCell id="ZE2wqM35r_SoHQTAhyVK-12" value="" style="shape=partialRectangle;overflow=hidden;connectable=0;fillColor=none;top=0;left=0;bottom=0;right=0;" vertex="1" parent="ZE2wqM35r_SoHQTAhyVK-11"><mxGeometry width="30" height="30" as="geometry"><mxRectangle width="30" height="30" as="alternateBounds"/></mxGeometry></mxCell><mxCell id="ZE2wqM35r_SoHQTAhyVK-13" value="created_at  TIMESTAMP" style="shape=partialRectangle;overflow=hidden;connectable=0;fillColor=none;align=left;top=0;left=0;bottom=0;right=0;spacingLeft=6;" vertex="1" parent="ZE2wqM35r_SoHQTAhyVK-11"><mxGeometry x="30" width="190" height="30" as="geometry"><mxRectangle width="190" height="30" as="alternateBounds"/></mxGeometry></mxCell><mxCell id="ZE2wqM35r_SoHQTAhyVK-14" value="" style="shape=tableRow;horizontal=0;startSize=0;swimlaneHead=0;swimlaneBody=0;fillColor=none;collapsible=0;dropTarget=0;points=[[0,0.5],[1,0.5]];portConstraint=eastwest;top=0;left=0;right=0;bottom=0;" vertex="1" parent="ZE2wqM35r_SoHQTAhyVK-1"><mxGeometry y="150" width="220" height="30" as="geometry"/></mxCell><mxCell id="ZE2wqM35r_SoHQTAhyVK-15" value="" style="shape=partialRectangle;overflow=hidden;connectable=0;fillColor=none;top=0;left=0;bottom=0;right=0;" vertex="1" parent="ZE2wqM35r_SoHQTAhyVK-14"><mxGeometry width="30" height="30" as="geometry"><mxRectangle width="30" height="30" as="alternateBounds"/></mxGeometry></mxCell><mxCell id="ZE2wqM35r_SoHQTAhyVK-16" value="updated_at  TIMESTAMP" style="shape=partialRectangle;overflow=hidden;connectable=0;fillColor=none;align=left;top=0;left=0;bottom=0;right=0;spacingLeft=6;" vertex="1" parent="ZE2wqM35r_SoHQTAhyVK-14"><mxGeometry x="30" width="190" height="30" as="geometry"><mxRectangle width="190" height="30" as="alternateBounds"/></mxGeometry></mxCell><mxCell id="ZE2wqM35r_SoHQTAhyVK-17" value="" style="shape=tableRow;horizontal=0;startSize=0;swimlaneHead=0;swimlaneBody=0;fillColor=none;collapsible=0;dropTarget=0;points=[[0,0.5],[1,0.5]];portConstraint=eastwest;top=0;left=0;right=0;bottom=0;" vertex="1" parent="ZE2wqM35r_SoHQTAhyVK-1"><mxGeometry y="180" width="220" height="30" as="geometry"/></mxCell><mxCell id="ZE2wqM35r_SoHQTAhyVK-18" value="" style="shape=partialRectangle;overflow=hidden;connectable=0;fillColor=none;top=0;left=0;bottom=0;right=0;" vertex="1" parent="ZE2wqM35r_SoHQTAhyVK-17"><mxGeometry width="30" height="30" as="geometry"><mxRectangle width="30" height="30" as="alternateBounds"/></mxGeometry></mxCell><mxCell id="ZE2wqM35r_SoHQTAhyVK-19" value="" style="shape=partialRectangle;overflow=hidden;connectable=0;fillColor=none;align=left;top=0;left=0;bottom=0;right=0;spacingLeft=6;" vertex="1" parent="ZE2wqM35r_SoHQTAhyVK-17"><mxGeometry x="30" width="190" height="30" as="geometry"><mxRectangle width="190" height="30" as="alternateBounds"/></mxGeometry></mxCell><mxCell id="ZE2wqM35r_SoHQTAhyVK-20" value="" style="shape=tableRow;horizontal=0;startSize=0;swimlaneHead=0;swimlaneBody=0;fillColor=none;collapsible=0;dropTarget=0;points=[[0,0.5],[1,0.5]];portConstraint=eastwest;top=0;left=0;right=0;bottom=0;" vertex="1" parent="ZE2wqM35r_SoHQTAhyVK-1"><mxGeometry y="210" width="220" height="30" as="geometry"/></mxCell><mxCell id="ZE2wqM35r_SoHQTAhyVK-21" value="" style="shape=partialRectangle;overflow=hidden;connectable=0;fillColor=none;top=0;left=0;bottom=0;right=0;" vertex="1" parent="ZE2wqM35r_SoHQTAhyVK-20"><mxGeometry width="30" height="30" as="geometry"><mxRectangle width="30" height="30" as="alternateBounds"/></mxGeometry></mxCell><mxCell id="ZE2wqM35r_SoHQTAhyVK-22" value="UNIQUE (crop_type)" style="shape=partialRectangle;overflow=hidden;connectable=0;fillColor=none;align=left;top=0;left=0;bottom=0;right=0;spacingLeft=6;" vertex="1" parent="ZE2wqM35r_SoHQTAhyVK-20"><mxGeometry x="30" width="190" height="30" as="geometry"><mxRectangle width="190" height="30" as="alternateBounds"/></mxGeometry></mxCell><mxCell id="ZE2wqM35r_SoHQTAhyVK-23" value="" style="shape=tableRow;horizontal=0;startSize=0;swimlaneHead=0;swimlaneBody=0;fillColor=none;collapsible=0;dropTarget=0;points=[[0,0.5],[1,0.5]];portConstraint=eastwest;top=0;left=0;right=0;bottom=0;" vertex="1" parent="ZE2wqM35r_SoHQTAhyVK-1"><mxGeometry y="240" width="220" height="30" as="geometry"/></mxCell><mxCell id="ZE2wqM35r_SoHQTAhyVK-24" value="" style="shape=partialRectangle;overflow=hidden;connectable=0;fillColor=none;top=0;left=0;bottom=0;right=0;" vertex="1" parent="ZE2wqM35r_SoHQTAhyVK-23"><mxGeometry width="30" height="30" as="geometry"><mxRectangle width="30" height="30" as="alternateBounds"/></mxGeometry></mxCell><mxCell id="ZE2wqM35r_SoHQTAhyVK-25" value="" style="shape=partialRectangle;overflow=hidden;connectable=0;fillColor=none;align=left;top=0;left=0;bottom=0;right=0;spacingLeft=6;" vertex="1" parent="ZE2wqM35r_SoHQTAhyVK-23"><mxGeometry x="30" width="190" height="30" as="geometry"><mxRectangle width="190" height="30" as="alternateBounds"/></mxGeometry></mxCell><mxCell id="ZE2wqM35r_SoHQTAhyVK-26" value="SENSORS" style="shape=table;startSize=30;container=1;collapsible=1;childLayout=tableLayout;fixedRows=1;rowLines=0;fontStyle=1;align=center;resizeLast=1;" vertex="1" parent="1"><mxGeometry x="-670" y="560" width="190" height="190" as="geometry"/></mxCell><mxCell id="ZE2wqM35r_SoHQTAhyVK-27" value="" style="shape=tableRow;horizontal=0;startSize=0;swimlaneHead=0;swimlaneBody=0;fillColor=none;collapsible=0;dropTarget=0;points=[[0,0.5],[1,0.5]];portConstraint=eastwest;top=0;left=0;right=0;bottom=1;" vertex="1" parent="ZE2wqM35r_SoHQTAhyVK-26"><mxGeometry y="30" width="190" height="30" as="geometry"/></mxCell><mxCell id="ZE2wqM35r_SoHQTAhyVK-28" value="PK" style="shape=partialRectangle;overflow=hidden;connectable=0;fillColor=none;top=0;left=0;bottom=0;right=0;fontStyle=1;" vertex="1" parent="ZE2wqM35r_SoHQTAhyVK-27"><mxGeometry width="30" height="30" as="geometry"><mxRectangle width="30" height="30" as="alternateBounds"/></mxGeometry></mxCell><mxCell id="ZE2wqM35r_SoHQTAhyVK-29" value="id   BIGINT NOT NULL " style="shape=partialRectangle;overflow=hidden;connectable=0;fillColor=none;align=left;top=0;left=0;bottom=0;right=0;spacingLeft=6;fontStyle=5;" vertex="1" parent="ZE2wqM35r_SoHQTAhyVK-27"><mxGeometry x="30" width="160" height="30" as="geometry"><mxRectangle width="160" height="30" as="alternateBounds"/></mxGeometry></mxCell><mxCell id="ZE2wqM35r_SoHQTAhyVK-30" value="" style="shape=tableRow;horizontal=0;startSize=0;swimlaneHead=0;swimlaneBody=0;fillColor=none;collapsible=0;dropTarget=0;points=[[0,0.5],[1,0.5]];portConstraint=eastwest;top=0;left=0;right=0;bottom=0;" vertex="1" parent="ZE2wqM35r_SoHQTAhyVK-26"><mxGeometry y="60" width="190" height="30" as="geometry"/></mxCell><mxCell id="ZE2wqM35r_SoHQTAhyVK-31" value="" style="shape=partialRectangle;overflow=hidden;connectable=0;fillColor=none;top=0;left=0;bottom=0;right=0;" vertex="1" parent="ZE2wqM35r_SoHQTAhyVK-30"><mxGeometry width="30" height="30" as="geometry"><mxRectangle width="30" height="30" as="alternateBounds"/></mxGeometry></mxCell><mxCell id="ZE2wqM35r_SoHQTAhyVK-32" value="sensor_id         TEXT UNIQUE" style="shape=partialRectangle;overflow=hidden;connectable=0;fillColor=none;align=left;top=0;left=0;bottom=0;right=0;spacingLeft=6;" vertex="1" parent="ZE2wqM35r_SoHQTAhyVK-30"><mxGeometry x="30" width="160" height="30" as="geometry"><mxRectangle width="160" height="30" as="alternateBounds"/></mxGeometry></mxCell><mxCell id="ZE2wqM35r_SoHQTAhyVK-33" value="" style="shape=tableRow;horizontal=0;startSize=0;swimlaneHead=0;swimlaneBody=0;fillColor=none;collapsible=0;dropTarget=0;points=[[0,0.5],[1,0.5]];portConstraint=eastwest;top=0;left=0;right=0;bottom=0;" vertex="1" parent="ZE2wqM35r_SoHQTAhyVK-26"><mxGeometry y="90" width="190" height="30" as="geometry"/></mxCell><mxCell id="ZE2wqM35r_SoHQTAhyVK-34" value="" style="shape=partialRectangle;overflow=hidden;connectable=0;fillColor=none;top=0;left=0;bottom=0;right=0;" vertex="1" parent="ZE2wqM35r_SoHQTAhyVK-33"><mxGeometry width="30" height="30" as="geometry"><mxRectangle width="30" height="30" as="alternateBounds"/></mxGeometry></mxCell><mxCell id="ZE2wqM35r_SoHQTAhyVK-35" value="sensor_type         TEXT" style="shape=partialRectangle;overflow=hidden;connectable=0;fillColor=none;align=left;top=0;left=0;bottom=0;right=0;spacingLeft=6;" vertex="1" parent="ZE2wqM35r_SoHQTAhyVK-33"><mxGeometry x="30" width="160" height="30" as="geometry"><mxRectangle width="160" height="30" as="alternateBounds"/></mxGeometry></mxCell><mxCell id="ZE2wqM35r_SoHQTAhyVK-36" value="" style="shape=tableRow;horizontal=0;startSize=0;swimlaneHead=0;swimlaneBody=0;fillColor=none;collapsible=0;dropTarget=0;points=[[0,0.5],[1,0.5]];portConstraint=eastwest;top=0;left=0;right=0;bottom=0;" vertex="1" parent="ZE2wqM35r_SoHQTAhyVK-26"><mxGeometry y="120" width="190" height="30" as="geometry"/></mxCell><mxCell id="ZE2wqM35r_SoHQTAhyVK-37" value="" style="shape=partialRectangle;overflow=hidden;connectable=0;fillColor=none;top=0;left=0;bottom=0;right=0;" vertex="1" parent="ZE2wqM35r_SoHQTAhyVK-36"><mxGeometry width="30" height="30" as="geometry"><mxRectangle width="30" height="30" as="alternateBounds"/></mxGeometry></mxCell><mxCell id="ZE2wqM35r_SoHQTAhyVK-38" value="created_at  TIMESTAMP" style="shape=partialRectangle;overflow=hidden;connectable=0;fillColor=none;align=left;top=0;left=0;bottom=0;right=0;spacingLeft=6;" vertex="1" parent="ZE2wqM35r_SoHQTAhyVK-36"><mxGeometry x="30" width="160" height="30" as="geometry"><mxRectangle width="160" height="30" as="alternateBounds"/></mxGeometry></mxCell><mxCell id="ZE2wqM35r_SoHQTAhyVK-39" value="" style="shape=tableRow;horizontal=0;startSize=0;swimlaneHead=0;swimlaneBody=0;fillColor=none;collapsible=0;dropTarget=0;points=[[0,0.5],[1,0.5]];portConstraint=eastwest;top=0;left=0;right=0;bottom=0;" vertex="1" parent="ZE2wqM35r_SoHQTAhyVK-26"><mxGeometry y="150" width="190" height="30" as="geometry"/></mxCell><mxCell id="ZE2wqM35r_SoHQTAhyVK-40" value="" style="shape=partialRectangle;overflow=hidden;connectable=0;fillColor=none;top=0;left=0;bottom=0;right=0;" vertex="1" parent="ZE2wqM35r_SoHQTAhyVK-39"><mxGeometry width="30" height="30" as="geometry"><mxRectangle width="30" height="30" as="alternateBounds"/></mxGeometry></mxCell><mxCell id="ZE2wqM35r_SoHQTAhyVK-41" value="updated_at  TIMESTAMP" style="shape=partialRectangle;overflow=hidden;connectable=0;fillColor=none;align=left;top=0;left=0;bottom=0;right=0;spacingLeft=6;" vertex="1" parent="ZE2wqM35r_SoHQTAhyVK-39"><mxGeometry x="30" width="160" height="30" as="geometry"><mxRectangle width="160" height="30" as="alternateBounds"/></mxGeometry></mxCell><mxCell id="ZE2wqM35r_SoHQTAhyVK-42" value="PLOTS" style="shape=table;startSize=30;container=1;collapsible=1;childLayout=tableLayout;fixedRows=1;rowLines=0;fontStyle=1;align=center;resizeLast=1;" vertex="1" parent="1"><mxGeometry x="-370" y="250" width="310" height="420" as="geometry"/></mxCell><mxCell id="ZE2wqM35r_SoHQTAhyVK-43" value="" style="shape=tableRow;horizontal=0;startSize=0;swimlaneHead=0;swimlaneBody=0;fillColor=none;collapsible=0;dropTarget=0;points=[[0,0.5],[1,0.5]];portConstraint=eastwest;top=0;left=0;right=0;bottom=1;" vertex="1" parent="ZE2wqM35r_SoHQTAhyVK-42"><mxGeometry y="30" width="310" height="30" as="geometry"/></mxCell><mxCell id="ZE2wqM35r_SoHQTAhyVK-44" value="PK" style="shape=partialRectangle;overflow=hidden;connectable=0;fillColor=none;top=0;left=0;bottom=0;right=0;fontStyle=1;" vertex="1" parent="ZE2wqM35r_SoHQTAhyVK-43"><mxGeometry width="30" height="30" as="geometry"><mxRectangle width="30" height="30" as="alternateBounds"/></mxGeometry></mxCell><mxCell id="ZE2wqM35r_SoHQTAhyVK-45" value="id       BIGINT NOT NULL " style="shape=partialRectangle;overflow=hidden;connectable=0;fillColor=none;align=left;top=0;left=0;bottom=0;right=0;spacingLeft=6;fontStyle=5;" vertex="1" parent="ZE2wqM35r_SoHQTAhyVK-43"><mxGeometry x="30" width="280" height="30" as="geometry"><mxRectangle width="280" height="30" as="alternateBounds"/></mxGeometry></mxCell><mxCell id="ZE2wqM35r_SoHQTAhyVK-46" value="" style="shape=tableRow;horizontal=0;startSize=0;swimlaneHead=0;swimlaneBody=0;fillColor=none;collapsible=0;dropTarget=0;points=[[0,0.5],[1,0.5]];portConstraint=eastwest;top=0;left=0;right=0;bottom=0;" vertex="1" parent="ZE2wqM35r_SoHQTAhyVK-42"><mxGeometry y="60" width="310" height="30" as="geometry"/></mxCell><mxCell id="ZE2wqM35r_SoHQTAhyVK-47" value="" style="shape=partialRectangle;overflow=hidden;connectable=0;fillColor=none;top=0;left=0;bottom=0;right=0;" vertex="1" parent="ZE2wqM35r_SoHQTAhyVK-46"><mxGeometry width="30" height="30" as="geometry"><mxRectangle width="30" height="30" as="alternateBounds"/></mxGeometry></mxCell><mxCell id="ZE2wqM35r_SoHQTAhyVK-48" value="plot_number          TEXT UNIQUE" style="shape=partialRectangle;overflow=hidden;connectable=0;fillColor=none;align=left;top=0;left=0;bottom=0;right=0;spacingLeft=6;" vertex="1" parent="ZE2wqM35r_SoHQTAhyVK-46"><mxGeometry x="30" width="280" height="30" as="geometry"><mxRectangle width="280" height="30" as="alternateBounds"/></mxGeometry></mxCell><mxCell id="ZE2wqM35r_SoHQTAhyVK-49" value="" style="shape=tableRow;horizontal=0;startSize=0;swimlaneHead=0;swimlaneBody=0;fillColor=none;collapsible=0;dropTarget=0;points=[[0,0.5],[1,0.5]];portConstraint=eastwest;top=0;left=0;right=0;bottom=0;" vertex="1" parent="ZE2wqM35r_SoHQTAhyVK-42"><mxGeometry y="90" width="310" height="30" as="geometry"/></mxCell><mxCell id="ZE2wqM35r_SoHQTAhyVK-50" value="" style="shape=partialRectangle;overflow=hidden;connectable=0;fillColor=none;top=0;left=0;bottom=0;right=0;" vertex="1" parent="ZE2wqM35r_SoHQTAhyVK-49"><mxGeometry width="30" height="30" as="geometry"><mxRectangle width="30" height="30" as="alternateBounds"/></mxGeometry></mxCell><mxCell id="ZE2wqM35r_SoHQTAhyVK-51" value="acreage         TEXT" style="shape=partialRectangle;overflow=hidden;connectable=0;fillColor=none;align=left;top=0;left=0;bottom=0;right=0;spacingLeft=6;" vertex="1" parent="ZE2wqM35r_SoHQTAhyVK-49"><mxGeometry x="30" width="280" height="30" as="geometry"><mxRectangle width="280" height="30" as="alternateBounds"/></mxGeometry></mxCell><mxCell id="ZE2wqM35r_SoHQTAhyVK-52" value="" style="shape=tableRow;horizontal=0;startSize=0;swimlaneHead=0;swimlaneBody=0;fillColor=none;collapsible=0;dropTarget=0;points=[[0,0.5],[1,0.5]];portConstraint=eastwest;top=0;left=0;right=0;bottom=0;" vertex="1" parent="ZE2wqM35r_SoHQTAhyVK-42"><mxGeometry y="120" width="310" height="30" as="geometry"/></mxCell><mxCell id="ZE2wqM35r_SoHQTAhyVK-53" value="FK" style="shape=partialRectangle;overflow=hidden;connectable=0;fillColor=none;top=0;left=0;bottom=0;right=0;" vertex="1" parent="ZE2wqM35r_SoHQTAhyVK-52"><mxGeometry width="30" height="30" as="geometry"><mxRectangle width="30" height="30" as="alternateBounds"/></mxGeometry></mxCell><mxCell id="ZE2wqM35r_SoHQTAhyVK-54" value="crop_id BIGINT" style="shape=partialRectangle;overflow=hidden;connectable=0;fillColor=none;align=left;top=0;left=0;bottom=0;right=0;spacingLeft=6;" vertex="1" parent="ZE2wqM35r_SoHQTAhyVK-52"><mxGeometry x="30" width="280" height="30" as="geometry"><mxRectangle width="280" height="30" as="alternateBounds"/></mxGeometry></mxCell><mxCell id="ZE2wqM35r_SoHQTAhyVK-55" value="" style="shape=tableRow;horizontal=0;startSize=0;swimlaneHead=0;swimlaneBody=0;fillColor=none;collapsible=0;dropTarget=0;points=[[0,0.5],[1,0.5]];portConstraint=eastwest;top=0;left=0;right=0;bottom=0;" vertex="1" parent="ZE2wqM35r_SoHQTAhyVK-42"><mxGeometry y="150" width="310" height="30" as="geometry"/></mxCell><mxCell id="ZE2wqM35r_SoHQTAhyVK-56" value="FK" style="shape=partialRectangle;overflow=hidden;connectable=0;fillColor=none;top=0;left=0;bottom=0;right=0;" vertex="1" parent="ZE2wqM35r_SoHQTAhyVK-55"><mxGeometry width="30" height="30" as="geometry"><mxRectangle width="30" height="30" as="alternateBounds"/></mxGeometry></mxCell><mxCell id="ZE2wqM35r_SoHQTAhyVK-57" value="sensor_id BIGINT" style="shape=partialRectangle;overflow=hidden;connectable=0;fillColor=none;align=left;top=0;left=0;bottom=0;right=0;spacingLeft=6;" vertex="1" parent="ZE2wqM35r_SoHQTAhyVK-55"><mxGeometry x="30" width="280" height="30" as="geometry"><mxRectangle width="280" height="30" as="alternateBounds"/></mxGeometry></mxCell><mxCell id="ZE2wqM35r_SoHQTAhyVK-58" value="" style="shape=tableRow;horizontal=0;startSize=0;swimlaneHead=0;swimlaneBody=0;fillColor=none;collapsible=0;dropTarget=0;points=[[0,0.5],[1,0.5]];portConstraint=eastwest;top=0;left=0;right=0;bottom=0;" vertex="1" parent="ZE2wqM35r_SoHQTAhyVK-42"><mxGeometry y="180" width="310" height="30" as="geometry"/></mxCell><mxCell id="ZE2wqM35r_SoHQTAhyVK-59" value="" style="shape=partialRectangle;overflow=hidden;connectable=0;fillColor=none;top=0;left=0;bottom=0;right=0;" vertex="1" parent="ZE2wqM35r_SoHQTAhyVK-58"><mxGeometry width="30" height="30" as="geometry"><mxRectangle width="30" height="30" as="alternateBounds"/></mxGeometry></mxCell><mxCell id="ZE2wqM35r_SoHQTAhyVK-60" value="current_moisture_content         TEXT" style="shape=partialRectangle;overflow=hidden;connectable=0;fillColor=none;align=left;top=0;left=0;bottom=0;right=0;spacingLeft=6;" vertex="1" parent="ZE2wqM35r_SoHQTAhyVK-58"><mxGeometry x="30" width="280" height="30" as="geometry"><mxRectangle width="280" height="30" as="alternateBounds"/></mxGeometry></mxCell><mxCell id="ZE2wqM35r_SoHQTAhyVK-61" value="" style="shape=tableRow;horizontal=0;startSize=0;swimlaneHead=0;swimlaneBody=0;fillColor=none;collapsible=0;dropTarget=0;points=[[0,0.5],[1,0.5]];portConstraint=eastwest;top=0;left=0;right=0;bottom=0;" vertex="1" parent="ZE2wqM35r_SoHQTAhyVK-42"><mxGeometry y="210" width="310" height="30" as="geometry"/></mxCell><mxCell id="ZE2wqM35r_SoHQTAhyVK-62" value="" style="shape=partialRectangle;overflow=hidden;connectable=0;fillColor=none;top=0;left=0;bottom=0;right=0;" vertex="1" parent="ZE2wqM35r_SoHQTAhyVK-61"><mxGeometry width="30" height="30" as="geometry"><mxRectangle width="30" height="30" as="alternateBounds"/></mxGeometry></mxCell><mxCell id="ZE2wqM35r_SoHQTAhyVK-63" value="evapotranspiration         TEXT" style="shape=partialRectangle;overflow=hidden;connectable=0;fillColor=none;align=left;top=0;left=0;bottom=0;right=0;spacingLeft=6;" vertex="1" parent="ZE2wqM35r_SoHQTAhyVK-61"><mxGeometry x="30" width="280" height="30" as="geometry"><mxRectangle width="280" height="30" as="alternateBounds"/></mxGeometry></mxCell><mxCell id="ZE2wqM35r_SoHQTAhyVK-64" value="" style="shape=tableRow;horizontal=0;startSize=0;swimlaneHead=0;swimlaneBody=0;fillColor=none;collapsible=0;dropTarget=0;points=[[0,0.5],[1,0.5]];portConstraint=eastwest;top=0;left=0;right=0;bottom=0;" vertex="1" parent="ZE2wqM35r_SoHQTAhyVK-42"><mxGeometry y="240" width="310" height="30" as="geometry"/></mxCell><mxCell id="ZE2wqM35r_SoHQTAhyVK-65" value="" style="shape=partialRectangle;overflow=hidden;connectable=0;fillColor=none;top=0;left=0;bottom=0;right=0;" vertex="1" parent="ZE2wqM35r_SoHQTAhyVK-64"><mxGeometry width="30" height="30" as="geometry"><mxRectangle width="30" height="30" as="alternateBounds"/></mxGeometry></mxCell><mxCell id="ZE2wqM35r_SoHQTAhyVK-66" value="created_at  TIMESTAMP" style="shape=partialRectangle;overflow=hidden;connectable=0;fillColor=none;align=left;top=0;left=0;bottom=0;right=0;spacingLeft=6;" vertex="1" parent="ZE2wqM35r_SoHQTAhyVK-64"><mxGeometry x="30" width="280" height="30" as="geometry"><mxRectangle width="280" height="30" as="alternateBounds"/></mxGeometry></mxCell><mxCell id="ZE2wqM35r_SoHQTAhyVK-67" value="" style="shape=tableRow;horizontal=0;startSize=0;swimlaneHead=0;swimlaneBody=0;fillColor=none;collapsible=0;dropTarget=0;points=[[0,0.5],[1,0.5]];portConstraint=eastwest;top=0;left=0;right=0;bottom=0;" vertex="1" parent="ZE2wqM35r_SoHQTAhyVK-42"><mxGeometry y="270" width="310" height="30" as="geometry"/></mxCell><mxCell id="ZE2wqM35r_SoHQTAhyVK-68" value="" style="shape=partialRectangle;overflow=hidden;connectable=0;fillColor=none;top=0;left=0;bottom=0;right=0;" vertex="1" parent="ZE2wqM35r_SoHQTAhyVK-67"><mxGeometry width="30" height="30" as="geometry"><mxRectangle width="30" height="30" as="alternateBounds"/></mxGeometry></mxCell><mxCell id="ZE2wqM35r_SoHQTAhyVK-69" value="updated_at  TIMESTAMP" style="shape=partialRectangle;overflow=hidden;connectable=0;fillColor=none;align=left;top=0;left=0;bottom=0;right=0;spacingLeft=6;" vertex="1" parent="ZE2wqM35r_SoHQTAhyVK-67"><mxGeometry x="30" width="280" height="30" as="geometry"><mxRectangle width="280" height="30" as="alternateBounds"/></mxGeometry></mxCell><mxCell id="ZE2wqM35r_SoHQTAhyVK-70" value="" style="shape=tableRow;horizontal=0;startSize=0;swimlaneHead=0;swimlaneBody=0;fillColor=none;collapsible=0;dropTarget=0;points=[[0,0.5],[1,0.5]];portConstraint=eastwest;top=0;left=0;right=0;bottom=0;" vertex="1" parent="ZE2wqM35r_SoHQTAhyVK-42"><mxGeometry y="300" width="310" height="30" as="geometry"/></mxCell><mxCell id="ZE2wqM35r_SoHQTAhyVK-71" value="" style="shape=partialRectangle;overflow=hidden;connectable=0;fillColor=none;top=0;left=0;bottom=0;right=0;" vertex="1" parent="ZE2wqM35r_SoHQTAhyVK-70"><mxGeometry width="30" height="30" as="geometry"><mxRectangle width="30" height="30" as="alternateBounds"/></mxGeometry></mxCell><mxCell id="ZE2wqM35r_SoHQTAhyVK-72" value="" style="shape=partialRectangle;overflow=hidden;connectable=0;fillColor=none;align=left;top=0;left=0;bottom=0;right=0;spacingLeft=6;" vertex="1" parent="ZE2wqM35r_SoHQTAhyVK-70"><mxGeometry x="30" width="280" height="30" as="geometry"><mxRectangle width="280" height="30" as="alternateBounds"/></mxGeometry></mxCell><mxCell id="ZE2wqM35r_SoHQTAhyVK-73" value="" style="shape=tableRow;horizontal=0;startSize=0;swimlaneHead=0;swimlaneBody=0;fillColor=none;collapsible=0;dropTarget=0;points=[[0,0.5],[1,0.5]];portConstraint=eastwest;top=0;left=0;right=0;bottom=0;" vertex="1" parent="ZE2wqM35r_SoHQTAhyVK-42"><mxGeometry y="330" width="310" height="30" as="geometry"/></mxCell><mxCell id="ZE2wqM35r_SoHQTAhyVK-74" value="" style="shape=partialRectangle;overflow=hidden;connectable=0;fillColor=none;top=0;left=0;bottom=0;right=0;" vertex="1" parent="ZE2wqM35r_SoHQTAhyVK-73"><mxGeometry width="30" height="30" as="geometry"><mxRectangle width="30" height="30" as="alternateBounds"/></mxGeometry></mxCell><mxCell id="ZE2wqM35r_SoHQTAhyVK-75" value="" style="shape=partialRectangle;overflow=hidden;connectable=0;fillColor=none;align=left;top=0;left=0;bottom=0;right=0;spacingLeft=6;" vertex="1" parent="ZE2wqM35r_SoHQTAhyVK-73"><mxGeometry x="30" width="280" height="30" as="geometry"><mxRectangle width="280" height="30" as="alternateBounds"/></mxGeometry></mxCell><mxCell id="ZE2wqM35r_SoHQTAhyVK-76" value="" style="shape=tableRow;horizontal=0;startSize=0;swimlaneHead=0;swimlaneBody=0;fillColor=none;collapsible=0;dropTarget=0;points=[[0,0.5],[1,0.5]];portConstraint=eastwest;top=0;left=0;right=0;bottom=0;" vertex="1" parent="ZE2wqM35r_SoHQTAhyVK-42"><mxGeometry y="360" width="310" height="30" as="geometry"/></mxCell><mxCell id="ZE2wqM35r_SoHQTAhyVK-77" value="" style="shape=partialRectangle;overflow=hidden;connectable=0;fillColor=none;top=0;left=0;bottom=0;right=0;" vertex="1" parent="ZE2wqM35r_SoHQTAhyVK-76"><mxGeometry width="30" height="30" as="geometry"><mxRectangle width="30" height="30" as="alternateBounds"/></mxGeometry></mxCell><mxCell id="ZE2wqM35r_SoHQTAhyVK-78" value="" style="shape=partialRectangle;overflow=hidden;connectable=0;fillColor=none;align=left;top=0;left=0;bottom=0;right=0;spacingLeft=6;" vertex="1" parent="ZE2wqM35r_SoHQTAhyVK-76"><mxGeometry x="30" width="280" height="30" as="geometry"><mxRectangle width="280" height="30" as="alternateBounds"/></mxGeometry></mxCell><mxCell id="ZE2wqM35r_SoHQTAhyVK-79" value="" style="shape=tableRow;horizontal=0;startSize=0;swimlaneHead=0;swimlaneBody=0;fillColor=none;collapsible=0;dropTarget=0;points=[[0,0.5],[1,0.5]];portConstraint=eastwest;top=0;left=0;right=0;bottom=0;" vertex="1" parent="ZE2wqM35r_SoHQTAhyVK-42"><mxGeometry y="390" width="310" height="30" as="geometry"/></mxCell><mxCell id="ZE2wqM35r_SoHQTAhyVK-80" value="" style="shape=partialRectangle;overflow=hidden;connectable=0;fillColor=none;top=0;left=0;bottom=0;right=0;" vertex="1" parent="ZE2wqM35r_SoHQTAhyVK-79"><mxGeometry width="30" height="30" as="geometry"><mxRectangle width="30" height="30" as="alternateBounds"/></mxGeometry></mxCell><mxCell id="ZE2wqM35r_SoHQTAhyVK-81" value="" style="shape=partialRectangle;overflow=hidden;connectable=0;fillColor=none;align=left;top=0;left=0;bottom=0;right=0;spacingLeft=6;" vertex="1" parent="ZE2wqM35r_SoHQTAhyVK-79"><mxGeometry x="30" width="280" height="30" as="geometry"><mxRectangle width="280" height="30" as="alternateBounds"/></mxGeometry></mxCell><mxCell id="ZE2wqM35r_SoHQTAhyVK-82" value="IRRIGATION TIMES" style="shape=table;startSize=30;container=1;collapsible=1;childLayout=tableLayout;fixedRows=1;rowLines=0;fontStyle=1;align=center;resizeLast=1;" vertex="1" parent="1"><mxGeometry x="90" y="220" width="190" height="190" as="geometry"/></mxCell><mxCell id="ZE2wqM35r_SoHQTAhyVK-83" value="" style="shape=tableRow;horizontal=0;startSize=0;swimlaneHead=0;swimlaneBody=0;fillColor=none;collapsible=0;dropTarget=0;points=[[0,0.5],[1,0.5]];portConstraint=eastwest;top=0;left=0;right=0;bottom=1;" vertex="1" parent="ZE2wqM35r_SoHQTAhyVK-82"><mxGeometry y="30" width="190" height="30" as="geometry"/></mxCell><mxCell id="ZE2wqM35r_SoHQTAhyVK-84" value="PK" style="shape=partialRectangle;overflow=hidden;connectable=0;fillColor=none;top=0;left=0;bottom=0;right=0;fontStyle=1;" vertex="1" parent="ZE2wqM35r_SoHQTAhyVK-83"><mxGeometry width="30" height="30" as="geometry"><mxRectangle width="30" height="30" as="alternateBounds"/></mxGeometry></mxCell><mxCell id="ZE2wqM35r_SoHQTAhyVK-85" value="id   BIGINT NOT NULL " style="shape=partialRectangle;overflow=hidden;connectable=0;fillColor=none;align=left;top=0;left=0;bottom=0;right=0;spacingLeft=6;fontStyle=5;" vertex="1" parent="ZE2wqM35r_SoHQTAhyVK-83"><mxGeometry x="30" width="160" height="30" as="geometry"><mxRectangle width="160" height="30" as="alternateBounds"/></mxGeometry></mxCell><mxCell id="ZE2wqM35r_SoHQTAhyVK-86" value="" style="shape=tableRow;horizontal=0;startSize=0;swimlaneHead=0;swimlaneBody=0;fillColor=none;collapsible=0;dropTarget=0;points=[[0,0.5],[1,0.5]];portConstraint=eastwest;top=0;left=0;right=0;bottom=0;" vertex="1" parent="ZE2wqM35r_SoHQTAhyVK-82"><mxGeometry y="60" width="190" height="30" as="geometry"/></mxCell><mxCell id="ZE2wqM35r_SoHQTAhyVK-87" value="" style="shape=partialRectangle;overflow=hidden;connectable=0;fillColor=none;top=0;left=0;bottom=0;right=0;" vertex="1" parent="ZE2wqM35r_SoHQTAhyVK-86"><mxGeometry width="30" height="30" as="geometry"><mxRectangle width="30" height="30" as="alternateBounds"/></mxGeometry></mxCell><mxCell id="ZE2wqM35r_SoHQTAhyVK-88" value="plot_id         TEXT" style="shape=partialRectangle;overflow=hidden;connectable=0;fillColor=none;align=left;top=0;left=0;bottom=0;right=0;spacingLeft=6;" vertex="1" parent="ZE2wqM35r_SoHQTAhyVK-86"><mxGeometry x="30" width="160" height="30" as="geometry"><mxRectangle width="160" height="30" as="alternateBounds"/></mxGeometry></mxCell><mxCell id="ZE2wqM35r_SoHQTAhyVK-89" value="" style="shape=tableRow;horizontal=0;startSize=0;swimlaneHead=0;swimlaneBody=0;fillColor=none;collapsible=0;dropTarget=0;points=[[0,0.5],[1,0.5]];portConstraint=eastwest;top=0;left=0;right=0;bottom=0;" vertex="1" parent="ZE2wqM35r_SoHQTAhyVK-82"><mxGeometry y="90" width="190" height="30" as="geometry"/></mxCell><mxCell id="ZE2wqM35r_SoHQTAhyVK-90" value="" style="shape=partialRectangle;overflow=hidden;connectable=0;fillColor=none;top=0;left=0;bottom=0;right=0;" vertex="1" parent="ZE2wqM35r_SoHQTAhyVK-89"><mxGeometry width="30" height="30" as="geometry"><mxRectangle width="30" height="30" as="alternateBounds"/></mxGeometry></mxCell><mxCell id="ZE2wqM35r_SoHQTAhyVK-91" value="irrigated_at         TEXT" style="shape=partialRectangle;overflow=hidden;connectable=0;fillColor=none;align=left;top=0;left=0;bottom=0;right=0;spacingLeft=6;" vertex="1" parent="ZE2wqM35r_SoHQTAhyVK-89"><mxGeometry x="30" width="160" height="30" as="geometry"><mxRectangle width="160" height="30" as="alternateBounds"/></mxGeometry></mxCell><mxCell id="ZE2wqM35r_SoHQTAhyVK-92" value="" style="shape=tableRow;horizontal=0;startSize=0;swimlaneHead=0;swimlaneBody=0;fillColor=none;collapsible=0;dropTarget=0;points=[[0,0.5],[1,0.5]];portConstraint=eastwest;top=0;left=0;right=0;bottom=0;" vertex="1" parent="ZE2wqM35r_SoHQTAhyVK-82"><mxGeometry y="120" width="190" height="30" as="geometry"/></mxCell><mxCell id="ZE2wqM35r_SoHQTAhyVK-93" value="" style="shape=partialRectangle;overflow=hidden;connectable=0;fillColor=none;top=0;left=0;bottom=0;right=0;" vertex="1" parent="ZE2wqM35r_SoHQTAhyVK-92"><mxGeometry width="30" height="30" as="geometry"><mxRectangle width="30" height="30" as="alternateBounds"/></mxGeometry></mxCell><mxCell id="ZE2wqM35r_SoHQTAhyVK-94" value="created_at  TIMESTAMP" style="shape=partialRectangle;overflow=hidden;connectable=0;fillColor=none;align=left;top=0;left=0;bottom=0;right=0;spacingLeft=6;" vertex="1" parent="ZE2wqM35r_SoHQTAhyVK-92"><mxGeometry x="30" width="160" height="30" as="geometry"><mxRectangle width="160" height="30" as="alternateBounds"/></mxGeometry></mxCell><mxCell id="ZE2wqM35r_SoHQTAhyVK-95" value="" style="shape=tableRow;horizontal=0;startSize=0;swimlaneHead=0;swimlaneBody=0;fillColor=none;collapsible=0;dropTarget=0;points=[[0,0.5],[1,0.5]];portConstraint=eastwest;top=0;left=0;right=0;bottom=0;" vertex="1" parent="ZE2wqM35r_SoHQTAhyVK-82"><mxGeometry y="150" width="190" height="30" as="geometry"/></mxCell><mxCell id="ZE2wqM35r_SoHQTAhyVK-96" value="" style="shape=partialRectangle;overflow=hidden;connectable=0;fillColor=none;top=0;left=0;bottom=0;right=0;" vertex="1" parent="ZE2wqM35r_SoHQTAhyVK-95"><mxGeometry width="30" height="30" as="geometry"><mxRectangle width="30" height="30" as="alternateBounds"/></mxGeometry></mxCell><mxCell id="ZE2wqM35r_SoHQTAhyVK-97" value="updated_at  TIMESTAMP" style="shape=partialRectangle;overflow=hidden;connectable=0;fillColor=none;align=left;top=0;left=0;bottom=0;right=0;spacingLeft=6;" vertex="1" parent="ZE2wqM35r_SoHQTAhyVK-95"><mxGeometry x="30" width="160" height="30" as="geometry"><mxRectangle width="160" height="30" as="alternateBounds"/></mxGeometry></mxCell><mxCell id="ZE2wqM35r_SoHQTAhyVK-98" style="edgeStyle=entityRelationEdgeStyle;rounded=1;orthogonalLoop=1;jettySize=auto;html=1;entryX=0;entryY=0.5;entryDx=0;entryDy=0;strokeWidth=3;" edge="1" parent="1" source="ZE2wqM35r_SoHQTAhyVK-2" target="ZE2wqM35r_SoHQTAhyVK-52"><mxGeometry relative="1" as="geometry"/></mxCell><mxCell id="ZE2wqM35r_SoHQTAhyVK-99" style="edgeStyle=entityRelationEdgeStyle;rounded=1;orthogonalLoop=1;jettySize=auto;html=1;entryX=0;entryY=0.5;entryDx=0;entryDy=0;strokeWidth=3;" edge="1" parent="1" source="ZE2wqM35r_SoHQTAhyVK-27" target="ZE2wqM35r_SoHQTAhyVK-55"><mxGeometry relative="1" as="geometry"/></mxCell><mxCell id="ZE2wqM35r_SoHQTAhyVK-100" style="edgeStyle=entityRelationEdgeStyle;rounded=1;orthogonalLoop=1;jettySize=auto;html=1;strokeWidth=3;" edge="1" parent="1" source="ZE2wqM35r_SoHQTAhyVK-43" target="ZE2wqM35r_SoHQTAhyVK-86"><mxGeometry relative="1" as="geometry"/></mxCell><mxCell id="SpiVIi6D6ebS57FdX_P1-2" value="" style="rounded=0;whiteSpace=wrap;html=1;fontStyle=1;fillColor=none;strokeWidth=2;dashed=1;" vertex="1" parent="1"><mxGeometry x="-715" y="119" width="1018" height="642" as="geometry"/></mxCell></root></mxGraphModel></diagram></mxfile>